<?xml version="1.0" encoding="UTF-8"?>
<svg xmlns="http://www.w3.org/2000/svg" xmlns:xlink="http://www.w3.org/1999/xlink" version="1.2" >
<font id="Panton SemiBold">
<font-face  font-family="Panton" units-per-em="1000" ascent="740" descent="-260" font-style="normal" font-weight="600" font-stretch="normal" cap-height="710" x-height="516" underline-position="-75" underline-thickness="50" />
<missing-glyph  horiz-adv-x="686" d="M610 27 L610 683 C610 703 603 710 584 710 L107 710 C87 710 81 703 81 683 L81 27 C81 7 87 0 107 0 L584 0 C603 0 610 7 610 27 L610 27 Z M177 620 L514 620 L514 90 L177 90 L177 620 Z " />
<glyph glyph-name="NULL" horiz-adv-x="371" d="" />
<glyph glyph-name="CR" unicode="&#xd;" horiz-adv-x="322" d="" />
<glyph glyph-name="space" unicode="&#x20;" horiz-adv-x="228" d="" />
<glyph glyph-name="exclam" unicode="&#x21;" horiz-adv-x="222" d="M134 740 L89 740 C71 740 64 734 65 716 L75 208 C76 190 81 184 99 184 L123 184 C141 184 146 190 147 208 L158 716 C159 734 152 740 134 740 L134 740 Z M114 103 L108 103 C69 103 57 90 57 52 L57 44 C57 5 69 -6 108 -6 L114 -6 C153 -6 165 6 165 44 L165 52 C165 90 153 103 114 103 L114 103 Z " />
<glyph glyph-name="quotedbl" unicode="&#x22;" horiz-adv-x="319" d="M131 485 L142 689 C143 707 137 710 120 710 L83 710 C65 710 61 707 61 689 L61 485 C61 467 65 465 83 465 L107 465 C125 465 129 467 131 485 L131 485 Z M254 485 L265 689 C266 707 261 710 243 710 L206 710 C188 710 184 707 184 689 L184 485 C184 467 188 465 206 465 L231 465 C249 465 253 467 254 485 L254 485 Z " />
<glyph glyph-name="numbersign" unicode="&#x23;" horiz-adv-x="694" d="M643 490 L549 490 L593 636 C598 653 593 660 575 660 L536 660 C518 660 512 653 506 636 L462 490 L321 490 L366 636 C371 653 366 660 348 660 L309 660 C291 660 284 653 279 636 L235 490 L143 490 C125 490 116 485 111 468 L100 431 C95 414 100 408 118 408 L211 408 L168 263 L76 263 C57 263 49 258 44 241 L33 204 C28 187 33 181 51 181 L143 181 L96 24 C91 7 96 0 113 0 L152 0 C171 0 178 7 183 24 L230 181 L370 181 L323 24 C318 7 323 0 341 0 L380 0 C398 0 405 7 410 24 L457 181 L551 181 C570 181 577 186 583 203 L594 239 C599 257 594 263 576 263 L482 263 L525 408 L619 408 C636 408 645 413 650 430 L661 466 C665 484 661 490 643 490 L643 490 Z M298 408 L438 408 L395 263 L254 263 L298 408 Z " />
<glyph glyph-name="dollar" unicode="&#x24;" horiz-adv-x="591" d="M315 779 L273 779 C255 779 249 773 249 755 L249 698 C114 686 48 613 48 502 C48 346 177 324 290 312 C376 303 453 293 453 210 C453 135 399 100 293 100 C203 100 159 139 131 207 C123 227 115 231 95 224 L57 210 C38 203 33 193 40 174 C75 85 138 24 249 13 L249 -45 C249 -63 255 -69 273 -69 L315 -69 C333 -69 339 -63 339 -45 L339 14 C478 28 550 100 550 212 C550 375 420 393 308 404 C223 413 146 424 146 502 C146 575 191 609 290 609 C378 609 415 574 447 511 C457 492 465 489 483 497 L521 514 C541 523 545 533 536 552 C495 636 443 686 339 698 L339 755 C339 773 333 779 315 779 L315 779 Z " />
<glyph glyph-name="percent" unicode="&#x25;" horiz-adv-x="816" d="M34 578 L34 505 C34 415 91 359 196 359 C301 359 358 415 358 505 L358 578 C358 669 301 726 196 726 C91 726 34 669 34 578 L34 578 Z M687 710 L652 710 C624 710 618 708 604 688 L117 27 C107 13 111 0 131 0 L161 0 C192 0 198 2 213 23 L699 685 C709 698 705 710 687 710 L687 710 Z M282 574 L282 510 C282 460 252 430 196 430 C139 430 109 460 109 510 L109 574 C109 625 139 654 196 654 C252 654 282 625 282 574 L282 574 Z M457 203 L457 131 C457 40 514 -16 619 -16 C725 -16 781 40 781 131 L781 203 C781 294 725 351 619 351 C514 351 457 294 457 203 L457 203 Z M706 199 L706 136 C706 85 676 56 619 56 C563 56 533 85 533 136 L533 199 C533 250 563 279 619 279 C676 279 706 250 706 199 L706 199 Z " />
<glyph glyph-name="ampersand" unicode="&#x26;" horiz-adv-x="669" d="M105 548 C105 484 140 433 183 388 C105 349 40 293 40 189 C40 70 127 -15 245 -15 C319 -15 374 4 470 93 L549 15 C560 3 568 0 585 0 L641 0 C663 0 665 9 652 24 L528 149 L596 216 C608 227 607 234 598 244 L568 275 C557 286 546 286 536 275 L470 211 L316 364 L326 369 C425 414 473 464 473 554 C473 648 395 725 292 725 C172 725 105 640 105 548 L105 548 Z M389 553 C389 491 349 468 289 440 L259 425 C216 468 190 500 190 547 C190 599 228 646 292 646 C348 646 389 603 389 553 L389 553 Z M241 326 L412 156 C347 96 307 70 250 70 C183 70 131 120 131 187 C131 252 168 293 241 326 L241 326 Z " />
<glyph glyph-name="quotesingle" unicode="&#x27;" horiz-adv-x="196" d="M131 485 L142 689 C143 707 137 710 120 710 L83 710 C65 710 61 707 61 689 L61 485 C61 467 65 465 83 465 L107 465 C125 465 129 467 131 485 L131 485 Z " />
<glyph glyph-name="parenleft" unicode="&#x28;" horiz-adv-x="270" d="M57 610 L57 100 C57 -29 108 -96 198 -138 C215 -145 222 -140 231 -123 L247 -90 C256 -74 251 -67 234 -58 C177 -30 145 10 145 93 L145 617 C145 700 177 740 234 768 C251 777 254 783 247 800 L231 833 C222 850 215 855 198 848 C108 806 57 739 57 610 L57 610 Z " />
<glyph glyph-name="parenright" unicode="&#x29;" horiz-adv-x="270" d="M39 833 L23 800 C16 783 19 777 36 768 C93 740 125 700 125 617 L125 93 C125 10 93 -30 36 -58 C19 -67 16 -73 23 -90 L39 -123 C48 -140 55 -145 72 -138 C162 -96 213 -29 213 100 L213 610 C213 739 162 806 72 848 C55 855 48 850 39 833 L39 833 Z " />
<glyph glyph-name="asterisk" unicode="&#x2a;" horiz-adv-x="372" d="M200 673 L172 673 C161 673 157 668 160 658 L169 561 L80 600 C70 606 65 603 61 592 L52 567 C49 556 52 550 64 548 L158 528 L93 455 C84 447 85 441 94 434 L116 417 C125 411 132 413 137 423 L186 506 L235 423 C240 412 246 411 256 418 L278 434 C287 441 287 447 279 454 L215 528 L310 548 C322 550 324 556 321 566 L313 592 C309 603 304 605 293 600 L204 561 L213 658 C215 668 211 673 200 673 L200 673 Z " />
<glyph glyph-name="plus" unicode="&#x2b;" horiz-adv-x="556" d="M488 369 L320 369 L320 537 C320 556 313 563 293 563 L262 563 C242 563 236 556 236 537 L236 369 L68 369 C49 369 42 363 42 343 L42 312 C42 292 49 285 68 285 L236 285 L236 117 C236 98 242 91 262 91 L293 91 C313 91 320 98 320 117 L320 285 L488 285 C508 285 514 292 514 312 L514 343 C514 363 508 369 488 369 L488 369 Z " />
<glyph glyph-name="comma" unicode="&#x2c;" horiz-adv-x="199" d="M89 -98 L148 71 C155 90 148 100 123 100 L89 100 C67 100 59 94 56 71 L26 -103 C24 -118 27 -122 43 -122 L59 -122 C77 -122 83 -115 89 -98 L89 -98 Z " />
<glyph glyph-name="hyphen" unicode="&#x2d;" horiz-adv-x="417" d="M331 308 L86 308 C66 308 60 302 60 282 L60 248 C60 228 66 222 86 222 L331 222 C351 222 358 228 358 248 L358 282 C358 302 351 308 331 308 L331 308 Z " />
<glyph glyph-name="period" unicode="&#x2e;" horiz-adv-x="205" d="M105 103 L99 103 C60 103 48 90 48 52 L48 44 C48 5 60 -6 99 -6 L105 -6 C144 -6 156 6 156 44 L156 52 C156 90 144 103 105 103 L105 103 Z " />
<glyph glyph-name="slash" unicode="&#x2f;" horiz-adv-x="422" d="M122 -38 L392 689 C398 704 394 711 376 711 L333 711 C315 711 307 706 301 689 L31 -38 C25 -53 28 -60 47 -60 L90 -60 C108 -60 115 -55 122 -38 L122 -38 Z " />
<glyph glyph-name="zero" unicode="0" horiz-adv-x="629" d="M55 488 L55 222 C55 77 150 -15 315 -15 C479 -15 574 77 574 222 L574 488 C574 633 479 725 315 725 C150 725 55 633 55 488 L55 488 Z M477 488 L477 222 C477 130 418 75 315 75 C211 75 152 130 152 222 L152 488 C152 581 211 635 315 635 C418 635 477 581 477 488 L477 488 Z " />
<glyph glyph-name="one" unicode="1" horiz-adv-x="442" d="M333 710 L296 710 C280 710 273 708 259 699 L37 574 C20 564 16 555 25 538 L45 503 C54 486 64 482 84 494 L263 593 L263 26 C263 7 269 0 289 0 L333 0 C353 0 359 7 359 26 L359 684 C359 703 353 710 333 710 L333 710 Z " />
<glyph glyph-name="two" unicode="2" horiz-adv-x="594" d="M52 561 C45 543 50 534 68 528 L111 512 C129 506 136 510 144 529 C176 599 224 635 309 635 C391 635 446 575 446 502 C446 391 349 358 251 320 C149 280 48 235 48 100 L48 27 C48 7 55 0 75 0 L512 0 C532 0 538 7 538 26 L538 64 C538 83 532 90 512 90 L149 90 L149 119 C149 185 219 209 278 232 C457 302 547 355 547 506 C547 623 458 725 312 725 C172 725 94 663 52 561 L52 561 Z " />
<glyph glyph-name="three" unicode="3" horiz-adv-x="606" d="M537 524 C537 649 457 725 310 725 C160 725 88 665 51 555 C45 537 49 528 68 522 L109 507 C128 502 136 504 143 523 C168 598 205 635 308 635 C396 635 441 593 441 515 C441 452 400 405 325 405 L212 405 C192 405 186 399 186 379 L186 344 C186 324 192 318 212 318 L339 318 C418 318 459 275 459 200 C459 123 413 75 310 75 C201 75 162 114 137 189 C130 208 122 212 103 206 L62 191 C43 184 39 176 45 157 C82 47 157 -15 310 -15 C480 -15 560 71 560 199 C560 277 526 341 453 370 C512 398 537 457 537 524 L537 524 Z " />
<glyph glyph-name="four" unicode="4" horiz-adv-x="620" d="M567 266 L485 266 L485 689 C485 709 478 715 458 715 L416 715 C398 715 391 711 379 696 L33 266 C25 256 24 252 24 234 L24 206 C24 187 30 180 50 180 L395 180 L395 26 C395 7 401 0 421 0 L459 0 C478 0 485 7 485 26 L485 180 L567 180 C587 180 593 187 593 206 L593 240 C593 259 587 266 567 266 L567 266 Z M395 584 L395 266 L137 266 L395 584 Z " />
<glyph glyph-name="five" unicode="5" horiz-adv-x="590" d="M497 710 L140 710 C110 710 99 701 96 671 L66 379 C64 357 71 347 94 347 L309 347 C397 347 449 293 449 216 C449 131 392 75 304 75 C207 75 156 111 131 178 C124 197 116 201 98 194 L55 179 C37 172 33 164 40 145 C77 42 158 -15 305 -15 C461 -15 550 91 550 216 C550 337 475 437 314 437 L169 437 L187 620 L497 620 C516 620 523 627 523 646 L523 684 C523 703 516 710 497 710 L497 710 Z " />
<glyph glyph-name="six" unicode="6" horiz-adv-x="627" d="M151 404 L151 469 C151 578 209 635 318 635 C404 635 454 600 480 537 C487 518 495 514 513 521 L554 536 C572 543 578 551 570 569 C532 669 452 725 318 725 C146 725 54 631 54 468 L54 242 C54 83 145 -15 318 -15 C482 -15 581 70 581 208 C581 355 500 430 327 430 C237 430 176 412 151 404 L151 404 Z M151 241 L151 310 C166 318 225 340 321 340 C437 340 484 296 484 208 C484 122 425 75 318 75 C208 75 151 135 151 241 L151 241 Z " />
<glyph glyph-name="seven" unicode="7" horiz-adv-x="528" d="M488 710 L51 710 C32 710 25 703 25 684 L25 646 C25 627 32 620 51 620 L403 620 L136 26 C129 10 130 0 149 0 L192 0 C224 0 231 3 240 23 L506 620 C513 635 514 642 514 657 L514 684 C514 703 507 710 488 710 L488 710 Z " />
<glyph glyph-name="eight" unicode="8" horiz-adv-x="621" d="M67 532 C67 437 121 390 189 357 C138 336 45 286 45 173 C45 59 119 -15 310 -15 C501 -15 576 68 576 187 C576 292 510 338 431 369 C478 390 554 436 554 539 C554 659 470 725 310 725 C159 725 67 655 67 532 L67 532 Z M460 531 C460 437 374 409 343 398 L311 406 C231 427 164 450 164 531 C164 603 217 641 310 641 C406 641 460 603 460 531 L460 531 Z M475 185 C475 114 433 69 310 69 C188 69 143 112 143 182 C143 285 244 315 275 324 C382 297 475 283 475 185 L475 185 Z " />
<glyph glyph-name="nine" unicode="9" horiz-adv-x="627" d="M476 306 L476 241 C476 132 418 75 309 75 C223 75 173 110 147 173 C139 192 132 196 114 189 L73 174 C55 167 49 159 56 141 C95 41 174 -15 309 -15 C481 -15 572 79 572 242 L572 468 C572 627 482 725 309 725 C145 725 46 640 46 502 C46 355 127 280 300 280 C390 280 451 298 476 306 L476 306 Z M476 469 L476 400 C461 392 402 370 306 370 C190 370 142 414 142 502 C142 588 202 635 309 635 C418 635 476 575 476 469 L476 469 Z " />
<glyph glyph-name="colon" unicode="&#x3a;" horiz-adv-x="227" d="M117 491 L110 491 C72 491 60 479 60 440 L60 432 C60 394 72 382 110 382 L117 382 C155 382 167 394 167 432 L167 440 C167 479 155 491 117 491 L117 491 Z M117 103 L110 103 C72 103 60 90 60 52 L60 44 C60 5 72 -6 110 -6 L117 -6 C155 -6 167 6 167 44 L167 52 C167 90 155 103 117 103 L117 103 Z " />
<glyph glyph-name="semicolon" unicode="&#x3b;" horiz-adv-x="248" d="M136 491 L130 491 C91 491 79 479 79 440 L79 432 C79 394 91 382 130 382 L136 382 C175 382 187 394 187 432 L187 440 C187 479 175 491 136 491 L136 491 Z M113 -98 L171 71 C178 90 171 100 147 100 L112 100 C90 100 83 94 80 71 L50 -103 C48 -118 51 -122 66 -122 L83 -122 C101 -122 107 -115 113 -98 L113 -98 Z " />
<glyph glyph-name="less" unicode="&#x3c;" horiz-adv-x="490" d="M404 562 L54 372 C38 363 32 357 32 339 L32 313 C32 295 38 289 54 281 L404 90 C425 79 432 87 432 110 L432 147 C432 176 427 181 407 191 L145 325 L145 329 L408 465 C427 475 432 480 432 508 L432 542 C432 565 425 573 404 562 L404 562 Z " />
<glyph glyph-name="equal" unicode="&#x3d;" horiz-adv-x="593" d="M506 469 L87 469 C67 469 61 462 61 443 L61 408 C61 388 67 382 87 382 L506 382 C526 382 533 388 533 408 L533 443 C533 462 526 469 506 469 L506 469 Z M506 271 L87 271 C67 271 61 265 61 245 L61 211 C61 191 67 185 87 185 L506 185 C526 185 533 191 533 211 L533 245 C533 265 526 271 506 271 L506 271 Z " />
<glyph glyph-name="greater" unicode="&#x3e;" horiz-adv-x="490" d="M58 543 L58 505 C58 476 63 472 83 462 L345 327 L345 323 L82 187 C63 178 58 173 58 144 L58 111 C58 87 65 80 86 91 L436 281 C453 289 458 296 458 314 L458 339 C458 357 453 363 436 372 L86 562 C65 574 58 566 58 543 L58 543 Z " />
<glyph glyph-name="question" unicode="&#x3f;" horiz-adv-x="563" d="M32 574 C24 556 29 548 48 541 L85 528 C103 521 110 525 118 544 C146 611 192 654 286 654 C384 654 435 600 435 529 C435 436 376 404 320 367 C267 332 216 292 216 194 C216 174 223 169 241 169 L272 169 C290 169 297 174 297 194 C297 250 333 279 374 305 C439 346 530 388 530 533 C530 647 442 739 288 739 C146 739 69 671 32 574 L32 574 Z M260 103 L254 103 C215 103 203 90 203 52 L203 44 C203 5 215 -6 254 -6 L260 -6 C299 -6 311 6 311 44 L311 52 C311 90 299 103 260 103 L260 103 Z " />
<glyph glyph-name="at" unicode="&#x40;" horiz-adv-x="901" d="M46 329 L46 256 C46 12 190 -132 448 -132 C563 -132 644 -111 664 -106 C674 -103 678 -99 678 -86 L678 -51 C678 -42 675 -40 664 -43 C638 -48 539 -69 448 -69 C235 -69 117 46 117 254 L117 330 C117 536 235 661 448 661 C667 661 781 532 781 330 L781 254 C781 148 731 109 681 109 C658 109 636 119 636 150 L636 455 C636 483 629 492 602 503 C569 516 505 533 421 533 C302 533 247 470 247 366 L247 217 C247 113 302 51 421 51 C504 51 566 70 602 83 C620 57 635 43 680 43 C772 43 852 116 852 256 L852 329 C852 566 712 725 448 725 C190 725 46 570 46 329 L46 329 Z M547 447 C557 443 560 439 560 429 L560 144 C543 137 496 120 431 120 C355 120 323 154 323 219 L323 364 C323 429 355 463 431 463 C479 463 523 456 547 447 L547 447 Z " />
<glyph glyph-name="A" unicode="A" horiz-adv-x="649" d="M637 26 L377 691 C371 708 363 712 344 712 L304 712 C285 712 277 708 271 690 L11 26 C5 9 9 0 29 0 L64 0 C96 0 105 5 112 23 L174 186 L470 186 L532 23 C538 5 547 0 580 0 L619 0 C639 0 643 9 637 26 L637 26 Z M343 528 L443 265 L201 265 L302 529 C318 575 318 620 319 622 L325 622 C325 620 327 575 343 528 L343 528 Z " />
<glyph glyph-name="B" unicode="B" horiz-adv-x="647" d="M380 710 L100 710 C81 710 74 703 74 684 L74 26 C74 7 81 0 100 0 L389 0 C517 0 605 68 605 193 C605 286 564 346 493 367 L493 370 C551 398 579 449 579 526 C579 645 505 710 380 710 L380 710 Z M480 512 C480 440 441 405 369 405 L171 405 L171 620 L369 620 C441 620 480 584 480 512 L480 512 Z M502 203 C502 128 461 90 386 90 L171 90 L171 317 L386 317 C461 317 502 277 502 203 L502 203 Z " />
<glyph glyph-name="C" unicode="C" horiz-adv-x="638" d="M53 469 L53 241 C53 83 153 -15 333 -15 C485 -15 567 47 603 157 C610 176 605 185 586 191 L545 206 C526 213 518 209 511 189 C486 114 435 75 333 75 C215 75 150 136 150 240 L150 470 C150 575 214 635 333 635 C433 635 485 598 510 523 C517 504 525 501 544 507 L585 521 C604 528 608 536 602 555 C566 665 483 725 333 725 C152 725 53 627 53 469 L53 469 Z " />
<glyph glyph-name="D" unicode="D" horiz-adv-x="659" d="M318 710 L100 710 C81 710 74 703 74 684 L74 26 C74 7 81 0 100 0 L318 0 C504 0 608 101 608 264 L608 446 C608 609 504 710 318 710 L318 710 Z M511 447 L511 263 C511 153 442 90 318 90 L171 90 L171 620 L318 620 C443 620 511 557 511 447 L511 447 Z " />
<glyph glyph-name="E" unicode="E" horiz-adv-x="576" d="M502 710 L100 710 C81 710 74 703 74 684 L74 26 C74 7 81 0 100 0 L514 0 C534 0 540 7 540 26 L540 64 C540 83 534 90 514 90 L171 90 L171 315 L456 315 C476 315 482 321 482 341 L482 378 C482 398 476 405 456 405 L171 405 L171 620 L502 620 C522 620 528 627 528 646 L528 684 C528 703 522 710 502 710 L502 710 Z " />
<glyph glyph-name="F" unicode="F" horiz-adv-x="559" d="M502 710 L100 710 C81 710 74 703 74 684 L74 26 C74 7 81 0 100 0 L144 0 C164 0 171 7 171 26 L171 305 L453 305 C473 305 479 311 479 331 L479 369 C479 388 473 395 453 395 L171 395 L171 620 L502 620 C522 620 528 627 528 646 L528 684 C528 703 522 710 502 710 L502 710 Z " />
<glyph glyph-name="G" unicode="G" horiz-adv-x="658" d="M586 378 L344 378 C324 378 318 371 318 352 L318 314 C318 294 324 288 344 288 L517 288 L517 223 C517 136 451 75 333 75 C215 75 150 136 150 241 L150 470 C150 575 213 635 333 635 C433 635 485 598 510 523 C517 504 525 500 544 507 L585 521 C604 528 608 536 602 555 C566 665 483 725 333 725 C152 725 53 627 53 469 L53 241 C53 83 152 -15 333 -15 C514 -15 613 83 613 223 L613 351 C613 371 606 378 586 378 L586 378 Z " />
<glyph glyph-name="H" unicode="H" horiz-adv-x="683" d="M583 710 L539 710 C519 710 513 703 513 684 L513 405 L171 405 L171 684 C171 703 164 710 144 710 L100 710 C81 710 74 703 74 684 L74 26 C74 7 81 0 100 0 L144 0 C164 0 171 7 171 26 L171 315 L513 315 L513 26 C513 7 519 0 539 0 L583 0 C603 0 609 7 609 26 L609 684 C609 703 603 710 583 710 L583 710 Z " />
<glyph glyph-name="I" unicode="I" horiz-adv-x="245" d="M74 684 L74 26 C74 7 81 0 100 0 L144 0 C164 0 171 7 171 26 L171 684 C171 703 164 710 144 710 L100 710 C81 710 74 703 74 684 L74 684 Z " />
<glyph glyph-name="J" unicode="J" horiz-adv-x="574" d="M479 710 L434 710 C414 710 408 703 408 684 L408 227 C408 130 356 75 257 75 C171 75 130 118 110 195 C103 214 95 218 76 212 L34 197 C16 190 12 182 18 163 C49 51 123 -15 257 -15 C419 -15 504 78 504 228 L504 684 C504 703 498 710 479 710 L479 710 Z " />
<glyph glyph-name="K" unicode="K" horiz-adv-x="617" d="M598 27 L471 272 C442 330 408 367 356 385 L587 685 C597 697 592 710 574 710 L525 710 C494 710 487 707 472 688 L259 404 L241 404 L171 404 L171 684 C171 703 164 710 144 710 L100 710 C81 710 74 703 74 684 L74 26 C74 7 81 0 100 0 L144 0 C164 0 171 7 171 26 L171 316 L249 316 C324 316 352 296 382 237 L488 23 C497 4 508 0 540 0 L584 0 C604 0 606 12 598 27 L598 27 Z " />
<glyph glyph-name="L" unicode="L" horiz-adv-x="525" d="M144 710 L100 710 C81 710 74 703 74 684 L74 26 C74 7 81 0 100 0 L485 0 C505 0 512 7 512 26 L512 64 C512 83 505 90 485 90 L171 90 L171 684 C171 703 164 710 144 710 L144 710 Z " />
<glyph glyph-name="M" unicode="M" horiz-adv-x="805" d="M705 710 L667 710 C646 710 640 706 631 689 L402 281 L172 690 C163 706 157 710 135 710 L100 710 C81 710 74 703 74 684 L74 26 C74 7 81 0 100 0 L138 0 C158 0 164 7 164 26 L164 387 C164 446 160 504 148 575 L154 575 C178 505 198 462 229 409 L358 181 C367 166 373 162 389 162 L414 162 C430 162 437 167 445 181 L572 407 C602 460 627 508 652 575 L657 575 C645 505 639 443 639 387 L639 26 C639 7 645 0 665 0 L705 0 C724 0 731 7 731 26 L731 684 C731 703 724 710 705 710 L705 710 Z " />
<glyph glyph-name="N" unicode="N" horiz-adv-x="693" d="M593 710 L552 710 C532 710 526 703 526 684 L526 322 C526 233 542 151 542 129 L537 129 C525 146 497 221 451 289 L170 697 C165 705 158 710 144 710 L100 710 C81 710 74 703 74 684 L74 26 C74 7 81 0 100 0 L141 0 C161 0 168 7 168 26 L168 396 C168 479 151 563 151 582 L156 582 C166 568 196 490 237 428 L522 13 C529 3 536 0 549 0 L593 0 C612 0 619 7 619 26 L619 684 C619 703 612 710 593 710 L593 710 Z " />
<glyph glyph-name="O" unicode="O" horiz-adv-x="666" d="M53 469 L53 241 C53 83 152 -15 333 -15 C514 -15 613 83 613 241 L613 469 C613 627 514 725 333 725 C152 725 53 627 53 469 L53 469 Z M516 469 L516 241 C516 135 451 75 333 75 C215 75 150 135 150 241 L150 469 C150 575 215 635 333 635 C451 635 516 575 516 469 L516 469 Z " />
<glyph glyph-name="P" unicode="P" horiz-adv-x="627" d="M367 710 L100 710 C81 710 74 703 74 684 L74 26 C74 7 81 0 100 0 L144 0 C164 0 171 7 171 26 L171 258 L367 258 C509 258 597 342 597 483 C597 625 508 710 367 710 L367 710 Z M358 348 L171 348 L171 620 L358 620 C444 620 496 569 496 483 C496 397 444 348 358 348 L358 348 Z " />
<glyph glyph-name="Q" unicode="Q" horiz-adv-x="679" d="M623 -3 L558 73 C594 115 613 173 613 241 L613 469 C613 627 514 725 333 725 C152 725 53 627 53 469 L53 241 C53 83 152 -15 333 -15 C394 -15 446 -3 485 19 L554 -62 C566 -77 576 -77 591 -65 L620 -41 C635 -28 635 -18 623 -3 L623 -3 Z M150 241 L150 469 C150 575 215 635 333 635 C451 635 516 575 516 469 L516 241 C516 135 451 75 333 75 C215 75 150 135 150 241 L150 241 Z " />
<glyph glyph-name="R" unicode="R" horiz-adv-x="647" d="M381 710 L100 710 C81 710 74 703 74 684 L74 26 C74 7 81 0 100 0 L144 0 C164 0 171 7 171 26 L171 285 L278 285 C352 285 381 265 410 206 L501 23 C510 4 520 0 553 0 L597 0 C617 0 619 12 611 27 L500 242 C486 267 472 286 450 298 C542 319 597 389 597 497 C597 632 515 710 381 710 L381 710 Z M496 497 C496 419 451 375 372 375 L171 375 L171 620 L372 620 C451 620 496 576 496 497 L496 497 Z " />
<glyph glyph-name="S" unicode="S" horiz-adv-x="629" d="M48 513 C48 345 193 325 316 312 C409 301 493 286 493 200 C493 115 431 76 313 76 C223 76 164 115 132 189 C124 208 116 211 98 205 L57 190 C38 183 33 175 40 156 C84 43 163 -15 313 -15 C493 -15 590 70 590 202 C590 364 458 390 339 404 C239 415 147 430 147 519 C147 593 205 632 314 632 C405 632 452 597 486 531 C495 513 502 510 520 518 L562 537 C580 545 585 554 576 572 C527 674 453 725 314 725 C141 725 48 638 48 513 L48 513 Z " />
<glyph glyph-name="T" unicode="T" horiz-adv-x="554" d="M514 710 L40 710 C20 710 14 703 14 684 L14 646 C14 627 20 620 40 620 L229 620 L229 26 C229 7 235 0 255 0 L299 0 C319 0 325 7 325 26 L325 620 L514 620 C533 620 540 627 540 646 L540 684 C540 703 533 710 514 710 L514 710 Z " />
<glyph glyph-name="U" unicode="U" horiz-adv-x="685" d="M165 242 L165 684 C165 703 159 710 139 710 L95 710 C75 710 69 703 69 684 L69 243 C69 86 161 -15 342 -15 C524 -15 616 86 616 243 L616 684 C616 703 609 710 590 710 L546 710 C526 710 519 703 519 684 L519 242 C519 139 461 75 342 75 C223 75 165 139 165 242 L165 242 Z " />
<glyph glyph-name="V" unicode="V" horiz-adv-x="630" d="M601 710 L564 710 C531 710 522 705 516 687 L344 206 C330 167 322 121 319 115 L315 115 C312 121 303 168 290 207 L116 687 C110 705 101 710 69 710 L30 710 C11 710 6 701 12 684 L262 21 C268 4 277 0 295 0 L336 0 C354 0 362 4 368 22 L618 684 C625 701 620 710 601 710 L601 710 Z " />
<glyph glyph-name="W" unicode="W" horiz-adv-x="890" d="M850 710 L804 710 C782 710 773 706 769 687 L666 252 C658 217 650 152 648 134 L643 134 C641 155 632 215 622 253 L505 679 C500 698 490 702 470 702 L428 702 C409 702 399 698 393 679 L275 253 C265 218 257 156 254 134 L249 134 C247 154 239 221 232 254 L128 687 C124 706 115 710 93 710 L40 710 C21 710 18 702 23 684 L195 21 C199 3 210 0 228 0 L270 0 C288 0 298 3 303 22 L424 466 C433 498 440 535 443 570 L449 570 C452 535 459 496 467 466 L587 21 C591 4 602 0 620 0 L662 0 C681 0 691 3 695 22 L868 684 C872 702 869 710 850 710 L850 710 Z " />
<glyph glyph-name="X" unicode="X" horiz-adv-x="627" d="M609 27 L374 362 L601 685 C610 697 606 710 588 710 L534 710 C506 710 500 707 486 688 L314 438 L142 688 C128 707 122 710 91 710 L39 710 C21 710 16 697 26 685 L252 361 L18 27 C8 13 11 0 31 0 L81 0 C112 0 118 2 132 23 L309 287 L491 23 C505 2 512 0 542 0 L596 0 C616 0 620 14 609 27 L609 27 Z " />
<glyph glyph-name="Y" unicode="Y" horiz-adv-x="634" d="M605 710 L555 710 C524 710 516 709 504 687 L318 384 L134 687 C122 709 113 710 83 710 L29 710 C10 710 7 698 15 684 L269 286 L269 26 C269 7 275 0 295 0 L339 0 C359 0 365 7 365 26 L365 284 L619 684 C627 698 625 710 605 710 L605 710 Z " />
<glyph glyph-name="Z" unicode="Z" horiz-adv-x="576" d="M510 710 L64 710 C45 710 38 703 38 684 L38 646 C38 627 45 620 64 620 L415 620 L43 92 C36 83 33 75 33 63 L33 26 C33 7 40 0 60 0 L518 0 C538 0 544 7 544 26 L544 64 C544 84 538 90 518 90 L154 90 L527 619 C534 627 536 635 536 647 L536 684 C536 703 529 710 510 710 L510 710 Z " />
<glyph glyph-name="bracketleft" unicode="&#x5b;" horiz-adv-x="286" d="M244 856 L89 856 C69 856 65 852 65 832 L65 -122 C65 -142 69 -146 89 -146 L244 -146 C264 -146 267 -143 267 -123 L267 -88 C267 -69 264 -65 244 -65 L150 -65 L150 776 L244 776 C264 776 267 779 267 799 L267 833 C267 853 264 856 244 856 L244 856 Z " />
<glyph glyph-name="backslash" unicode="&#x5c;" horiz-adv-x="422" d="M30 688 L300 -38 C307 -55 314 -60 332 -60 L376 -60 C394 -60 398 -53 392 -38 L122 688 C115 705 108 710 90 710 L46 710 C28 710 25 703 30 688 L30 688 Z " />
<glyph glyph-name="bracketright" unicode="&#x5d;" horiz-adv-x="286" d="M197 856 L42 856 C22 856 19 853 19 833 L19 799 C19 779 22 776 42 776 L136 776 L136 -65 L42 -65 C22 -65 19 -69 19 -88 L19 -123 C19 -143 22 -146 42 -146 L197 -146 C217 -146 221 -142 221 -122 L221 832 C221 852 217 856 197 856 L197 856 Z " />
<glyph glyph-name="asciicircum" unicode="&#x5e;" horiz-adv-x="590" d="M307 810 L282 810 C266 810 260 803 248 789 L52 548 C37 530 42 520 65 520 L101 520 C129 520 133 522 149 541 L291 720 L295 720 L438 541 C453 523 456 520 485 520 L525 520 C548 520 553 530 538 548 L339 789 C328 803 324 810 307 810 L307 810 Z " />
<glyph glyph-name="underscore" unicode="&#x5f;" horiz-adv-x="501" d="M450 0 L51 0 C31 0 25 -7 25 -26 L25 -60 C25 -80 31 -86 51 -86 L450 -86 C470 -86 477 -80 477 -60 L477 -26 C477 -7 470 0 450 0 L450 0 Z " />
<glyph glyph-name="grave" unicode="&#x60;" horiz-adv-x="257" d="M42 726 L23 702 C11 688 10 681 26 674 L201 591 C216 585 225 583 232 592 L243 607 C254 620 254 626 242 633 L87 727 C71 736 55 741 42 726 L42 726 Z " />
<glyph glyph-name="a" unicode="a" horiz-adv-x="516" d="M52 426 C43 408 48 399 65 392 L96 378 C114 371 118 374 129 390 C153 430 193 451 253 451 C347 451 372 403 372 332 L372 294 C355 296 307 301 258 301 C99 301 35 261 35 144 C35 42 78 -15 254 -15 C332 -15 389 -5 426 11 C454 23 462 33 462 68 L462 329 C462 442 417 531 255 531 C153 531 86 492 52 426 L52 426 Z M372 220 L372 94 C372 80 369 77 357 72 C334 64 300 60 246 60 C146 60 125 92 125 144 C125 201 154 228 248 228 C297 228 352 222 372 220 L372 220 Z " />
<glyph glyph-name="b" unicode="b" horiz-adv-x="539" d="M126 740 L84 740 C67 740 61 734 61 716 L61 71 C61 39 66 31 98 16 C134 1 195 -15 273 -15 C422 -15 493 59 493 193 L493 333 C493 457 430 531 291 531 C229 531 178 515 150 506 L150 716 C150 734 144 740 126 740 L126 740 Z M403 330 L403 196 C403 110 360 67 267 67 C225 67 189 74 164 83 C151 88 150 92 150 102 L150 423 C174 432 222 449 278 449 C362 449 403 406 403 330 L403 330 Z " />
<glyph glyph-name="c" unicode="c" horiz-adv-x="516" d="M45 330 L45 187 C45 62 115 -15 263 -15 C382 -15 450 34 482 123 C489 142 483 150 465 157 L430 167 C411 173 404 170 396 151 C378 95 337 64 265 64 C179 64 135 109 135 183 L135 334 C135 408 178 452 265 452 C339 452 377 423 395 368 C402 350 411 344 429 352 L464 363 C481 369 487 378 480 397 C455 476 390 531 269 531 C117 531 45 454 45 330 L45 330 Z " />
<glyph glyph-name="d" unicode="d" horiz-adv-x="539" d="M46 327 L46 186 C46 58 113 -15 260 -15 C345 -15 400 1 439 16 C471 29 478 38 478 71 L478 716 C478 734 472 740 455 740 L413 740 C395 740 389 734 389 716 L389 509 C363 516 311 531 249 531 C113 531 46 457 46 327 L46 327 Z M389 427 L389 102 C389 91 388 88 375 83 C349 74 312 67 268 67 C180 67 136 109 136 189 L136 324 C136 406 176 449 266 449 C322 449 366 434 389 427 L389 427 Z " />
<glyph glyph-name="e" unicode="e" horiz-adv-x="534" d="M44 317 L44 193 C44 71 110 -15 266 -15 C381 -15 446 27 481 88 C492 105 490 118 472 127 L445 141 C427 151 418 149 406 132 C381 90 338 63 267 63 C179 63 133 107 133 183 L133 231 L459 231 C487 231 496 245 496 266 L496 324 C496 442 424 531 270 531 C122 531 44 452 44 317 L44 317 Z M407 329 L407 300 L133 300 L133 329 C133 407 180 455 270 455 C361 455 407 407 407 329 L407 329 Z " />
<glyph glyph-name="f" unicode="f" horiz-adv-x="361" d="M328 740 L319 740 C172 738 109 675 109 534 L109 516 L33 516 C16 516 10 510 10 492 L10 457 C10 439 16 433 33 433 L109 433 L109 24 C109 6 115 0 134 0 L174 0 C193 0 199 6 199 24 L199 433 L330 433 C347 433 353 439 353 457 L353 492 C353 510 347 516 330 516 L199 516 L199 534 C199 627 231 657 328 657 C346 657 352 663 352 681 L352 716 C352 734 346 740 328 740 L328 740 Z " />
<glyph glyph-name="g" unicode="g" horiz-adv-x="538" d="M46 324 L46 201 C46 77 108 3 248 3 C309 3 360 19 388 28 L388 -29 C388 -113 348 -161 261 -161 C195 -161 162 -135 138 -94 C127 -78 118 -75 99 -85 L70 -101 C52 -110 49 -122 61 -139 C95 -201 155 -241 263 -241 C417 -241 478 -155 478 -25 L478 445 C478 478 472 486 440 500 C405 516 343 531 266 531 C116 531 46 458 46 324 L46 324 Z M374 434 C387 428 388 426 388 414 L388 107 C364 100 319 85 260 85 C177 85 135 127 135 203 L135 321 C135 407 178 449 272 449 C314 449 349 442 374 434 L374 434 Z " />
<glyph glyph-name="h" unicode="h" horiz-adv-x="553" d="M129 740 L87 740 C69 740 63 734 63 716 L63 24 C63 6 69 0 87 0 L129 0 C146 0 152 6 152 24 L152 426 C174 437 224 449 280 449 C364 449 406 407 406 330 L406 24 C406 6 412 0 430 0 L471 0 C489 0 495 6 495 24 L495 333 C495 458 432 531 292 531 C227 531 173 519 152 509 L152 716 C152 734 146 740 129 740 L129 740 Z " />
<glyph glyph-name="i" unicode="i" horiz-adv-x="214" d="M110 705 L104 705 C68 705 56 693 56 657 L56 649 C56 612 68 601 104 601 L110 601 C147 601 158 613 158 649 L158 657 C158 693 147 705 110 705 L110 705 Z M128 516 L86 516 C68 516 62 510 62 492 L62 24 C62 6 68 0 86 0 L128 0 C146 0 152 6 152 24 L152 492 C152 510 146 516 128 516 L128 516 Z " />
<glyph glyph-name="j" unicode="j" horiz-adv-x="215" d="M111 705 L104 705 C68 705 57 693 57 657 L57 649 C57 612 68 601 104 601 L111 601 C147 601 159 613 159 649 L159 657 C159 693 147 705 111 705 L111 705 Z M128 516 L87 516 C69 516 63 510 63 492 L63 -6 C63 -94 33 -147 -65 -147 C-83 -147 -89 -153 -89 -171 L-89 -206 C-89 -224 -83 -230 -65 -230 C90 -230 152 -149 152 -8 L152 492 C152 510 146 516 128 516 L128 516 Z " />
<glyph glyph-name="k" unicode="k" horiz-adv-x="514" d="M490 28 L402 206 C381 248 357 275 322 288 L482 488 C496 506 491 516 467 516 L429 516 C402 516 395 516 382 498 L233 305 L225 305 L152 305 L152 716 C152 734 146 740 127 740 L88 740 C69 740 63 734 63 716 L63 25 C63 6 69 0 88 0 L127 0 C146 0 152 6 152 25 L152 222 L236 222 C283 222 307 206 326 167 L395 22 C404 3 409 0 436 0 L475 0 C498 0 501 8 490 28 L490 28 Z " />
<glyph glyph-name="l" unicode="l" horiz-adv-x="221" d="M155 24 L155 716 C155 734 149 740 131 740 L90 740 C72 740 66 734 66 716 L66 24 C66 6 72 0 90 0 L131 0 C149 0 155 6 155 24 L155 24 Z " />
<glyph glyph-name="m" unicode="m" horiz-adv-x="822" d="M396 493 C366 518 324 531 268 531 C188 531 136 514 99 498 C68 485 61 472 61 441 L61 24 C61 6 67 0 84 0 L126 0 C144 0 150 6 150 24 L150 412 C150 421 151 427 162 433 C190 443 218 449 256 449 C332 449 370 411 370 334 L370 24 C370 6 376 0 394 0 L436 0 C453 0 459 6 459 24 L459 337 C459 370 455 399 444 422 C465 431 507 449 562 449 C638 449 674 411 674 334 L674 24 C674 6 680 0 698 0 L740 0 C757 0 763 6 763 24 L763 337 C763 461 705 531 574 531 C483 531 423 504 396 493 L396 493 Z " />
<glyph glyph-name="n" unicode="n" horiz-adv-x="551" d="M99 497 C68 484 61 472 61 441 L61 24 C61 6 67 0 84 0 L126 0 C144 0 150 6 150 24 L150 413 C150 421 152 427 162 431 C190 440 229 449 278 449 C364 449 403 409 403 330 L403 24 C403 6 409 0 427 0 L469 0 C487 0 493 6 493 24 L493 333 C493 457 430 531 290 531 C197 531 138 513 99 497 L99 497 Z " />
<glyph glyph-name="o" unicode="o" horiz-adv-x="541" d="M46 339 L46 176 C46 58 129 -15 270 -15 C414 -15 495 58 495 176 L495 339 C495 458 414 531 270 531 C129 531 46 458 46 339 L46 339 Z M406 340 L406 176 C406 107 355 66 270 66 C186 66 135 107 135 176 L135 340 C135 409 186 450 270 450 C355 450 406 409 406 340 L406 340 Z " />
<glyph glyph-name="p" unicode="p" horiz-adv-x="539" d="M100 502 C68 489 61 478 61 445 L61 -196 C61 -214 67 -220 84 -220 L126 -220 C144 -220 150 -214 150 -196 L150 12 C176 3 223 -15 280 -15 C425 -15 493 59 493 189 L493 330 C493 458 427 531 284 531 C197 531 139 517 100 502 L100 502 Z M403 327 L403 192 C403 109 363 67 273 67 C220 67 173 85 150 93 L150 413 C150 425 152 428 165 434 C192 442 227 449 271 449 C359 449 403 407 403 327 L403 327 Z " />
<glyph glyph-name="q" unicode="q" horiz-adv-x="539" d="M266 531 C117 531 46 458 46 324 L46 183 C46 59 109 -15 248 -15 C310 -15 361 3 389 13 L389 -196 C389 -214 395 -220 413 -220 L455 -220 C472 -220 478 -214 478 -196 L478 445 C478 478 473 486 441 500 C405 516 344 531 266 531 L266 531 Z M136 186 L136 321 C136 407 179 449 273 449 C315 449 347 442 373 434 C387 428 389 425 389 413 L389 93 C364 85 317 67 261 67 C177 67 136 109 136 186 L136 186 Z " />
<glyph glyph-name="r" unicode="r" horiz-adv-x="346" d="M282 531 C194 529 136 514 99 500 C68 487 61 475 61 444 L61 24 C61 6 67 0 84 0 L126 0 C144 0 150 6 150 24 L150 412 C150 421 151 427 164 432 C193 441 230 449 279 449 L314 449 C332 449 338 455 338 473 L338 507 C338 525 332 531 314 531 L282 531 Z " />
<glyph glyph-name="s" unicode="s" horiz-adv-x="500" d="M42 376 C42 247 145 230 245 220 C329 212 378 201 378 141 C378 92 338 65 253 65 C183 65 138 85 118 137 C110 155 102 157 86 152 L52 140 C34 134 30 124 37 108 C68 26 142 -15 256 -15 C396 -15 465 50 465 145 C465 263 381 288 267 299 C184 306 131 314 131 378 C131 426 168 450 245 450 C322 450 354 424 373 385 C383 369 388 366 406 374 L440 388 C456 395 461 405 452 423 C422 488 359 531 243 531 C110 531 42 469 42 376 L42 376 Z " />
<glyph glyph-name="t" unicode="t" horiz-adv-x="372" d="M179 636 L137 636 C119 636 114 630 114 612 L114 516 L31 516 C13 516 7 510 7 492 L7 457 C7 439 13 433 31 433 L114 433 L114 198 C114 31 173 -18 332 -14 C351 -13 357 -8 357 10 L357 46 C357 65 351 70 332 70 C235 70 203 91 203 200 L203 433 L334 433 C351 433 357 439 357 457 L357 492 C357 510 351 516 334 516 L203 516 L203 612 C203 630 197 636 179 636 L179 636 Z " />
<glyph glyph-name="u" unicode="u" horiz-adv-x="551" d="M466 516 L425 516 C407 516 401 510 401 492 L401 107 C401 97 399 90 386 84 C357 75 322 67 273 67 C187 67 147 107 147 186 L147 492 C147 510 141 516 124 516 L82 516 C64 516 58 510 58 492 L58 183 C58 59 121 -15 261 -15 C354 -15 412 4 452 19 C483 32 490 44 490 75 L490 492 C490 510 484 516 466 516 L466 516 Z " />
<glyph glyph-name="v" unicode="v" horiz-adv-x="509" d="M474 516 L442 516 C414 516 407 511 400 492 L284 202 C269 161 260 115 257 107 L253 107 C249 115 240 162 225 203 L108 492 C101 511 94 516 66 516 L36 516 C12 516 7 510 16 488 L209 20 C216 3 224 -2 242 -2 L267 -2 C285 -2 293 3 300 20 L493 489 C502 511 496 516 474 516 L474 516 Z " />
<glyph glyph-name="w" unicode="w" horiz-adv-x="733" d="M690 516 L664 516 C635 516 626 512 621 492 L546 223 C534 173 530 120 527 109 L522 109 C519 120 512 178 499 224 L416 485 C410 504 405 509 377 509 L359 509 C330 509 325 504 319 484 L237 222 C225 180 218 120 214 109 L210 109 C207 120 200 181 190 221 L115 492 C111 512 101 516 73 516 L43 516 C19 516 16 510 23 488 L163 19 C168 2 178 -2 196 -2 L222 -2 C240 -2 250 2 255 19 L344 314 C355 355 361 399 363 407 L367 407 C370 399 375 355 386 314 L475 19 C481 3 490 -2 509 -2 L536 -2 C554 -2 564 3 568 19 L710 488 C716 510 713 516 690 516 L690 516 Z " />
<glyph glyph-name="x" unicode="x" horiz-adv-x="497" d="M449 516 L411 516 C386 516 381 513 370 496 L249 330 L128 496 C116 513 110 516 84 516 L48 516 C20 516 18 505 29 488 L194 265 L22 28 C9 9 11 0 39 0 L76 0 C101 0 108 2 119 20 L247 201 L378 20 C390 3 395 0 421 0 L459 0 C485 0 489 9 476 28 L304 265 L466 488 C478 507 474 516 449 516 L449 516 Z " />
<glyph glyph-name="y" unicode="y" horiz-adv-x="553" d="M466 516 L425 516 C407 516 401 510 401 492 L401 107 C372 98 329 86 273 86 C187 86 147 126 147 205 L147 492 C147 510 141 516 124 516 L82 516 C64 516 58 510 58 492 L58 202 C58 77 121 4 261 4 C324 4 368 16 401 25 L401 -29 C401 -113 360 -161 273 -161 C207 -161 173 -135 149 -94 C137 -78 129 -75 110 -85 L81 -101 C63 -110 60 -122 71 -139 C106 -201 167 -241 274 -241 C429 -241 490 -155 490 -25 L490 492 C490 510 484 516 466 516 L466 516 Z " />
<glyph glyph-name="z" unicode="z" horiz-adv-x="463" d="M409 81 L144 81 L419 432 C425 442 428 447 428 459 L428 492 C428 510 422 516 404 516 L58 516 C41 516 35 510 35 492 L35 459 C35 441 41 435 58 435 L312 435 L39 82 C32 73 30 69 30 57 L30 24 C30 6 36 0 54 0 L409 0 C426 0 432 6 432 24 L432 57 C432 75 426 81 409 81 L409 81 Z " />
<glyph glyph-name="braceleft" unicode="&#x7b;" horiz-adv-x="333" d="M292 856 L244 856 C146 856 111 815 111 725 L111 489 C111 436 94 398 36 398 L27 398 C12 398 8 391 8 375 L8 331 C8 314 13 307 28 307 L36 307 C94 307 111 270 111 217 L111 -17 C111 -106 145 -147 245 -147 L292 -147 C310 -147 316 -141 316 -123 L316 -89 C316 -72 310 -66 292 -66 L247 -66 C211 -66 196 -46 196 -12 L196 229 C196 292 177 334 127 353 C169 374 196 414 196 477 L196 721 C196 755 211 775 247 775 L292 775 C310 775 316 781 316 798 L316 832 C316 850 310 856 292 856 L292 856 Z " />
<glyph glyph-name="bar" unicode="&#x7c;" horiz-adv-x="215" d="M127 856 L89 856 C71 856 65 850 65 832 L65 -123 C65 -141 71 -147 89 -147 L127 -147 C144 -147 150 -141 150 -123 L150 832 C150 850 144 856 127 856 L127 856 Z " />
<glyph glyph-name="braceright" unicode="&#x7d;" horiz-adv-x="333" d="M89 856 L40 856 C23 856 17 850 17 832 L17 798 C17 781 23 775 40 775 L86 775 C122 775 137 755 137 721 L137 477 C137 414 164 374 206 353 C156 334 137 292 137 229 L137 -12 C137 -46 122 -66 86 -66 L40 -66 C23 -66 17 -72 17 -89 L17 -123 C17 -141 23 -147 40 -147 L88 -147 C188 -147 222 -106 222 -17 L222 217 C222 270 239 307 297 307 L305 307 C320 307 325 314 325 331 L325 375 C325 391 321 398 306 398 L297 398 C239 398 222 436 222 489 L222 725 C222 815 187 856 89 856 L89 856 Z " />
<glyph glyph-name="asciitilde" unicode="&#x7e;" horiz-adv-x="558" d="M68 335 C53 322 54 312 68 298 L93 275 C106 262 112 261 127 274 C148 292 169 303 200 303 C259 303 292 265 370 265 C420 265 458 283 491 314 C506 327 505 337 491 351 L467 374 C453 387 447 387 432 375 C412 358 390 346 359 346 C300 346 267 384 189 384 C139 384 102 365 68 335 L68 335 Z " />
<glyph glyph-name="exclamdown" unicode="&#xa1;" horiz-adv-x="213" d="M103 412 L109 412 C148 412 160 424 160 463 L160 470 C160 509 148 521 109 521 L103 521 C65 521 52 509 52 470 L52 463 C52 424 65 412 103 412 L103 412 Z M84 -225 L129 -225 C147 -225 154 -219 153 -202 L142 306 C141 324 136 330 118 330 L94 330 C76 330 71 324 71 306 L60 -202 C59 -219 66 -225 84 -225 L84 -225 Z " />
<glyph glyph-name="cent" unicode="&#xa2;" horiz-adv-x="535" d="M472 157 L437 167 C418 173 410 170 403 151 C384 95 344 64 272 64 C186 64 141 109 141 183 L141 334 C141 408 185 452 272 452 C346 452 383 423 402 368 C409 350 417 344 436 352 L470 363 C488 369 493 378 486 397 C465 467 414 516 318 527 L318 586 C318 604 312 610 294 610 L252 610 C234 610 228 604 228 586 L228 527 C109 513 52 440 52 330 L52 187 C52 74 109 1 228 -12 L228 -60 C228 -78 234 -84 252 -84 L294 -84 C312 -84 318 -78 318 -60 L318 -10 C408 1 462 47 488 123 C496 142 489 150 472 157 L472 157 Z " />
<glyph glyph-name="sterling" unicode="&#xa3;" horiz-adv-x="640" d="M132 525 L132 380 L72 380 C53 380 46 373 46 354 L46 322 C46 303 53 296 72 296 L132 296 L132 190 C132 140 116 95 67 86 L55 86 C44 86 40 77 40 65 L40 26 C40 7 45 0 65 0 L562 0 C582 0 588 7 588 26 L588 64 C588 83 582 90 562 90 L323 90 C262 90 213 84 182 81 L182 85 C215 108 232 142 232 191 L232 296 L472 296 C492 296 498 303 498 322 L498 354 C498 373 492 380 472 380 L232 380 L232 521 C232 584 273 635 358 635 C429 635 471 609 500 540 C509 521 515 516 534 523 L575 538 C594 544 599 553 592 571 C554 673 480 725 354 725 C205 725 132 632 132 525 L132 525 Z " />
<glyph glyph-name="currency" unicode="&#xa4;" horiz-adv-x="606" d="M542 161 L492 212 C516 248 531 291 531 337 C531 383 516 427 490 462 L541 513 C554 526 554 534 541 547 L512 576 C499 589 491 589 478 576 L427 525 C392 549 350 564 304 564 C257 564 214 549 178 524 L127 575 C114 588 106 588 93 575 L64 546 C51 534 51 525 64 512 L116 460 C91 425 77 383 77 337 C77 290 91 247 117 212 L64 160 C52 148 52 139 64 126 L94 97 C106 85 115 85 128 97 L179 149 C215 124 257 110 304 110 C350 110 393 124 428 150 L479 98 C492 86 501 86 513 98 L542 128 C555 140 555 149 542 161 L542 161 Z M304 482 C385 482 449 419 449 337 C449 256 385 191 304 191 C223 191 158 256 157 337 C158 419 223 482 304 482 L304 482 Z " />
<glyph glyph-name="yen" unicode="&#xa5;" horiz-adv-x="646" d="M602 710 L557 710 C527 710 518 709 507 687 L325 392 L144 687 C132 709 123 710 93 710 L45 710 C26 710 23 698 31 684 L241 359 L136 359 C119 359 113 353 113 336 L113 313 C113 295 119 290 136 290 L275 290 L275 213 L136 213 C119 213 113 207 113 190 L113 166 C113 149 119 143 136 143 L275 143 L275 26 C275 7 281 0 301 0 L345 0 C365 0 371 7 371 26 L371 143 L509 143 C526 143 532 149 532 166 L532 190 C532 207 526 213 509 213 L371 213 L371 290 L509 290 C526 290 532 295 532 313 L532 336 C532 353 526 359 509 359 L407 359 L615 684 C624 698 621 710 602 710 L602 710 Z " />
<glyph glyph-name="brokenbar" unicode="&#xa6;" horiz-adv-x="224" d="M131 856 L93 856 C75 856 69 850 69 832 L69 455 C69 437 75 431 93 431 L131 431 C149 431 155 437 155 455 L155 832 C155 850 149 856 131 856 L131 856 Z M131 279 L93 279 C75 279 69 273 69 255 L69 -122 C69 -140 75 -146 93 -146 L131 -146 C149 -146 155 -140 155 -122 L155 255 C155 273 149 279 131 279 L131 279 Z " />
<glyph glyph-name="section" unicode="&#xa7;" horiz-adv-x="601" d="M59 535 C59 455 95 413 145 388 C98 362 50 318 50 242 C50 89 187 77 300 65 C381 56 455 47 455 -30 C455 -93 407 -131 301 -131 C221 -131 166 -98 141 -28 C133 -7 125 -4 105 -11 L67 -24 C48 -31 42 -41 49 -60 C86 -165 174 -221 301 -221 C469 -221 552 -141 552 -29 C552 54 516 96 467 120 C504 146 545 190 545 259 C545 405 418 424 311 438 C231 448 158 459 158 535 C158 598 200 636 300 636 C377 636 425 601 451 534 C461 515 469 512 488 520 L525 537 C546 546 550 556 541 574 C499 676 423 728 300 728 C135 728 59 646 59 535 L59 535 Z M291 347 C372 338 449 323 449 250 C449 189 400 159 379 147 C357 150 335 152 312 155 C226 163 149 173 149 254 C149 320 204 346 227 357 C248 353 269 350 291 347 L291 347 Z " />
<glyph glyph-name="dieresis" unicode="&#xa8;" horiz-adv-x="439" d="M121 697 L115 697 C83 697 73 687 73 656 L73 647 C73 616 83 606 115 606 L121 606 C154 606 163 616 163 647 L163 656 C163 687 154 697 121 697 L121 697 Z M318 697 L312 697 C280 697 270 687 270 656 L270 647 C270 616 280 606 312 606 L318 606 C350 606 360 616 360 647 L360 656 C360 687 350 697 318 697 L318 697 Z " />
<glyph glyph-name="copyright" unicode="&#xa9;" horiz-adv-x="804" d="M43 351 C43 151 201 -8 403 -8 C603 -8 760 150 760 351 C760 553 603 710 403 710 C201 710 43 553 43 351 L43 351 Z M698 351 C698 184 569 54 403 54 C235 54 106 184 106 351 C106 519 235 647 403 647 C569 647 698 519 698 351 L698 351 Z M247 404 L247 293 C247 206 302 152 400 152 C483 152 528 188 549 249 C554 263 551 269 537 274 L516 282 C502 287 496 283 490 269 C478 230 451 211 400 211 C340 211 309 241 309 293 L309 404 C309 456 339 486 400 486 C454 486 477 470 490 429 C495 415 500 412 514 417 L536 425 C550 429 553 435 548 450 C528 510 483 545 400 545 C301 545 247 491 247 404 L247 404 Z " />
<glyph glyph-name="ordfeminine" unicode="&#xaa;" horiz-adv-x="364" d="M61 614 C52 601 54 593 73 585 L92 575 C103 571 109 573 116 579 C132 598 151 611 181 611 C226 611 240 591 240 552 L240 535 C229 537 209 539 181 539 C81 539 50 504 50 445 C50 390 79 355 179 355 C224 355 256 361 277 370 C302 381 309 390 309 420 L309 546 C309 620 279 670 183 670 C132 670 88 652 61 614 L61 614 Z M240 485 L240 433 C240 421 238 419 229 415 C221 412 205 409 176 409 C134 409 118 421 118 447 C118 473 131 488 177 488 C206 488 227 486 240 485 L240 485 Z " />
<glyph glyph-name="guillemotleft" unicode="&#xab;" horiz-adv-x="576" d="M289 113 L139 264 L291 418 C302 429 302 436 291 447 L264 474 C254 486 245 485 234 474 L38 277 C28 266 28 259 38 248 L231 55 C242 44 250 45 261 55 L289 83 C301 95 301 103 289 113 L289 113 Z M522 113 L370 264 L523 418 C534 429 534 436 523 447 L497 474 C485 486 477 485 467 474 L271 277 C259 266 259 259 271 248 L463 55 C474 44 482 45 494 55 L522 83 C532 95 532 103 522 113 L522 113 Z " />
<glyph glyph-name="logicalnot" unicode="&#xac;" horiz-adv-x="584" d="M497 399 L82 399 C64 399 58 393 58 375 L58 339 C58 321 64 315 82 315 L432 315 L432 163 C432 145 438 139 456 139 L497 139 C515 139 521 145 521 163 L521 375 C521 393 515 399 497 399 L497 399 Z " />
<glyph glyph-name="registered" unicode="&#xae;" horiz-adv-x="475" d="M43 516 C43 409 131 322 238 322 C344 322 431 409 431 516 C431 622 344 710 238 710 C131 710 43 622 43 516 L43 516 Z M85 516 C85 601 153 670 239 670 C324 670 392 601 392 516 C392 431 324 361 239 361 C153 361 85 431 85 516 L85 516 Z M258 615 L173 615 C163 615 161 613 161 604 L161 426 C161 419 163 417 171 417 L189 417 C196 417 198 419 198 426 L198 485 L244 485 L279 425 C282 419 284 417 295 417 L313 417 C325 417 326 422 320 431 L285 489 C312 497 328 518 328 549 C328 591 300 615 258 615 L258 615 Z M198 519 L198 580 L257 580 C277 580 289 568 289 549 C289 530 277 519 257 519 L198 519 Z " />
<glyph glyph-name="macron" unicode="&#xaf;" horiz-adv-x="352" d="M293 686 L59 686 C43 686 37 681 37 663 L37 643 C37 625 41 621 59 621 L293 621 C311 621 316 625 316 643 L316 663 C316 681 311 686 293 686 L293 686 Z " />
<glyph glyph-name="degree" unicode="&#xb0;" horiz-adv-x="392" d="M353 555 C353 644 283 712 196 712 C109 712 39 644 39 555 C39 467 109 397 196 397 C282 397 353 470 353 555 L353 555 Z M111 554 C111 601 149 640 196 640 C243 640 282 601 282 554 C282 508 243 469 196 469 C149 469 111 508 111 554 L111 554 Z " />
<glyph glyph-name="plusminus" unicode="&#xb1;" horiz-adv-x="618" d="M519 434 L350 434 L350 535 C350 554 343 561 324 561 L295 561 C275 561 269 554 269 535 L269 434 L99 434 C80 434 73 427 73 408 L73 383 C73 363 80 357 99 357 L269 357 L269 260 C269 241 275 234 295 234 L324 234 C343 234 350 241 350 260 L350 357 L519 357 C539 357 545 363 545 383 L545 408 C545 427 539 434 519 434 L519 434 Z M519 190 L99 190 C80 190 73 183 73 164 L73 139 C73 119 80 113 99 113 L519 113 C539 113 545 119 545 139 L545 164 C545 183 539 190 519 190 L519 190 Z " />
<glyph glyph-name="twosuperior" unicode="&#xb2;" horiz-adv-x="359" d="M39 716 C32 697 38 689 55 682 L77 675 C97 668 102 673 111 692 C116 702 128 747 183 747 C224 747 246 723 246 691 C246 647 215 638 175 623 L118 600 C56 576 36 540 36 474 L36 439 C36 421 43 415 61 415 L295 415 C313 415 318 421 318 437 L318 461 C318 477 313 484 295 484 L109 484 L109 501 C109 524 125 539 153 548 L209 565 C284 590 323 619 323 694 C323 764 275 819 184 819 C86 819 52 751 39 716 L39 716 Z " />
<glyph glyph-name="threesuperior" unicode="&#xb3;" horiz-adv-x="365" d="M35 715 C28 697 34 688 50 682 L66 676 C88 667 97 672 105 694 C118 733 141 751 189 751 C227 751 248 731 248 698 C248 668 232 649 201 649 L157 649 C135 649 132 646 132 624 L132 604 C132 585 136 581 156 581 L206 581 C238 581 256 559 256 528 C256 496 233 475 187 475 C135 475 114 494 102 532 C94 551 86 554 68 548 L46 541 C30 535 27 527 33 507 C55 442 101 407 187 407 C284 407 331 450 331 520 C331 562 316 600 274 621 C309 640 319 666 319 706 C319 774 271 819 187 819 C103 819 57 784 35 715 L35 715 Z " />
<glyph glyph-name="acute" unicode="&#xb4;" horiz-adv-x="257" d="M181 727 L25 633 C13 626 13 620 24 607 L35 592 C42 583 51 585 66 591 L241 674 C257 681 256 688 245 702 L225 726 C212 741 196 736 181 727 L181 727 Z " />
<glyph glyph-name="mu" unicode="&#xb5;" horiz-adv-x="553" d="M470 516 L428 516 C410 516 404 510 404 492 L404 106 C404 96 402 89 390 84 C361 75 325 67 276 67 C191 67 151 107 151 186 L151 492 C151 510 145 516 127 516 L85 516 C67 516 61 510 61 492 L61 -196 C61 -214 67 -220 85 -220 L127 -220 C145 -220 151 -214 151 -196 L150 39 C177 3 223 -15 284 -15 C353 -15 409 1 455 19 C486 32 493 43 493 75 L493 492 C493 510 487 516 470 516 L470 516 Z " />
<glyph glyph-name="paragraph" unicode="&#xb6;" horiz-adv-x="495" d="M401 710 L208 710 C107 710 39 642 39 540 C39 442 105 375 203 372 L203 -65 C203 -83 208 -89 226 -89 L262 -89 C280 -89 286 -83 286 -65 L286 620 L341 620 L341 -65 C341 -83 347 -89 365 -89 L401 -89 C419 -89 425 -83 425 -65 L425 686 C425 704 419 710 401 710 L401 710 Z " />
<glyph glyph-name="periodcentered" unicode="&#xb7;" horiz-adv-x="230" d="M118 332 L112 332 C73 332 61 320 61 282 L61 274 C61 235 73 223 112 223 L118 223 C157 223 169 236 169 274 L169 282 C169 320 157 332 118 332 L118 332 Z " />
<glyph glyph-name="cedilla" unicode="&#xb8;" horiz-adv-x="251" d="M135 -66 L160 0 L106 0 L69 -92 C63 -106 66 -113 81 -112 C90 -110 100 -109 110 -109 C145 -110 162 -121 162 -145 C162 -173 143 -192 102 -192 C68 -192 52 -183 35 -172 C25 -167 22 -174 22 -182 L23 -206 C23 -218 25 -224 37 -229 C55 -239 88 -245 114 -245 C178 -245 234 -220 239 -149 C243 -100 208 -64 155 -64 C147 -64 141 -65 135 -66 L135 -66 Z " />
<glyph glyph-name="onesuperior" unicode="&#xb9;" horiz-adv-x="283" d="M202 811 L188 811 C175 811 167 809 157 803 L31 732 C15 723 10 714 20 696 L30 677 C39 662 50 659 67 668 L153 716 L153 441 C153 421 159 415 179 415 L202 415 C222 415 229 421 229 441 L229 784 C229 804 222 811 202 811 L202 811 Z " />
<glyph glyph-name="ordmasculine" unicode="&#xba;" horiz-adv-x="369" d="M49 549 L49 476 C49 401 96 356 184 356 C273 356 319 401 319 476 L319 549 C319 624 273 670 184 670 C96 670 49 624 49 549 L49 549 Z M247 552 L247 474 C247 440 226 419 184 419 C143 419 122 440 122 474 L122 552 C122 585 143 607 184 607 C226 607 247 585 247 552 L247 552 Z " />
<glyph glyph-name="guillemotright" unicode="&#xbb;" horiz-adv-x="576" d="M285 418 L437 264 L286 113 C275 103 275 95 286 83 L314 55 C326 45 333 44 345 55 L537 248 C548 259 548 266 537 277 L341 474 C331 486 322 486 311 474 L285 447 C274 436 273 429 285 418 L285 418 Z M53 418 L205 264 L54 113 C43 103 43 95 54 83 L82 55 C93 44 101 44 112 55 L305 248 C316 259 316 266 305 277 L109 474 C98 485 90 486 79 474 L53 447 C41 436 42 429 53 418 L53 418 Z " />
<glyph glyph-name="onequarter" unicode="&#xbc;" horiz-adv-x="794" d="M216 712 L202 712 C189 712 180 710 170 704 L45 633 C29 624 24 615 33 597 L44 578 C53 563 64 560 81 569 L167 617 L167 342 C167 322 173 316 193 316 L216 316 C236 316 243 322 243 342 L243 685 C243 705 236 712 216 712 L216 712 Z M680 710 L646 710 C618 710 612 707 597 688 L111 27 C101 12 105 0 124 0 L155 0 C186 0 191 3 207 24 L693 685 C703 698 698 710 680 710 L680 710 Z M684 396 L652 396 C636 396 630 394 620 382 L440 160 C433 151 433 148 433 135 L433 116 C433 98 437 93 455 93 L636 93 L636 22 C636 5 639 0 657 0 L686 0 C703 0 707 5 707 22 L707 93 L738 93 C757 93 760 97 760 114 L760 136 C760 153 757 157 738 157 L707 157 L707 372 C707 392 705 396 684 396 L684 396 Z M518 157 L636 302 L636 157 L518 157 Z " />
<glyph glyph-name="onehalf" unicode="&#xbd;" horiz-adv-x="839" d="M216 717 L201 717 C188 717 180 715 170 709 L45 638 C29 629 23 619 33 602 L44 583 C53 568 64 565 81 574 L166 622 L166 347 C166 327 173 321 193 321 L216 321 C236 321 242 327 242 347 L242 690 C242 710 236 717 216 717 L216 717 Z M674 710 L640 710 C612 710 606 707 592 688 L105 27 C95 12 99 0 118 0 L149 0 C180 0 186 3 201 24 L687 685 C697 698 692 710 674 710 L674 710 Z M514 301 C506 283 513 274 530 268 L552 260 C572 253 577 258 586 277 C591 287 603 332 658 332 C699 332 720 308 720 276 C720 232 690 223 649 208 L593 186 C530 162 511 125 511 59 L511 24 C511 6 518 0 536 0 L770 0 C788 0 793 7 793 23 L793 46 C793 62 788 69 770 69 L584 69 L584 87 C584 109 600 124 627 133 L684 151 C759 175 798 204 798 279 C798 349 750 404 659 404 C561 404 527 336 514 301 L514 301 Z " />
<glyph glyph-name="threequarters" unicode="&#xbe;" horiz-adv-x="828" d="M41 622 C34 603 40 595 56 588 L71 582 C94 574 102 579 111 601 C123 640 147 658 195 658 C232 658 254 638 254 604 C254 575 238 556 207 556 L163 556 C141 556 138 553 138 531 L138 511 C138 491 142 488 161 488 L211 488 C244 488 262 466 262 435 C262 403 239 381 193 381 C141 381 120 400 108 438 C100 458 92 461 74 455 L52 447 C36 442 33 434 39 414 C61 348 107 313 193 313 C290 313 337 357 337 426 C337 468 322 507 280 527 C315 546 325 573 325 612 C325 680 277 725 193 725 C109 725 63 691 41 622 L41 622 Z M717 710 L683 710 C655 710 649 707 635 688 L148 27 C138 12 142 0 161 0 L192 0 C223 0 229 3 244 24 L730 685 C740 698 735 710 717 710 L717 710 Z M721 396 L688 396 C672 396 666 394 657 382 L477 160 C470 151 469 148 469 135 L469 116 C469 98 474 93 492 93 L673 93 L673 22 C673 5 676 0 693 0 L723 0 C740 0 744 5 744 22 L744 93 L774 93 C794 93 797 97 797 114 L797 136 C797 153 794 157 774 157 L744 157 L744 372 C744 392 741 396 721 396 L721 396 Z M673 157 L554 157 L673 302 L673 157 Z " />
<glyph glyph-name="questiondown" unicode="&#xbf;" horiz-adv-x="558" d="M300 412 L307 412 C345 412 358 424 358 462 L358 470 C358 509 345 521 307 521 L300 521 C262 521 250 509 250 470 L250 462 C250 424 262 412 300 412 L300 412 Z M529 -60 C536 -42 531 -33 513 -27 L476 -13 C457 -7 451 -11 442 -30 C414 -96 368 -140 274 -140 C177 -140 126 -85 126 -14 C126 78 184 110 241 147 C294 182 345 223 345 321 C345 340 338 346 320 346 L289 346 C270 346 264 340 264 321 C264 264 227 236 187 210 C121 168 30 126 30 -19 C30 -132 119 -225 272 -225 C415 -225 491 -157 529 -60 L529 -60 Z " />
<glyph glyph-name="Agrave" unicode="&#xc0;" horiz-adv-x="649" d="M235 895 L215 871 C203 857 203 850 219 844 L395 762 C411 757 419 755 426 764 L437 779 C448 791 448 797 436 804 L279 897 C263 906 248 911 235 895 L235 895 Z M637 26 L377 691 C371 708 363 712 344 712 L304 712 C285 712 277 708 271 690 L11 26 C5 9 9 0 29 0 L64 0 C96 0 105 5 112 23 L174 186 L470 186 L532 23 C538 5 547 0 580 0 L619 0 C639 0 643 9 637 26 L637 26 Z M343 528 L443 265 L201 265 L302 529 C318 575 318 620 319 622 L325 622 C325 620 327 575 343 528 L343 528 Z " />
<glyph glyph-name="Aacute" unicode="&#xc1;" horiz-adv-x="649" d="M371 900 L216 805 C203 798 204 793 214 780 L226 765 C233 756 241 758 256 764 L431 847 C447 854 446 861 435 875 L415 899 C402 914 387 909 371 900 L371 900 Z M637 26 L377 691 C371 708 363 712 344 712 L304 712 C285 712 277 708 271 690 L11 26 C5 9 9 0 29 0 L64 0 C96 0 105 5 112 23 L174 186 L470 186 L532 23 C538 5 547 0 580 0 L619 0 C639 0 643 9 637 26 L637 26 Z M343 528 L443 265 L201 265 L302 529 C318 575 318 620 319 622 L325 622 C325 620 327 575 343 528 L343 528 Z " />
<glyph glyph-name="Acircumflex" unicode="&#xc2;" horiz-adv-x="649" d="M331 905 L321 905 C299 905 294 904 275 884 L162 781 C152 770 153 761 173 761 L206 761 C226 761 231 762 243 775 L324 846 L402 775 C413 763 421 761 441 761 L476 761 C497 761 497 770 488 781 L375 884 C355 904 350 905 331 905 L331 905 Z M637 26 L377 691 C371 708 363 712 344 712 L304 712 C285 712 277 708 271 690 L11 26 C5 9 9 0 29 0 L64 0 C96 0 105 5 112 23 L174 186 L470 186 L532 23 C538 5 547 0 580 0 L619 0 C639 0 643 9 637 26 L637 26 Z M343 528 L443 265 L201 265 L302 529 C318 575 318 620 319 622 L325 622 C325 620 327 575 343 528 L343 528 Z " />
<glyph glyph-name="Atilde" unicode="&#xc3;" horiz-adv-x="649" d="M459 888 L434 888 C422 888 419 883 419 873 C419 843 409 825 387 825 C340 825 317 888 247 888 C195 888 167 858 167 783 C167 773 171 768 182 768 L207 768 C218 768 222 773 222 783 C222 814 234 831 255 831 C303 831 327 768 393 768 C449 768 474 799 474 873 C474 883 471 888 459 888 L459 888 Z M637 26 L377 691 C371 708 363 712 344 712 L304 712 C285 712 277 708 271 690 L11 26 C5 9 9 0 29 0 L64 0 C96 0 105 5 112 23 L174 186 L470 186 L532 23 C538 5 547 0 580 0 L619 0 C639 0 643 9 637 26 L637 26 Z M343 528 L443 265 L201 265 L302 529 C318 575 318 620 319 622 L325 622 C325 620 327 575 343 528 L343 528 Z " />
<glyph glyph-name="Adieresis" unicode="&#xc4;" horiz-adv-x="649" d="M229 875 L222 875 C191 875 181 864 181 834 L181 825 C181 794 191 784 222 784 L229 784 C261 784 271 794 271 825 L271 834 C271 864 261 875 229 875 L229 875 Z M426 875 L419 875 C387 875 377 864 377 834 L377 825 C377 794 387 784 419 784 L426 784 C457 784 467 794 467 825 L467 834 C467 864 457 875 426 875 L426 875 Z M637 26 L377 691 C371 708 363 712 344 712 L304 712 C285 712 277 708 271 690 L11 26 C5 9 9 0 29 0 L64 0 C96 0 105 5 112 23 L174 186 L470 186 L532 23 C538 5 547 0 580 0 L619 0 C639 0 643 9 637 26 L637 26 Z M343 528 L443 265 L201 265 L302 529 C318 575 318 620 319 622 L325 622 C325 620 327 575 343 528 L343 528 Z " />
<glyph glyph-name="Aring" unicode="&#xc5;" horiz-adv-x="649" d="M209 772 C209 728 231 695 266 680 L11 26 C5 9 9 0 29 0 L64 0 C96 0 105 5 112 23 L174 186 L470 186 L532 23 C538 5 547 0 580 0 L619 0 C639 0 643 9 637 26 L382 678 C419 694 439 727 439 772 C439 840 394 886 326 886 C256 886 209 840 209 772 L209 772 Z M385 772 C385 737 362 714 326 714 C288 714 263 737 263 772 C263 809 288 832 326 832 C362 832 385 809 385 772 L385 772 Z M343 528 L443 265 L201 265 L302 529 C318 575 318 620 319 622 L325 622 C325 620 327 575 343 528 L343 528 Z " />
<glyph glyph-name="AE" unicode="&#xc6;" horiz-adv-x="843" d="M782 90 L515 90 L515 314 L724 314 C743 314 750 321 750 341 L750 378 C750 398 743 404 724 404 L515 404 L515 620 L770 620 C790 620 796 627 796 646 L796 684 C796 703 790 710 770 710 L443 710 C425 710 420 704 410 688 L-2 26 C-8 9 -4 0 16 0 L57 0 C90 0 96 7 106 23 L189 163 L421 163 L421 26 C421 7 428 0 448 0 L782 0 C802 0 808 7 808 26 L808 64 C808 83 802 90 782 90 L782 90 Z M421 548 L421 243 L237 243 L421 548 Z " />
<glyph glyph-name="Ccedilla" unicode="&#xc7;" horiz-adv-x="638" d="M586 191 L545 206 C526 213 518 209 511 189 C486 114 435 75 333 75 C215 75 150 136 150 240 L150 470 C150 575 214 635 333 635 C433 635 485 598 510 523 C517 504 525 501 544 507 L585 521 C604 528 608 536 602 555 C566 665 483 725 333 725 C152 725 53 627 53 469 L53 241 C53 93 141 -2 299 -13 L267 -92 C261 -106 265 -113 279 -112 C288 -110 298 -109 309 -109 C344 -110 361 -121 361 -145 C361 -173 341 -192 301 -192 C266 -192 250 -183 233 -172 C224 -167 221 -174 221 -182 L221 -206 C221 -218 224 -224 235 -229 C253 -239 287 -245 312 -245 C376 -245 433 -220 438 -149 C442 -100 406 -64 354 -64 C346 -64 339 -65 334 -66 L354 -14 C494 -8 569 53 603 157 C610 176 605 185 586 191 L586 191 Z " />
<glyph glyph-name="Egrave" unicode="&#xc8;" horiz-adv-x="576" d="M213 895 L193 871 C181 857 181 850 196 844 L373 762 C388 757 397 755 404 764 L415 779 C425 791 426 797 413 804 L257 897 C241 906 225 911 213 895 L213 895 Z M502 710 L100 710 C81 710 74 703 74 684 L74 26 C74 7 81 0 100 0 L514 0 C534 0 540 7 540 26 L540 64 C540 83 534 90 514 90 L171 90 L171 315 L456 315 C476 315 482 321 482 341 L482 378 C482 398 476 405 456 405 L171 405 L171 620 L502 620 C522 620 528 627 528 646 L528 684 C528 703 522 710 502 710 L502 710 Z " />
<glyph glyph-name="Eacute" unicode="&#xc9;" horiz-adv-x="576" d="M349 900 L193 805 C181 798 181 793 192 780 L203 765 C210 756 219 758 234 764 L409 847 C425 854 424 861 413 875 L393 899 C380 914 364 909 349 900 L349 900 Z M502 710 L100 710 C81 710 74 703 74 684 L74 26 C74 7 81 0 100 0 L514 0 C534 0 540 7 540 26 L540 64 C540 83 534 90 514 90 L171 90 L171 315 L456 315 C476 315 482 321 482 341 L482 378 C482 398 476 405 456 405 L171 405 L171 620 L502 620 C522 620 528 627 528 646 L528 684 C528 703 522 710 502 710 L502 710 Z " />
<glyph glyph-name="Ecircumflex" unicode="&#xca;" horiz-adv-x="576" d="M309 905 L299 905 C277 905 272 904 253 884 L139 781 C130 770 131 761 151 761 L184 761 C204 761 209 762 221 775 L302 846 L380 775 C391 763 399 761 419 761 L454 761 C474 761 475 770 466 781 L353 884 C332 904 327 905 309 905 L309 905 Z M502 710 L100 710 C81 710 74 703 74 684 L74 26 C74 7 81 0 100 0 L514 0 C534 0 540 7 540 26 L540 64 C540 83 534 90 514 90 L171 90 L171 315 L456 315 C476 315 482 321 482 341 L482 378 C482 398 476 405 456 405 L171 405 L171 620 L502 620 C522 620 528 627 528 646 L528 684 C528 703 522 710 502 710 L502 710 Z " />
<glyph glyph-name="Edieresis" unicode="&#xcb;" horiz-adv-x="576" d="M206 875 L200 875 C168 875 158 864 158 834 L158 825 C158 794 168 784 200 784 L206 784 C239 784 248 794 248 825 L248 834 C248 864 239 875 206 875 L206 875 Z M403 875 L397 875 C365 875 355 864 355 834 L355 825 C355 794 365 784 397 784 L403 784 C435 784 445 794 445 825 L445 834 C445 864 435 875 403 875 L403 875 Z M502 710 L100 710 C81 710 74 703 74 684 L74 26 C74 7 81 0 100 0 L514 0 C534 0 540 7 540 26 L540 64 C540 83 534 90 514 90 L171 90 L171 315 L456 315 C476 315 482 321 482 341 L482 378 C482 398 476 405 456 405 L171 405 L171 620 L502 620 C522 620 528 627 528 646 L528 684 C528 703 522 710 502 710 L502 710 Z " />
<glyph glyph-name="Igrave" unicode="&#xcc;" horiz-adv-x="245" d="M34 895 L14 871 C2 857 2 850 17 844 L194 762 C209 757 218 755 225 764 L236 779 C247 791 247 797 235 804 L78 897 C62 906 47 911 34 895 L34 895 Z M74 684 L74 26 C74 7 81 0 101 0 L145 0 C164 0 171 7 171 26 L171 684 C171 703 164 710 145 710 L101 710 C81 710 74 703 74 684 L74 684 Z " />
<glyph glyph-name="Iacute" unicode="&#xcd;" horiz-adv-x="245" d="M169 900 L14 805 C2 798 2 793 13 780 L24 765 C31 756 39 758 55 764 L230 847 C246 854 245 861 233 875 L214 899 C201 914 185 909 169 900 L169 900 Z M74 684 L74 26 C74 7 81 0 100 0 L144 0 C164 0 171 7 171 26 L171 684 C171 703 164 710 144 710 L100 710 C81 710 74 703 74 684 L74 684 Z " />
<glyph glyph-name="Icircumflex" unicode="&#xce;" horiz-adv-x="245" d="M130 905 L120 905 C97 905 93 904 73 884 L-40 781 C-49 770 -49 761 -28 761 L5 761 C24 761 30 762 42 775 L122 846 L201 775 C212 763 220 761 239 761 L275 761 C295 761 296 770 286 781 L173 884 C153 904 148 905 130 905 L130 905 Z M74 684 L74 26 C74 7 81 0 100 0 L144 0 C164 0 171 7 171 26 L171 684 C171 703 164 710 144 710 L100 710 C81 710 74 703 74 684 L74 684 Z " />
<glyph glyph-name="Idieresis" unicode="&#xcf;" horiz-adv-x="245" d="M27 875 L20 875 C-11 875 -21 864 -21 834 L-21 825 C-21 794 -11 784 20 784 L27 784 C59 784 69 794 69 825 L69 834 C69 864 59 875 27 875 L27 875 Z M224 875 L218 875 C186 875 175 864 175 834 L175 825 C175 794 186 784 218 784 L224 784 C255 784 266 794 266 825 L266 834 C266 864 255 875 224 875 L224 875 Z M74 684 L74 26 C74 7 81 0 100 0 L144 0 C164 0 171 7 171 26 L171 684 C171 703 164 710 144 710 L100 710 C81 710 74 703 74 684 L74 684 Z " />
<glyph glyph-name="Eth" unicode="&#xd0;" horiz-adv-x="672" d="M331 710 L113 710 C94 710 87 703 87 684 L87 395 L20 395 C9 395 4 391 4 378 L4 349 C4 335 8 332 20 332 L87 332 L87 26 C87 7 94 0 113 0 L331 0 C517 0 621 101 621 264 L621 446 C621 609 517 710 331 710 L331 710 Z M524 447 L524 263 C524 153 455 90 331 90 L184 90 L184 332 L338 332 C351 332 354 335 354 349 L354 378 C354 391 351 395 338 395 L184 395 L184 620 L331 620 C456 620 524 557 524 447 L524 447 Z " />
<glyph glyph-name="Ntilde" unicode="&#xd1;" horiz-adv-x="693" d="M482 888 L457 888 C446 888 443 883 443 873 C443 843 432 825 411 825 C363 825 340 888 270 888 C218 888 190 858 190 783 C190 773 194 768 205 768 L231 768 C241 768 245 773 245 783 C245 814 257 831 278 831 C327 831 351 768 417 768 C473 768 498 799 498 873 C498 883 494 888 482 888 L482 888 Z M593 710 L552 710 C532 710 526 703 526 684 L526 322 C526 233 542 151 542 129 L537 129 C525 146 497 221 451 289 L170 697 C165 705 158 710 144 710 L100 710 C81 710 74 703 74 684 L74 26 C74 7 81 0 100 0 L141 0 C161 0 168 7 168 26 L168 396 C168 479 151 563 151 582 L156 582 C166 568 196 490 237 428 L522 13 C529 3 536 0 549 0 L593 0 C612 0 619 7 619 26 L619 684 C619 703 612 710 593 710 L593 710 Z " />
<glyph glyph-name="Ograve" unicode="&#xd2;" horiz-adv-x="666" d="M244 905 L224 881 C213 867 212 860 228 854 L405 772 C420 767 428 765 435 774 L447 789 C457 801 457 807 445 814 L288 907 C273 916 257 921 244 905 L244 905 Z M53 469 L53 241 C53 83 152 -15 333 -15 C514 -15 613 83 613 241 L613 469 C613 627 514 725 333 725 C152 725 53 627 53 469 L53 469 Z M516 469 L516 241 C516 135 451 75 333 75 C215 75 150 135 150 241 L150 469 C150 575 215 635 333 635 C451 635 516 575 516 469 L516 469 Z " />
<glyph glyph-name="Oacute" unicode="&#xd3;" horiz-adv-x="666" d="M380 910 L225 815 C213 808 213 803 223 790 L235 775 C242 766 250 768 265 774 L441 857 C456 864 456 871 444 885 L424 909 C412 924 396 919 380 910 L380 910 Z M53 469 L53 241 C53 83 152 -15 333 -15 C514 -15 613 83 613 241 L613 469 C613 627 514 725 333 725 C152 725 53 627 53 469 L53 469 Z M516 469 L516 241 C516 135 451 75 333 75 C215 75 150 135 150 241 L150 469 C150 575 215 635 333 635 C451 635 516 575 516 469 L516 469 Z " />
<glyph glyph-name="Ocircumflex" unicode="&#xd4;" horiz-adv-x="666" d="M341 915 L331 915 C308 915 304 914 284 894 L171 791 C162 780 162 771 183 771 L216 771 C235 771 241 772 253 785 L333 856 L412 785 C423 773 430 771 450 771 L485 771 C506 771 507 780 497 791 L384 894 C364 914 359 915 341 915 L341 915 Z M53 469 L53 241 C53 83 152 -15 333 -15 C514 -15 613 83 613 241 L613 469 C613 627 514 725 333 725 C152 725 53 627 53 469 L53 469 Z M516 469 L516 241 C516 135 451 75 333 75 C215 75 150 135 150 241 L150 469 C150 575 215 635 333 635 C451 635 516 575 516 469 L516 469 Z " />
<glyph glyph-name="Otilde" unicode="&#xd5;" horiz-adv-x="666" d="M468 898 L443 898 C432 898 429 893 429 883 C429 853 418 835 397 835 C349 835 326 898 256 898 C204 898 176 868 176 793 C176 783 180 778 191 778 L217 778 C227 778 231 783 231 793 C231 824 243 841 264 841 C313 841 337 778 403 778 C459 778 484 809 484 883 C484 893 480 898 468 898 L468 898 Z M53 469 L53 241 C53 83 152 -15 333 -15 C514 -15 613 83 613 241 L613 469 C613 627 514 725 333 725 C152 725 53 627 53 469 L53 469 Z M516 469 L516 241 C516 135 451 75 333 75 C215 75 150 135 150 241 L150 469 C150 575 215 635 333 635 C451 635 516 575 516 469 L516 469 Z " />
<glyph glyph-name="Odieresis" unicode="&#xd6;" horiz-adv-x="666" d="M238 885 L231 885 C200 885 190 874 190 844 L190 835 C190 804 200 794 231 794 L238 794 C270 794 280 804 280 835 L280 844 C280 874 270 885 238 885 L238 885 Z M435 885 L429 885 C396 885 386 874 386 844 L386 835 C386 804 396 794 429 794 L435 794 C466 794 477 804 477 835 L477 844 C477 874 466 885 435 885 L435 885 Z M53 469 L53 241 C53 83 152 -15 333 -15 C514 -15 613 83 613 241 L613 469 C613 627 514 725 333 725 C152 725 53 627 53 469 L53 469 Z M516 469 L516 241 C516 135 451 75 333 75 C215 75 150 135 150 241 L150 469 C150 575 215 635 333 635 C451 635 516 575 516 469 L516 469 Z " />
<glyph glyph-name="multiply" unicode="&#xd7;" horiz-adv-x="510" d="M446 191 L311 325 L446 459 C459 472 459 481 446 495 L425 516 C411 529 403 529 389 516 L254 382 L121 515 C108 529 98 529 85 515 L64 494 C51 481 51 472 64 458 L197 325 L64 191 C51 177 51 168 64 155 L85 134 C98 121 108 121 121 134 L254 268 L389 134 C403 120 411 120 425 134 L446 155 C459 168 459 177 446 191 L446 191 Z " />
<glyph glyph-name="Oslash" unicode="&#xd8;" horiz-adv-x="666" d="M617 752 L565 752 C556 752 553 751 548 744 L507 680 C463 709 405 725 333 725 C152 725 53 627 53 469 L53 241 C53 168 74 107 114 65 L53 -31 C50 -37 51 -41 58 -41 L109 -41 C121 -41 122 -40 127 -33 L164 26 C207 -1 264 -15 333 -15 C514 -13 613 83 613 241 L613 469 C613 539 593 597 556 640 L622 743 C625 748 624 752 617 752 L617 752 Z M457 600 L175 159 C158 180 150 208 150 241 L150 469 C150 575 215 635 333 635 C385 635 426 622 457 600 L457 600 Z M215 106 L495 545 C509 525 516 499 516 469 L516 241 C516 135 451 75 333 75 C285 75 245 86 215 106 L215 106 Z " />
<glyph glyph-name="Ugrave" unicode="&#xd9;" horiz-adv-x="685" d="M253 895 L233 871 C222 857 221 850 237 844 L414 762 C429 757 437 755 444 764 L456 779 C466 791 466 797 454 804 L297 897 C282 906 266 911 253 895 L253 895 Z M165 242 L165 684 C165 703 159 710 139 710 L95 710 C75 710 69 703 69 684 L69 243 C69 86 161 -15 342 -15 C524 -15 616 86 616 243 L616 684 C616 703 609 710 590 710 L546 710 C526 710 519 703 519 684 L519 242 C519 139 461 75 342 75 C223 75 165 139 165 242 L165 242 Z " />
<glyph glyph-name="Uacute" unicode="&#xda;" horiz-adv-x="685" d="M389 900 L234 805 C222 798 222 793 232 780 L244 765 C251 756 259 758 274 764 L450 847 C465 854 465 861 453 875 L433 899 C421 914 405 909 389 900 L389 900 Z M165 242 L165 684 C165 703 159 710 139 710 L95 710 C75 710 69 703 69 684 L69 243 C69 86 161 -15 342 -15 C524 -15 616 86 616 243 L616 684 C616 703 609 710 590 710 L546 710 C526 710 519 703 519 684 L519 242 C519 139 461 75 342 75 C223 75 165 139 165 242 L165 242 Z " />
<glyph glyph-name="Ucircumflex" unicode="&#xdb;" horiz-adv-x="685" d="M350 905 L340 905 C317 905 313 904 293 884 L180 781 C171 770 171 761 192 761 L225 761 C244 761 250 762 262 775 L342 846 L421 775 C432 763 439 761 459 761 L494 761 C515 761 516 770 506 781 L393 884 C373 904 368 905 350 905 L350 905 Z M165 242 L165 684 C165 703 159 710 139 710 L95 710 C75 710 69 703 69 684 L69 243 C69 86 161 -15 342 -15 C524 -15 616 86 616 243 L616 684 C616 703 609 710 590 710 L546 710 C526 710 519 703 519 684 L519 242 C519 139 461 75 342 75 C223 75 165 139 165 242 L165 242 Z " />
<glyph glyph-name="Udieresis" unicode="&#xdc;" horiz-adv-x="685" d="M247 875 L240 875 C209 875 199 864 199 834 L199 825 C199 794 209 784 240 784 L247 784 C279 784 289 794 289 825 L289 834 C289 864 279 875 247 875 L247 875 Z M444 875 L438 875 C405 875 395 864 395 834 L395 825 C395 794 405 784 438 784 L444 784 C475 784 486 794 486 825 L486 834 C486 864 475 875 444 875 L444 875 Z M165 242 L165 684 C165 703 159 710 139 710 L95 710 C75 710 69 703 69 684 L69 243 C69 86 161 -15 342 -15 C524 -15 616 86 616 243 L616 684 C616 703 609 710 590 710 L546 710 C526 710 519 703 519 684 L519 242 C519 139 461 75 342 75 C223 75 165 139 165 242 L165 242 Z " />
<glyph glyph-name="Yacute" unicode="&#xdd;" horiz-adv-x="634" d="M366 900 L211 805 C199 798 199 793 209 780 L221 765 C228 756 236 758 251 764 L427 847 C442 854 442 861 430 875 L410 899 C397 914 382 909 366 900 L366 900 Z M605 710 L555 710 C524 710 516 709 504 687 L318 384 L134 687 C122 709 113 710 83 710 L29 710 C10 710 7 698 15 684 L269 286 L269 26 C269 7 275 0 295 0 L339 0 C359 0 365 7 365 26 L365 284 L619 684 C627 698 625 710 605 710 L605 710 Z " />
<glyph glyph-name="Thorn" unicode="&#xde;" horiz-adv-x="625" d="M357 596 L171 596 L171 684 C171 703 164 710 144 710 L100 710 C81 710 74 703 74 684 L74 26 C74 7 81 0 100 0 L144 0 C164 0 171 7 171 26 L171 124 L357 124 C503 124 597 213 597 359 C597 506 503 596 357 596 L357 596 Z M348 214 L171 214 L171 506 L348 506 C439 506 496 447 496 359 C496 271 439 214 348 214 L348 214 Z " />
<glyph glyph-name="germandbls" unicode="&#xdf;" horiz-adv-x="551" d="M63 528 L63 26 C63 7 70 0 89 0 L126 0 C146 0 152 7 152 26 L152 529 C152 608 195 660 271 660 C351 660 392 617 392 538 C392 481 360 425 289 425 L237 425 C217 425 210 419 210 399 L210 364 C210 345 217 338 237 338 L297 338 C372 338 414 290 414 216 C414 133 371 90 293 90 L235 90 C215 90 208 83 208 63 L208 26 C208 7 215 0 235 0 L302 0 C435 0 512 72 512 205 C512 310 469 365 403 388 L403 391 C464 421 486 484 486 547 C486 673 415 750 272 750 C136 750 63 659 63 528 L63 528 Z " />
<glyph glyph-name="agrave" unicode="&#xe0;" horiz-adv-x="516" d="M166 722 L146 698 C134 684 134 677 149 671 L325 587 C340 581 348 580 355 588 L366 603 C377 616 377 622 365 629 L210 724 C194 732 178 737 166 722 L166 722 Z M52 426 C43 408 48 399 65 392 L96 378 C114 371 118 374 129 390 C153 430 193 451 253 451 C347 451 372 403 372 332 L372 294 C355 296 307 301 258 301 C99 301 35 261 35 144 C35 42 78 -15 254 -15 C332 -15 389 -5 426 11 C454 23 462 33 462 68 L462 329 C462 442 417 531 255 531 C153 531 86 492 52 426 L52 426 Z M372 220 L372 94 C372 80 369 77 357 72 C334 64 300 60 246 60 C146 60 125 92 125 144 C125 201 154 228 248 228 C297 228 352 222 372 220 L372 220 Z " />
<glyph glyph-name="aacute" unicode="&#xe1;" horiz-adv-x="516" d="M301 724 L146 629 C133 622 134 616 144 603 L156 588 C162 580 171 581 186 587 L361 671 C377 677 376 684 365 698 L345 722 C332 737 317 732 301 724 L301 724 Z M52 426 C43 408 48 399 65 392 L96 378 C114 371 118 374 129 390 C153 430 193 451 253 451 C347 451 372 403 372 332 L372 294 C355 296 307 301 258 301 C99 301 35 261 35 144 C35 42 78 -15 254 -15 C332 -15 389 -5 426 11 C454 23 462 33 462 68 L462 329 C462 442 417 531 255 531 C153 531 86 492 52 426 L52 426 Z M372 220 L372 94 C372 80 369 77 357 72 C334 64 300 60 246 60 C146 60 125 92 125 144 C125 201 154 228 248 228 C297 228 352 222 372 220 L372 220 Z " />
<glyph glyph-name="acircumflex" unicode="&#xe2;" horiz-adv-x="516" d="M261 725 L251 725 C229 725 224 724 205 704 L92 601 C82 591 83 581 103 581 L136 581 C156 581 161 582 173 595 L254 666 L332 595 C343 583 351 581 371 581 L406 581 C427 581 427 591 418 601 L305 704 C285 724 280 725 261 725 L261 725 Z M52 426 C43 408 48 399 65 392 L96 378 C114 371 118 374 129 390 C153 430 193 451 253 451 C347 451 372 403 372 332 L372 294 C355 296 307 301 258 301 C99 301 35 261 35 144 C35 42 78 -15 254 -15 C332 -15 389 -5 426 11 C454 23 462 33 462 68 L462 329 C462 442 417 531 255 531 C153 531 86 492 52 426 L52 426 Z M372 220 L372 94 C372 80 369 77 357 72 C334 64 300 60 246 60 C146 60 125 92 125 144 C125 201 154 228 248 228 C297 228 352 222 372 220 L372 220 Z " />
<glyph glyph-name="atilde" unicode="&#xe3;" horiz-adv-x="516" d="M389 714 L364 714 C352 714 349 709 349 699 C349 668 339 651 317 651 C269 651 247 714 177 714 C125 714 96 683 96 609 C96 598 101 594 112 594 L137 594 C148 594 152 598 152 609 C152 640 164 656 185 656 C233 656 257 594 323 594 C379 594 404 625 404 699 C404 709 401 714 389 714 L389 714 Z M52 426 C43 408 48 399 65 392 L96 378 C114 371 118 374 129 390 C153 430 193 451 253 451 C347 451 372 403 372 332 L372 294 C355 296 307 301 258 301 C99 301 35 261 35 144 C35 42 78 -15 254 -15 C332 -15 389 -5 426 11 C454 23 462 33 462 68 L462 329 C462 442 417 531 255 531 C153 531 86 492 52 426 L52 426 Z M372 220 L372 94 C372 80 369 77 357 72 C334 64 300 60 246 60 C146 60 125 92 125 144 C125 201 154 228 248 228 C297 228 352 222 372 220 L372 220 Z " />
<glyph glyph-name="adieresis" unicode="&#xe4;" horiz-adv-x="516" d="M159 697 L152 697 C121 697 111 687 111 656 L111 647 C111 616 121 606 152 606 L159 606 C191 606 201 616 201 647 L201 656 C201 687 191 697 159 697 L159 697 Z M356 697 L349 697 C317 697 307 687 307 656 L307 647 C307 616 317 606 349 606 L356 606 C387 606 397 616 397 647 L397 656 C397 687 387 697 356 697 L356 697 Z M52 426 C43 408 48 399 65 392 L96 378 C114 371 118 374 129 390 C153 430 193 451 253 451 C347 451 372 403 372 332 L372 294 C355 296 307 301 258 301 C99 301 35 261 35 144 C35 42 78 -15 254 -15 C332 -15 389 -5 426 11 C454 23 462 33 462 68 L462 329 C462 442 417 531 255 531 C153 531 86 492 52 426 L52 426 Z M372 220 L372 94 C372 80 369 77 357 72 C334 64 300 60 246 60 C146 60 125 92 125 144 C125 201 154 228 248 228 C297 228 352 222 372 220 L372 220 Z " />
<glyph glyph-name="aring" unicode="&#xe5;" horiz-adv-x="516" d="M152 680 C152 620 195 579 258 579 C319 579 361 620 361 680 C361 741 319 783 258 783 C195 783 152 741 152 680 L152 680 Z M315 680 C315 646 292 624 258 624 C222 624 198 646 198 680 C198 715 222 737 258 737 C292 737 315 715 315 680 L315 680 Z M52 426 C43 408 48 399 65 392 L96 378 C114 371 118 374 129 390 C153 430 193 451 253 451 C347 451 372 403 372 332 L372 294 C355 296 307 301 258 301 C99 301 35 261 35 144 C35 42 78 -15 254 -15 C332 -15 389 -5 426 11 C454 23 462 33 462 68 L462 329 C462 442 417 531 255 531 C153 531 86 492 52 426 L52 426 Z M372 220 L372 94 C372 80 369 77 357 72 C334 64 300 60 246 60 C146 60 125 92 125 144 C125 201 154 228 248 228 C297 228 352 222 372 220 L372 220 Z " />
<glyph glyph-name="ae" unicode="&#xe6;" horiz-adv-x="793" d="M53 426 C43 408 49 399 66 392 L97 379 C114 372 119 375 130 390 C154 430 186 451 238 451 C323 451 341 405 341 342 L341 293 C323 295 282 300 242 300 C93 300 35 260 35 143 C35 41 76 -15 238 -15 C329 -15 374 10 406 35 C435 4 483 -15 546 -15 C654 -15 706 26 741 87 C752 104 749 117 732 126 L704 141 C686 150 678 148 666 131 C641 89 611 63 547 63 C466 63 431 106 431 182 L431 231 L719 231 C746 231 755 245 755 266 L755 325 C755 443 695 531 548 531 C472 531 420 505 390 458 C365 501 322 531 240 531 C146 531 87 492 53 426 L53 426 Z M666 330 L666 300 L431 300 L431 330 C431 408 465 455 548 455 C632 455 666 408 666 330 L666 330 Z M341 220 L341 158 C341 137 342 118 345 100 C342 90 318 60 230 60 C143 60 126 91 126 143 C126 199 148 227 233 227 C272 227 320 222 341 220 L341 220 Z " />
<glyph glyph-name="ccedilla" unicode="&#xe7;" horiz-adv-x="515" d="M465 157 L430 167 C411 173 404 170 396 151 C378 95 337 64 265 64 C179 64 135 109 135 183 L135 334 C135 408 178 452 265 452 C339 452 377 423 395 368 C402 350 411 344 429 352 L464 363 C481 369 487 378 480 397 C455 476 390 531 269 531 C117 531 45 454 45 330 L45 187 C45 68 108 -7 241 -14 L209 -92 C203 -106 207 -113 221 -112 C230 -110 240 -109 251 -109 C286 -110 303 -121 303 -145 C303 -173 283 -192 243 -192 C208 -192 192 -183 175 -172 C166 -167 163 -174 163 -182 L163 -206 C163 -218 166 -224 177 -229 C195 -239 229 -245 254 -245 C318 -245 374 -220 380 -149 C384 -100 348 -64 295 -64 C288 -64 281 -65 276 -66 L296 -13 C395 -5 453 42 482 123 C489 142 483 150 465 157 L465 157 Z " />
<glyph glyph-name="egrave" unicode="&#xe8;" horiz-adv-x="534" d="M182 722 L162 698 C150 684 150 677 165 671 L341 587 C356 582 364 580 371 589 L382 603 C393 616 393 622 381 629 L226 724 C210 733 194 738 182 722 L182 722 Z M44 317 L44 193 C44 71 110 -15 266 -15 C381 -15 446 27 481 88 C492 105 490 118 472 127 L445 141 C427 151 418 149 406 132 C381 90 338 63 267 63 C179 63 133 107 133 183 L133 231 L459 231 C487 231 496 245 496 266 L496 324 C496 442 424 531 270 531 C122 531 44 452 44 317 L44 317 Z M407 329 L407 300 L133 300 L133 329 C133 407 180 455 270 455 C361 455 407 407 407 329 L407 329 Z " />
<glyph glyph-name="eacute" unicode="&#xe9;" horiz-adv-x="534" d="M317 724 L162 629 C149 622 150 616 160 603 L172 589 C178 580 187 582 202 587 L377 671 C393 677 392 684 381 698 L361 722 C348 738 333 733 317 724 L317 724 Z M44 317 L44 193 C44 71 110 -15 266 -15 C381 -15 446 27 481 88 C492 105 490 118 472 127 L445 141 C427 151 418 149 406 132 C381 90 338 63 267 63 C179 63 133 107 133 183 L133 231 L459 231 C487 231 496 245 496 266 L496 324 C496 442 424 531 270 531 C122 531 44 452 44 317 L44 317 Z M407 329 L407 300 L133 300 L133 329 C133 407 180 455 270 455 C361 455 407 407 407 329 L407 329 Z " />
<glyph glyph-name="ecircumflex" unicode="&#xea;" horiz-adv-x="534" d="M277 721 L267 721 C245 721 241 719 222 700 L111 599 C102 589 102 580 122 580 L155 580 C174 580 179 581 191 593 L270 663 L346 593 C357 582 365 580 384 580 L419 580 C439 580 439 589 430 599 L320 700 C300 720 295 721 277 721 L277 721 Z M44 317 L44 193 C44 71 110 -15 266 -15 C381 -15 446 27 481 88 C492 105 490 118 472 127 L445 141 C427 151 418 149 406 132 C381 90 338 63 267 63 C179 63 133 107 133 183 L133 231 L459 231 C487 231 496 245 496 266 L496 324 C496 442 424 531 270 531 C122 531 44 452 44 317 L44 317 Z M407 329 L407 300 L133 300 L133 329 C133 407 180 455 270 455 C361 455 407 407 407 329 L407 329 Z " />
<glyph glyph-name="edieresis" unicode="&#xeb;" horiz-adv-x="534" d="M175 697 L168 697 C137 697 127 687 127 656 L127 648 C127 616 137 606 168 606 L175 606 C207 606 217 616 217 648 L217 656 C217 687 207 697 175 697 L175 697 Z M372 697 L365 697 C333 697 323 687 323 656 L323 648 C323 616 333 606 365 606 L372 606 C403 606 413 616 413 648 L413 656 C413 687 403 697 372 697 L372 697 Z M44 317 L44 193 C44 71 110 -15 266 -15 C381 -15 446 27 481 88 C492 105 490 118 472 127 L445 141 C427 151 418 149 406 132 C381 90 338 63 267 63 C179 63 133 107 133 183 L133 231 L459 231 C487 231 496 245 496 266 L496 324 C496 442 424 531 270 531 C122 531 44 452 44 317 L44 317 Z M407 329 L407 300 L133 300 L133 329 C133 407 180 455 270 455 C361 455 407 407 407 329 L407 329 Z " />
<glyph glyph-name="igrave" unicode="&#xec;" horiz-adv-x="213" d="M34 720 L14 696 C3 681 2 675 18 668 L165 587 C180 581 189 580 196 588 L207 603 C217 616 217 621 205 629 L78 722 C62 732 47 735 34 720 L34 720 Z M128 516 L86 516 C68 516 62 510 62 492 L62 24 C62 6 68 0 86 0 L128 0 C146 0 152 6 152 24 L152 492 C152 510 146 516 128 516 L128 516 Z " />
<glyph glyph-name="iacute" unicode="&#xed;" horiz-adv-x="213" d="M139 722 L12 628 C0 621 -1 615 10 602 L21 588 C27 579 36 581 51 587 L199 668 C215 675 214 681 202 696 L183 720 C170 735 154 732 139 722 L139 722 Z M128 516 L86 516 C68 516 62 510 62 492 L62 24 C62 6 68 0 86 0 L128 0 C145 0 151 6 151 24 L151 492 C151 510 145 516 128 516 L128 516 Z " />
<glyph glyph-name="icircumflex" unicode="&#xee;" horiz-adv-x="213" d="M242 603 L155 701 C138 722 131 722 113 722 L103 722 C82 722 75 722 58 701 L-29 603 C-37 593 -37 584 -17 584 L13 584 C32 584 40 583 49 597 L106 664 L161 597 C169 584 179 584 199 584 L230 584 C251 584 251 593 242 603 L242 603 Z M128 516 L86 516 C68 516 62 510 62 492 L62 24 C62 6 68 0 86 0 L128 0 C145 0 151 6 151 24 L151 492 C151 510 145 516 128 516 L128 516 Z " />
<glyph glyph-name="idieresis" unicode="&#xef;" horiz-adv-x="213" d="M30 705 L23 705 C-8 705 -18 694 -18 663 L-18 655 C-18 624 -8 614 23 614 L30 614 C62 614 72 624 72 655 L72 663 C72 694 62 705 30 705 L30 705 Z M190 705 L184 705 C152 705 142 694 142 663 L142 655 C142 624 152 614 184 614 L190 614 C222 614 232 624 232 655 L232 663 C232 694 222 705 190 705 L190 705 Z M128 516 L86 516 C68 516 62 510 62 492 L62 24 C62 6 68 0 86 0 L128 0 C145 0 151 6 151 24 L151 492 C151 510 145 516 128 516 L128 516 Z " />
<glyph glyph-name="eth" unicode="&#xf0;" horiz-adv-x="552" d="M405 747 L361 699 C308 728 237 742 145 742 C127 742 122 736 122 718 L122 683 C123 666 128 660 148 660 C214 660 265 650 303 630 L253 576 C246 568 246 564 254 557 L276 542 C285 535 288 535 295 543 L350 602 C390 565 408 510 410 437 C385 480 336 505 252 505 C124 505 45 429 45 306 L45 183 C45 60 121 -15 270 -15 C418 -15 495 60 495 183 L495 398 C495 522 470 611 408 668 L449 711 C456 719 457 723 448 730 L423 748 C415 755 412 755 405 747 L405 747 Z M405 307 L405 184 C405 109 359 66 270 66 C181 66 135 109 135 184 L135 306 C135 381 181 424 270 424 C359 424 405 382 405 307 L405 307 Z " />
<glyph glyph-name="ntilde" unicode="&#xf1;" horiz-adv-x="551" d="M411 714 L386 714 C374 714 371 709 371 699 C371 669 361 652 339 652 C291 652 269 714 198 714 C146 714 118 684 118 609 C118 599 122 594 133 594 L159 594 C170 594 174 599 174 609 C174 640 185 657 206 657 C255 657 279 594 345 594 C401 594 426 626 426 699 C426 709 423 714 411 714 L411 714 Z M99 497 C68 484 61 472 61 441 L61 24 C61 6 67 0 84 0 L126 0 C144 0 150 6 150 24 L150 413 C150 421 152 427 162 431 C190 440 229 449 278 449 C364 449 403 409 403 330 L403 24 C403 6 409 0 427 0 L469 0 C487 0 493 6 493 24 L493 333 C493 457 430 531 290 531 C197 531 138 513 99 497 L99 497 Z " />
<glyph glyph-name="ograve" unicode="&#xf2;" horiz-adv-x="541" d="M182 722 L162 698 C150 684 150 677 165 671 L341 587 C356 581 364 580 371 588 L383 603 C393 616 393 622 381 629 L226 724 C210 732 195 737 182 722 L182 722 Z M46 339 L46 176 C46 58 129 -15 270 -15 C414 -15 495 58 495 176 L495 339 C495 458 414 531 270 531 C129 531 46 458 46 339 L46 339 Z M406 340 L406 176 C406 107 355 66 270 66 C186 66 135 107 135 176 L135 340 C135 409 186 450 270 450 C355 450 406 409 406 340 L406 340 Z " />
<glyph glyph-name="oacute" unicode="&#xf3;" horiz-adv-x="541" d="M317 724 L162 629 C150 622 150 616 160 603 L172 588 C179 580 187 581 202 587 L377 671 C393 677 393 684 381 698 L361 722 C348 737 333 732 317 724 L317 724 Z M46 339 L46 176 C46 58 129 -15 270 -15 C414 -15 495 58 495 176 L495 339 C495 458 414 531 270 531 C129 531 46 458 46 339 L46 339 Z M406 340 L406 176 C406 107 355 66 270 66 C186 66 135 107 135 176 L135 340 C135 409 186 450 270 450 C355 450 406 409 406 340 L406 340 Z " />
<glyph glyph-name="ocircumflex" unicode="&#xf4;" horiz-adv-x="541" d="M277 720 L267 720 C245 720 241 719 222 700 L111 599 C102 589 103 580 123 580 L155 580 C174 580 179 581 191 593 L270 662 L346 593 C357 581 365 580 384 580 L419 580 C439 580 439 589 430 599 L320 700 C300 720 295 720 277 720 L277 720 Z M46 339 L46 176 C46 58 129 -15 270 -15 C414 -15 495 58 495 176 L495 339 C495 458 414 531 270 531 C129 531 46 458 46 339 L46 339 Z M406 340 L406 176 C406 107 355 66 270 66 C186 66 135 107 135 176 L135 340 C135 409 186 450 270 450 C355 450 406 409 406 340 L406 340 Z " />
<glyph glyph-name="otilde" unicode="&#xf5;" horiz-adv-x="541" d="M405 714 L380 714 C368 714 366 709 366 699 C366 668 355 651 333 651 C286 651 263 714 193 714 C141 714 113 683 113 609 C113 598 117 594 128 594 L154 594 C164 594 168 598 168 609 C168 640 180 656 201 656 C249 656 273 594 339 594 C395 594 420 625 420 699 C420 709 417 714 405 714 L405 714 Z M46 339 L46 176 C46 58 129 -15 270 -15 C414 -15 495 58 495 176 L495 339 C495 458 414 531 270 531 C129 531 46 458 46 339 L46 339 Z M406 340 L406 176 C406 107 355 66 270 66 C186 66 135 107 135 176 L135 340 C135 409 186 450 270 450 C355 450 406 409 406 340 L406 340 Z " />
<glyph glyph-name="odieresis" unicode="&#xf6;" horiz-adv-x="541" d="M175 697 L168 697 C137 697 127 687 127 656 L127 647 C127 616 137 606 168 606 L175 606 C207 606 217 616 217 647 L217 656 C217 687 207 697 175 697 L175 697 Z M372 697 L365 697 C333 697 323 687 323 656 L323 647 C323 616 333 606 365 606 L372 606 C403 606 413 616 413 647 L413 656 C413 687 403 697 372 697 L372 697 Z M46 339 L46 176 C46 58 129 -15 270 -15 C414 -15 495 58 495 176 L495 339 C495 458 414 531 270 531 C129 531 46 458 46 339 L46 339 Z M406 340 L406 176 C406 107 355 66 270 66 C186 66 135 107 135 176 L135 340 C135 409 186 450 270 450 C355 450 406 409 406 340 L406 340 Z " />
<glyph glyph-name="divide" unicode="&#xf7;" horiz-adv-x="566" d="M286 570 L280 570 C242 570 229 558 229 520 L229 512 C229 473 242 461 280 461 L286 461 C325 461 337 474 337 512 L337 520 C337 558 325 570 286 570 L286 570 Z M493 368 L74 368 C54 368 48 362 48 342 L48 308 C48 288 54 282 74 282 L493 282 C512 282 519 288 519 308 L519 342 C519 362 512 368 493 368 L493 368 Z M286 190 L280 190 C242 190 229 177 229 139 L229 131 C229 92 242 81 280 81 L286 81 C325 81 337 93 337 131 L337 139 C337 177 325 190 286 190 L286 190 Z " />
<glyph glyph-name="oslash" unicode="&#xf8;" horiz-adv-x="541" d="M476 552 L440 552 C431 552 429 551 424 544 L398 504 C364 522 321 531 270 531 C129 531 46 458 46 339 L46 176 C46 118 66 71 103 39 L62 -26 C58 -31 60 -35 66 -35 L101 -35 C113 -35 114 -34 119 -27 L144 12 C178 -5 221 -15 270 -15 C414 -15 495 58 495 176 L495 339 C495 397 475 445 439 478 L480 543 C483 549 483 552 476 552 L476 552 Z M352 431 L157 123 C143 137 135 155 135 176 L135 340 C135 409 186 450 270 450 C303 450 330 443 352 431 L352 431 Z M189 85 L385 393 C398 380 406 361 406 340 L406 176 C406 107 355 66 270 66 C238 66 211 73 189 85 L189 85 Z " />
<glyph glyph-name="ugrave" unicode="&#xf9;" horiz-adv-x="551" d="M186 722 L166 698 C154 684 154 677 169 671 L345 587 C360 581 368 580 375 588 L387 603 C397 616 397 622 385 629 L230 724 C214 732 199 737 186 722 L186 722 Z M466 516 L425 516 C407 516 401 510 401 492 L401 107 C401 97 399 90 386 84 C357 75 322 67 273 67 C187 67 147 107 147 186 L147 492 C147 510 141 516 124 516 L82 516 C64 516 58 510 58 492 L58 183 C58 59 121 -15 261 -15 C354 -15 412 4 452 19 C483 32 490 44 490 75 L490 492 C490 510 484 516 466 516 L466 516 Z " />
<glyph glyph-name="uacute" unicode="&#xfa;" horiz-adv-x="551" d="M321 724 L166 629 C154 622 154 616 164 603 L176 588 C183 580 191 581 206 587 L381 671 C397 677 397 684 385 698 L365 722 C352 737 337 732 321 724 L321 724 Z M466 516 L425 516 C407 516 401 510 401 492 L401 107 C401 97 399 90 386 84 C357 75 322 67 273 67 C187 67 147 107 147 186 L147 492 C147 510 141 516 124 516 L82 516 C64 516 58 510 58 492 L58 183 C58 59 121 -15 261 -15 C354 -15 412 4 452 19 C483 32 490 44 490 75 L490 492 C490 510 484 516 466 516 L466 516 Z " />
<glyph glyph-name="ucircumflex" unicode="&#xfb;" horiz-adv-x="551" d="M281 725 L271 725 C249 725 245 724 225 704 L112 601 C102 591 103 581 123 581 L157 581 C176 581 181 582 194 595 L274 666 L352 595 C363 583 371 581 391 581 L426 581 C447 581 447 591 438 601 L325 704 C305 724 300 725 281 725 L281 725 Z M466 516 L425 516 C407 516 401 510 401 492 L401 107 C401 97 399 90 386 84 C357 75 322 67 273 67 C187 67 147 107 147 186 L147 492 C147 510 141 516 124 516 L82 516 C64 516 58 510 58 492 L58 183 C58 59 121 -15 261 -15 C354 -15 412 4 452 19 C483 32 490 44 490 75 L490 492 C490 510 484 516 466 516 L466 516 Z " />
<glyph glyph-name="udieresis" unicode="&#xfc;" horiz-adv-x="551" d="M179 697 L172 697 C141 697 131 687 131 656 L131 647 C131 616 141 606 172 606 L179 606 C211 606 221 616 221 647 L221 656 C221 687 211 697 179 697 L179 697 Z M376 697 L369 697 C337 697 327 687 327 656 L327 647 C327 616 337 606 369 606 L376 606 C407 606 417 616 417 647 L417 656 C417 687 407 697 376 697 L376 697 Z M466 516 L425 516 C407 516 401 510 401 492 L401 107 C401 97 399 90 386 84 C357 75 322 67 273 67 C187 67 147 107 147 186 L147 492 C147 510 141 516 124 516 L82 516 C64 516 58 510 58 492 L58 183 C58 59 121 -15 261 -15 C354 -15 412 4 452 19 C483 32 490 44 490 75 L490 492 C490 510 484 516 466 516 L466 516 Z " />
<glyph glyph-name="yacute" unicode="&#xfd;" horiz-adv-x="553" d="M321 724 L166 629 C154 622 154 616 164 603 L176 588 C183 580 191 581 206 587 L381 671 C397 677 397 684 385 698 L365 722 C352 737 337 732 321 724 L321 724 Z M466 516 L425 516 C407 516 401 510 401 492 L401 107 C372 98 329 86 273 86 C187 86 147 126 147 205 L147 492 C147 510 141 516 124 516 L82 516 C64 516 58 510 58 492 L58 202 C58 77 121 4 261 4 C324 4 368 16 401 25 L401 -29 C401 -113 360 -161 273 -161 C207 -161 173 -135 149 -94 C137 -78 129 -75 110 -85 L81 -101 C63 -110 60 -122 71 -139 C106 -201 167 -241 274 -241 C429 -241 490 -155 490 -25 L490 492 C490 510 484 516 466 516 L466 516 Z " />
<glyph glyph-name="thorn" unicode="&#xfe;" horiz-adv-x="541" d="M63 716 L63 -196 C63 -214 69 -220 87 -220 L129 -220 C146 -220 152 -214 152 -196 L152 12 C178 3 226 -15 282 -15 C427 -15 495 58 495 189 L495 326 C495 454 429 527 286 527 C225 527 179 514 152 506 L152 716 C152 733 146 739 129 739 L87 739 C69 739 63 733 63 716 L63 716 Z M406 324 L406 191 C406 109 365 67 276 67 C222 67 176 84 152 92 L152 422 C176 430 218 446 274 446 C361 446 406 404 406 324 L406 324 Z " />
<glyph glyph-name="ydieresis" unicode="&#xff;" horiz-adv-x="553" d="M179 697 L172 697 C141 697 131 687 131 656 L131 647 C131 616 141 606 172 606 L179 606 C211 606 221 616 221 647 L221 656 C221 687 211 697 179 697 L179 697 Z M376 697 L369 697 C337 697 327 687 327 656 L327 647 C327 616 337 606 369 606 L376 606 C407 606 417 616 417 647 L417 656 C417 687 407 697 376 697 L376 697 Z M466 516 L425 516 C407 516 401 510 401 492 L401 107 C372 98 329 86 273 86 C187 86 147 126 147 205 L147 492 C147 510 141 516 124 516 L82 516 C64 516 58 510 58 492 L58 202 C58 77 121 4 261 4 C324 4 368 16 401 25 L401 -29 C401 -113 360 -161 273 -161 C207 -161 173 -135 149 -94 C137 -78 129 -75 110 -85 L81 -101 C63 -110 60 -122 71 -139 C106 -201 167 -241 274 -241 C429 -241 490 -155 490 -25 L490 492 C490 510 484 516 466 516 L466 516 Z " />
<glyph glyph-name="Amacron" unicode="&#x100;" horiz-adv-x="649" d="M441 859 L207 859 C191 859 185 854 185 837 L185 817 C185 799 189 794 207 794 L441 794 C459 794 463 799 463 817 L463 837 C463 854 459 859 441 859 L441 859 Z M637 26 L377 691 C371 708 363 712 344 712 L304 712 C285 712 277 708 271 690 L11 26 C5 9 9 0 29 0 L64 0 C96 0 105 5 112 23 L174 186 L470 186 L532 23 C538 5 547 0 580 0 L619 0 C639 0 643 9 637 26 L637 26 Z M343 528 L443 265 L201 265 L302 529 C318 575 318 620 319 622 L325 622 C325 620 327 575 343 528 L343 528 Z " />
<glyph glyph-name="amacron" unicode="&#x101;" horiz-adv-x="516" d="M371 682 L137 682 C121 682 114 677 114 659 L114 639 C114 621 119 617 137 617 L371 617 C389 617 393 621 393 639 L393 659 C393 677 389 682 371 682 L371 682 Z M52 426 C43 408 48 399 65 392 L96 378 C114 371 118 374 129 390 C153 430 193 451 253 451 C347 451 372 403 372 332 L372 294 C355 296 307 301 258 301 C99 301 35 261 35 144 C35 42 78 -15 254 -15 C332 -15 389 -5 426 11 C454 23 462 33 462 68 L462 329 C462 442 417 531 255 531 C153 531 86 492 52 426 L52 426 Z M372 220 L372 94 C372 80 369 77 357 72 C334 64 300 60 246 60 C146 60 125 92 125 144 C125 201 154 228 248 228 C297 228 352 222 372 220 L372 220 Z " />
<glyph glyph-name="Abreve" unicode="&#x102;" horiz-adv-x="649" d="M478 867 C482 880 479 884 467 890 L431 902 C420 906 416 904 411 893 C398 849 368 827 324 827 C280 827 250 849 238 893 C233 904 227 906 213 902 L182 890 C170 885 168 880 172 867 C193 799 247 762 324 762 C402 762 455 799 478 867 L478 867 Z M637 26 L377 691 C371 708 363 712 344 712 L304 712 C285 712 277 708 271 690 L11 26 C5 9 9 0 29 0 L64 0 C96 0 105 5 112 23 L174 186 L470 186 L532 23 C538 5 547 0 580 0 L619 0 C639 0 643 9 637 26 L637 26 Z M343 528 L443 265 L201 265 L302 529 C318 575 318 620 319 622 L325 622 C325 620 327 575 343 528 L343 528 Z " />
<glyph glyph-name="abreve" unicode="&#x103;" horiz-adv-x="516" d="M408 689 C412 702 409 706 397 712 L361 724 C350 728 346 726 341 715 C328 671 298 649 254 649 C210 649 180 671 168 715 C163 726 157 728 143 724 L112 712 C100 707 98 702 102 689 C123 620 177 584 254 584 C332 584 385 620 408 689 L408 689 Z M52 426 C43 408 48 399 65 392 L96 378 C114 371 118 374 129 390 C153 430 193 451 253 451 C347 451 372 403 372 332 L372 294 C355 296 307 301 258 301 C99 301 35 261 35 144 C35 42 78 -15 254 -15 C332 -15 389 -5 426 11 C454 23 462 33 462 68 L462 329 C462 442 417 531 255 531 C153 531 86 492 52 426 L52 426 Z M372 220 L372 94 C372 80 369 77 357 72 C334 64 300 60 246 60 C146 60 125 92 125 144 C125 201 154 228 248 228 C297 228 352 222 372 220 L372 220 Z " />
<glyph glyph-name="Aogonek" unicode="&#x104;" horiz-adv-x="648" d="M345 712 L304 712 C286 712 278 708 271 690 L12 26 C5 9 10 0 29 0 L65 0 C97 0 106 5 112 23 L176 189 L469 189 L531 26 C537 10 542 4 567 2 C491 -64 461 -138 474 -191 C483 -230 518 -246 556 -246 C589 -246 624 -234 649 -211 C653 -206 654 -201 650 -193 L639 -167 C637 -160 631 -159 624 -163 C613 -174 597 -180 583 -180 C569 -180 556 -170 551 -155 C541 -125 571 -57 635 1 C642 8 641 14 637 25 L378 691 C372 708 363 712 345 712 L345 712 Z M372 459 L442 269 L204 269 L274 459 C300 529 310 597 320 621 L326 621 C336 597 347 529 372 459 L372 459 Z " />
<glyph glyph-name="aogonek" unicode="&#x105;" horiz-adv-x="518" d="M52 426 C43 408 48 399 65 392 L96 378 C114 371 118 374 129 390 C153 430 193 451 253 451 C347 451 372 403 372 332 L372 294 C355 296 307 301 258 301 C99 301 35 261 35 144 C35 42 78 -15 254 -15 C299 -15 335 -11 366 -4 C303 -67 275 -142 287 -191 C296 -232 331 -246 370 -246 C404 -246 437 -234 462 -210 C466 -206 466 -201 463 -193 L452 -167 C450 -160 444 -158 437 -163 C426 -174 411 -179 397 -179 C383 -179 369 -171 364 -155 C354 -124 378 -53 450 26 C458 35 462 47 462 68 L462 329 C462 442 417 531 255 531 C153 531 86 492 52 426 L52 426 Z M372 220 L372 94 C372 80 369 77 357 72 C334 64 300 60 246 60 C146 60 125 92 125 144 C125 201 154 228 248 228 C297 228 352 222 372 220 L372 220 Z " />
<glyph glyph-name="Cacute" unicode="&#x106;" horiz-adv-x="638" d="M384 900 L228 805 C216 798 216 793 227 780 L238 765 C245 756 254 758 269 764 L444 847 C460 854 459 861 447 875 L428 899 C415 914 399 909 384 900 L384 900 Z M53 469 L53 241 C53 83 153 -15 333 -15 C485 -15 567 47 603 157 C610 176 605 185 586 191 L545 206 C526 213 518 209 511 189 C486 114 435 75 333 75 C215 75 150 136 150 240 L150 470 C150 575 214 635 333 635 C433 635 485 598 510 523 C517 504 525 501 544 507 L585 521 C604 528 608 536 602 555 C566 665 483 725 333 725 C152 725 53 627 53 469 L53 469 Z " />
<glyph glyph-name="cacute" unicode="&#x107;" horiz-adv-x="516" d="M316 724 L161 629 C148 622 149 616 159 603 L171 588 C177 580 186 581 201 587 L376 671 C392 677 391 684 380 698 L360 722 C347 737 332 732 316 724 L316 724 Z M45 330 L45 187 C45 62 115 -15 263 -15 C382 -15 450 34 482 123 C489 142 483 150 465 157 L430 167 C411 173 404 170 396 151 C378 95 337 64 265 64 C179 64 135 109 135 183 L135 334 C135 408 178 452 265 452 C339 452 377 423 395 368 C402 350 411 344 429 352 L464 363 C481 369 487 378 480 397 C455 476 390 531 269 531 C117 531 45 454 45 330 L45 330 Z " />
<glyph glyph-name="Ccircumflex" unicode="&#x108;" horiz-adv-x="638" d="M344 905 L334 905 C311 905 307 904 288 884 L174 781 C165 770 166 761 186 761 L219 761 C239 761 244 762 256 775 L337 846 L415 775 C426 763 434 761 454 761 L489 761 C509 761 510 770 500 781 L388 884 C367 904 362 905 344 905 L344 905 Z M53 469 L53 241 C53 83 153 -15 333 -15 C485 -15 567 47 603 157 C610 176 605 185 586 191 L545 206 C526 213 518 209 511 189 C486 114 435 75 333 75 C215 75 150 136 150 240 L150 470 C150 575 214 635 333 635 C433 635 485 598 510 523 C517 504 525 501 544 507 L585 521 C604 528 608 536 602 555 C566 665 483 725 333 725 C152 725 53 627 53 469 L53 469 Z " />
<glyph glyph-name="ccircumflex" unicode="&#x109;" horiz-adv-x="516" d="M276 720 L266 720 C244 720 240 719 221 700 L110 599 C101 589 101 580 121 580 L154 580 C173 580 178 581 190 593 L269 662 L345 593 C356 581 364 580 383 580 L418 580 C438 580 438 589 429 599 L319 700 C299 720 294 720 276 720 L276 720 Z M45 330 L45 187 C45 62 115 -15 263 -15 C382 -15 450 34 482 123 C489 142 483 150 465 157 L430 167 C411 173 404 170 396 151 C378 95 337 64 265 64 C179 64 135 109 135 183 L135 334 C135 408 178 452 265 452 C339 452 377 423 395 368 C402 350 411 344 429 352 L464 363 C481 369 487 378 480 397 C455 476 390 531 269 531 C117 531 45 454 45 330 L45 330 Z " />
<glyph glyph-name="Cdotaccent" unicode="&#x10a;" horiz-adv-x="638" d="M339 874 L334 874 C301 874 291 864 291 831 L291 824 C291 791 301 781 334 781 L339 781 C372 781 382 791 382 824 L382 831 C382 864 372 874 339 874 L339 874 Z M53 469 L53 241 C53 83 153 -15 333 -15 C485 -15 567 47 603 157 C610 176 605 185 586 191 L545 206 C526 213 518 209 511 189 C486 114 435 75 333 75 C215 75 150 136 150 240 L150 470 C150 575 214 635 333 635 C433 635 485 598 510 523 C517 504 525 501 544 507 L585 521 C604 528 608 536 602 555 C566 665 483 725 333 725 C152 725 53 627 53 469 L53 469 Z " />
<glyph glyph-name="cdotaccent" unicode="&#x10b;" horiz-adv-x="516" d="M272 696 L266 696 C233 696 223 686 223 653 L223 646 C223 613 233 603 266 603 L272 603 C305 603 314 613 314 646 L314 653 C314 686 305 696 272 696 L272 696 Z M45 330 L45 187 C45 62 115 -15 263 -15 C382 -15 450 34 482 123 C489 142 483 150 465 157 L430 167 C411 173 404 170 396 151 C378 95 337 64 265 64 C179 64 135 109 135 183 L135 334 C135 408 178 452 265 452 C339 452 377 423 395 368 C402 350 411 344 429 352 L464 363 C481 369 487 378 480 397 C455 476 390 531 269 531 C117 531 45 454 45 330 L45 330 Z " />
<glyph glyph-name="Ccaron" unicode="&#x10c;" horiz-adv-x="638" d="M486 904 L451 904 C431 904 423 902 412 890 L334 819 L254 890 C241 903 236 904 217 904 L184 904 C163 904 163 894 172 884 L285 781 C305 761 309 760 332 760 L341 760 C360 760 365 761 385 781 L498 884 C507 894 507 904 486 904 L486 904 Z M53 469 L53 241 C53 83 153 -15 333 -15 C485 -15 567 47 603 157 C610 176 605 185 586 191 L545 206 C526 213 518 209 511 189 C486 114 435 75 333 75 C215 75 150 136 150 240 L150 470 C150 575 214 635 333 635 C433 635 485 598 510 523 C517 504 525 501 544 507 L585 521 C604 528 608 536 602 555 C566 665 483 725 333 725 C152 725 53 627 53 469 L53 469 Z " />
<glyph glyph-name="ccaron" unicode="&#x10d;" horiz-adv-x="516" d="M406 708 L374 708 C356 708 349 707 338 696 L267 630 L193 696 C182 707 177 708 159 708 L128 708 C110 708 109 700 118 690 L222 595 C240 576 244 575 264 575 L273 575 C290 575 295 576 313 595 L416 690 C425 699 425 708 406 708 L406 708 Z M45 330 L45 187 C45 62 115 -15 263 -15 C382 -15 450 34 482 123 C489 142 483 150 465 157 L430 167 C411 173 404 170 396 151 C378 95 337 64 265 64 C179 64 135 109 135 183 L135 334 C135 408 178 452 265 452 C339 452 377 423 395 368 C402 350 411 344 429 352 L464 363 C481 369 487 378 480 397 C455 476 390 531 269 531 C117 531 45 454 45 330 L45 330 Z " />
<glyph glyph-name="Dcaron" unicode="&#x10e;" horiz-adv-x="659" d="M462 904 L427 904 C407 904 399 902 388 890 L310 819 L229 890 C217 903 212 904 192 904 L159 904 C139 904 138 894 148 884 L261 781 C280 761 285 760 307 760 L317 760 C335 760 340 761 361 781 L473 884 C483 894 482 904 462 904 L462 904 Z M318 710 L100 710 C81 710 74 703 74 684 L74 26 C74 7 81 0 100 0 L318 0 C504 0 608 101 608 264 L608 446 C608 609 504 710 318 710 L318 710 Z M511 447 L511 263 C511 153 442 90 318 90 L171 90 L171 620 L318 620 C443 620 511 557 511 447 L511 447 Z " />
<glyph glyph-name="dcaron" unicode="&#x10f;" horiz-adv-x="589" d="M46 327 L46 186 C46 58 113 -15 260 -15 C345 -15 400 1 439 16 C471 29 478 38 478 71 L478 716 C478 734 472 740 455 740 L413 740 C395 740 389 734 389 716 L389 509 C363 516 311 531 249 531 C113 531 46 457 46 327 L46 327 Z M608 531 L659 716 C665 732 659 740 638 740 L604 740 C585 740 579 735 576 716 L544 526 C543 512 545 509 559 509 L583 509 C599 509 603 515 608 531 L608 531 Z M389 427 L389 102 C389 91 388 88 375 83 C349 74 312 67 268 67 C180 67 136 109 136 189 L136 324 C136 406 176 449 266 449 C322 449 366 434 389 427 L389 427 Z " />
<glyph glyph-name="Dcroat" unicode="&#x110;" horiz-adv-x="672" d="M331 710 L113 710 C94 710 87 703 87 684 L87 395 L20 395 C9 395 4 391 4 378 L4 349 C4 335 8 332 20 332 L87 332 L87 26 C87 7 94 0 113 0 L331 0 C517 0 621 101 621 264 L621 446 C621 609 517 710 331 710 L331 710 Z M524 447 L524 263 C524 153 455 90 331 90 L184 90 L184 332 L338 332 C351 332 354 335 354 349 L354 378 C354 391 351 395 338 395 L184 395 L184 620 L331 620 C456 620 524 557 524 447 L524 447 Z " />
<glyph glyph-name="dcroat" unicode="&#x111;" horiz-adv-x="540" d="M540 660 L479 660 L479 716 C479 734 473 740 455 740 L414 740 C396 740 390 734 390 716 L390 660 L252 660 C240 660 235 656 235 643 L235 621 C235 607 239 604 252 604 L390 604 L390 509 C363 516 312 530 250 530 C114 530 47 457 47 327 L47 186 C47 58 114 -15 260 -15 C346 -15 401 1 440 16 C472 29 479 38 479 71 L479 604 L540 604 C553 604 556 607 556 621 L556 643 C556 656 553 660 540 660 L540 660 Z M390 427 L390 102 C390 91 389 88 376 83 C349 74 312 67 268 67 C181 67 136 109 136 189 L136 324 C136 406 177 449 266 449 C322 449 367 434 390 427 L390 427 Z " />
<glyph glyph-name="Emacron" unicode="&#x112;" horiz-adv-x="576" d="M419 859 L185 859 C169 859 162 854 162 837 L162 817 C162 799 167 794 185 794 L419 794 C436 794 441 799 441 817 L441 837 C441 854 436 859 419 859 L419 859 Z M502 710 L100 710 C81 710 74 703 74 684 L74 26 C74 7 81 0 100 0 L514 0 C534 0 540 7 540 26 L540 64 C540 83 534 90 514 90 L171 90 L171 315 L456 315 C476 315 482 321 482 341 L482 378 C482 398 476 405 456 405 L171 405 L171 620 L502 620 C522 620 528 627 528 646 L528 684 C528 703 522 710 502 710 L502 710 Z " />
<glyph glyph-name="emacron" unicode="&#x113;" horiz-adv-x="534" d="M377 675 L163 675 C148 675 142 671 142 654 L142 635 C142 618 146 613 163 613 L377 613 C394 613 398 618 398 635 L398 654 C398 671 394 675 377 675 L377 675 Z M44 317 L44 193 C44 71 110 -15 266 -15 C381 -15 446 27 481 88 C492 105 490 118 472 127 L445 141 C427 151 418 149 406 132 C381 90 338 63 267 63 C179 63 133 107 133 183 L133 231 L459 231 C487 231 496 245 496 266 L496 324 C496 442 424 531 270 531 C122 531 44 452 44 317 L44 317 Z M407 329 L407 300 L133 300 L133 329 C133 407 180 455 270 455 C361 455 407 407 407 329 L407 329 Z " />
<glyph glyph-name="Ebreve" unicode="&#x114;" horiz-adv-x="576" d="M455 867 C459 880 457 884 445 890 L409 902 C398 906 393 904 389 893 C375 849 346 827 302 827 C257 827 228 849 215 893 C211 904 205 906 191 902 L160 890 C148 885 145 880 149 867 C171 799 225 762 302 762 C379 762 433 799 455 867 L455 867 Z M502 710 L100 710 C81 710 74 703 74 684 L74 26 C74 7 81 0 100 0 L514 0 C534 0 540 7 540 26 L540 64 C540 83 534 90 514 90 L171 90 L171 315 L456 315 C476 315 482 321 482 341 L482 378 C482 398 476 405 456 405 L171 405 L171 620 L502 620 C522 620 528 627 528 646 L528 684 C528 703 522 710 502 710 L502 710 Z " />
<glyph glyph-name="ebreve" unicode="&#x115;" horiz-adv-x="534" d="M424 690 C428 702 425 707 413 712 L377 725 C366 728 362 726 357 715 C344 671 314 649 270 649 C226 649 196 671 184 715 C179 726 173 728 159 724 L128 712 C116 707 114 702 118 690 C139 621 193 584 270 584 C348 584 401 621 424 690 L424 690 Z M44 317 L44 193 C44 71 110 -15 266 -15 C381 -15 446 27 481 88 C492 105 490 118 472 127 L445 141 C427 151 418 149 406 132 C381 90 338 63 267 63 C179 63 133 107 133 183 L133 231 L459 231 C487 231 496 245 496 266 L496 324 C496 442 424 531 270 531 C122 531 44 452 44 317 L44 317 Z M407 329 L407 300 L133 300 L133 329 C133 407 180 455 270 455 C361 455 407 407 407 329 L407 329 Z " />
<glyph glyph-name="Edotaccent" unicode="&#x116;" horiz-adv-x="576" d="M304 874 L299 874 C266 874 256 864 256 831 L256 824 C256 791 266 781 299 781 L304 781 C337 781 347 791 347 824 L347 831 C347 864 337 874 304 874 L304 874 Z M502 710 L100 710 C81 710 74 703 74 684 L74 26 C74 7 81 0 100 0 L514 0 C534 0 540 7 540 26 L540 64 C540 83 534 90 514 90 L171 90 L171 315 L456 315 C476 315 482 321 482 341 L482 378 C482 398 476 405 456 405 L171 405 L171 620 L502 620 C522 620 528 627 528 646 L528 684 C528 703 522 710 502 710 L502 710 Z " />
<glyph glyph-name="edotaccent" unicode="&#x117;" horiz-adv-x="534" d="M273 696 L267 696 C234 696 224 686 224 653 L224 647 C224 613 234 604 267 604 L273 604 C306 604 315 614 315 647 L315 653 C315 686 306 696 273 696 L273 696 Z M44 317 L44 193 C44 71 110 -15 266 -15 C381 -15 446 27 481 88 C492 105 490 118 472 127 L445 141 C427 151 418 149 406 132 C381 90 338 63 267 63 C179 63 133 107 133 183 L133 231 L459 231 C487 231 496 245 496 266 L496 324 C496 442 424 531 270 531 C122 531 44 452 44 317 L44 317 Z M407 329 L407 300 L133 300 L133 329 C133 407 180 455 270 455 C361 455 407 407 407 329 L407 329 Z " />
<glyph glyph-name="Eogonek" unicode="&#x118;" horiz-adv-x="576" d="M502 710 L100 710 C81 710 74 703 74 684 L74 26 C74 7 81 0 100 0 L463 0 C386 -62 350 -137 365 -189 C374 -224 405 -244 447 -244 C483 -244 512 -233 538 -208 C543 -204 543 -199 540 -191 L529 -165 C526 -158 520 -156 514 -161 C503 -171 490 -177 476 -177 C462 -177 448 -168 443 -153 C433 -124 457 -62 531 3 C537 9 540 14 540 26 L540 64 C540 83 534 90 514 90 L171 90 L171 314 L456 314 C476 314 482 321 482 341 L482 378 C482 398 476 404 456 404 L171 404 L171 620 L502 620 C522 620 528 627 528 646 L528 684 C528 703 522 710 502 710 L502 710 Z " />
<glyph glyph-name="eogonek" unicode="&#x119;" horiz-adv-x="534" d="M44 317 L44 193 C44 71 110 -15 266 -15 C302 -15 332 -10 358 -2 C297 -69 266 -141 279 -191 C288 -232 323 -246 361 -246 C396 -246 429 -234 453 -210 C458 -206 458 -201 455 -193 L444 -167 C441 -160 435 -158 429 -163 C418 -174 403 -180 389 -180 C375 -180 361 -171 356 -155 C346 -124 376 -37 449 45 C462 57 473 72 481 88 C492 105 490 118 472 127 L445 141 C427 151 418 149 406 132 C381 90 338 63 267 63 C179 63 133 107 133 183 L133 231 L459 231 C487 231 496 245 496 266 L496 324 C496 442 424 531 270 531 C122 531 44 452 44 317 L44 317 Z M407 329 L407 300 L133 300 L133 329 C133 407 180 455 270 455 C361 455 407 407 407 329 L407 329 Z " />
<glyph glyph-name="Ecaron" unicode="&#x11a;" horiz-adv-x="576" d="M451 904 L416 904 C396 904 389 902 378 890 L299 819 L219 890 C206 903 201 904 182 904 L149 904 C128 904 128 894 137 884 L250 781 C270 761 274 760 297 760 L306 760 C325 760 330 761 350 781 L463 884 C472 894 472 904 451 904 L451 904 Z M502 710 L100 710 C81 710 74 703 74 684 L74 26 C74 7 81 0 100 0 L514 0 C534 0 540 7 540 26 L540 64 C540 83 534 90 514 90 L171 90 L171 315 L456 315 C476 315 482 321 482 341 L482 378 C482 398 476 405 456 405 L171 405 L171 620 L502 620 C522 620 528 627 528 646 L528 684 C528 703 522 710 502 710 L502 710 Z " />
<glyph glyph-name="ecaron" unicode="&#x11b;" horiz-adv-x="534" d="M407 709 L375 709 C357 709 350 707 339 696 L268 630 L194 696 C183 708 178 709 160 709 L129 709 C111 709 110 700 119 691 L223 595 C241 577 245 576 265 576 L274 576 C291 576 296 576 314 595 L417 690 C426 700 426 709 407 709 L407 709 Z M44 317 L44 193 C44 71 110 -15 266 -15 C381 -15 446 27 481 88 C492 105 490 118 472 127 L445 141 C427 151 418 149 406 132 C381 90 338 63 267 63 C179 63 133 107 133 183 L133 231 L459 231 C487 231 496 245 496 266 L496 324 C496 442 424 531 270 531 C122 531 44 452 44 317 L44 317 Z M407 329 L407 300 L133 300 L133 329 C133 407 180 455 270 455 C361 455 407 407 407 329 L407 329 Z " />
<glyph glyph-name="Gcircumflex" unicode="&#x11c;" horiz-adv-x="658" d="M340 915 L330 915 C308 915 303 914 284 894 L171 791 C161 780 162 771 182 771 L215 771 C235 771 240 772 252 785 L333 856 L411 785 C422 773 430 771 450 771 L485 771 C506 771 506 780 497 791 L384 894 C364 914 359 915 340 915 L340 915 Z M586 378 L344 378 C324 378 318 371 318 352 L318 314 C318 294 324 288 344 288 L517 288 L517 223 C517 136 451 75 333 75 C215 75 150 136 150 241 L150 470 C150 575 213 635 333 635 C433 635 485 598 510 523 C517 504 525 500 544 507 L585 521 C604 528 608 536 602 555 C566 665 483 725 333 725 C152 725 53 627 53 469 L53 241 C53 83 152 -15 333 -15 C514 -15 613 83 613 223 L613 351 C613 371 606 378 586 378 L586 378 Z " />
<glyph glyph-name="gcircumflex" unicode="&#x11d;" horiz-adv-x="538" d="M283 720 L273 720 C251 720 247 719 228 700 L117 599 C108 589 108 580 128 580 L161 580 C180 580 185 581 197 593 L276 662 L352 593 C363 581 371 580 390 580 L424 580 C444 580 445 589 436 599 L325 700 C306 720 301 720 283 720 L283 720 Z M46 324 L46 201 C46 77 108 3 248 3 C309 3 360 19 388 28 L388 -29 C388 -113 348 -161 261 -161 C195 -161 162 -135 138 -94 C127 -78 118 -75 99 -85 L70 -101 C52 -110 49 -122 61 -139 C95 -201 155 -241 263 -241 C417 -241 478 -155 478 -25 L478 445 C478 478 472 486 440 500 C405 516 343 531 266 531 C116 531 46 458 46 324 L46 324 Z M374 434 C387 428 388 426 388 414 L388 107 C364 100 319 85 260 85 C177 85 135 127 135 203 L135 321 C135 407 178 449 272 449 C314 449 349 442 374 434 L374 434 Z " />
<glyph glyph-name="Gbreve" unicode="&#x11e;" horiz-adv-x="658" d="M487 877 C491 890 488 894 476 900 L440 912 C429 916 425 914 420 903 C407 859 377 837 333 837 C289 837 259 859 247 903 C242 914 236 916 222 912 L191 900 C179 895 177 890 181 877 C202 809 256 772 333 772 C411 772 464 809 487 877 L487 877 Z M586 378 L344 378 C324 378 318 371 318 352 L318 314 C318 294 324 288 344 288 L517 288 L517 223 C517 136 451 75 333 75 C215 75 150 136 150 241 L150 470 C150 575 213 635 333 635 C433 635 485 598 510 523 C517 504 525 500 544 507 L585 521 C604 528 608 536 602 555 C566 665 483 725 333 725 C152 725 53 627 53 469 L53 241 C53 83 152 -15 333 -15 C514 -15 613 83 613 223 L613 351 C613 371 606 378 586 378 L586 378 Z " />
<glyph glyph-name="gbreve" unicode="&#x11f;" horiz-adv-x="538" d="M429 689 C433 702 431 706 419 712 L383 724 C372 728 367 726 363 715 C349 671 320 649 276 649 C231 649 202 671 189 715 C185 726 179 728 165 724 L134 712 C122 707 119 702 123 689 C145 620 199 584 276 584 C353 584 407 620 429 689 L429 689 Z M46 324 L46 201 C46 77 108 3 248 3 C309 3 360 19 388 28 L388 -29 C388 -113 348 -161 261 -161 C195 -161 162 -135 138 -94 C127 -78 118 -75 99 -85 L70 -101 C52 -110 49 -122 61 -139 C95 -201 155 -241 263 -241 C417 -241 478 -155 478 -25 L478 445 C478 478 472 486 440 500 C405 516 343 531 266 531 C116 531 46 458 46 324 L46 324 Z M374 434 C387 428 388 426 388 414 L388 107 C364 100 319 85 260 85 C177 85 135 127 135 203 L135 321 C135 407 178 449 272 449 C314 449 349 442 374 434 L374 434 Z " />
<glyph glyph-name="Gdotaccent" unicode="&#x120;" horiz-adv-x="658" d="M336 884 L330 884 C297 884 287 874 287 841 L287 834 C287 801 297 791 330 791 L336 791 C369 791 378 801 378 834 L378 841 C378 874 369 884 336 884 L336 884 Z M586 378 L344 378 C324 378 318 371 318 352 L318 314 C318 294 324 288 344 288 L517 288 L517 223 C517 136 451 75 333 75 C215 75 150 136 150 241 L150 470 C150 575 213 635 333 635 C433 635 485 598 510 523 C517 504 525 500 544 507 L585 521 C604 528 608 536 602 555 C566 665 483 725 333 725 C152 725 53 627 53 469 L53 241 C53 83 152 -15 333 -15 C514 -15 613 83 613 223 L613 351 C613 371 606 378 586 378 L586 378 Z " />
<glyph glyph-name="gdotaccent" unicode="&#x121;" horiz-adv-x="538" d="M278 696 L273 696 C240 696 230 686 230 653 L230 646 C230 613 240 603 273 603 L278 603 C311 603 321 613 321 646 L321 653 C321 686 311 696 278 696 L278 696 Z M46 324 L46 201 C46 77 108 3 248 3 C309 3 360 19 388 28 L388 -29 C388 -113 348 -161 261 -161 C195 -161 162 -135 138 -94 C127 -78 118 -75 99 -85 L70 -101 C52 -110 49 -122 61 -139 C95 -201 155 -241 263 -241 C417 -241 478 -155 478 -25 L478 445 C478 478 472 486 440 500 C405 516 343 531 266 531 C116 531 46 458 46 324 L46 324 Z M374 434 C387 428 388 426 388 414 L388 107 C364 100 319 85 260 85 C177 85 135 127 135 203 L135 321 C135 407 178 449 272 449 C314 449 349 442 374 434 L374 434 Z " />
<glyph glyph-name="Gcommaaccent" unicode="&#x122;" horiz-adv-x="658" d="M586 378 L344 378 C324 378 318 371 318 352 L318 314 C318 294 324 288 344 288 L517 288 L517 223 C517 136 451 75 333 75 C215 75 150 136 150 241 L150 470 C150 575 213 635 333 635 C433 635 485 598 510 523 C517 504 525 500 544 507 L585 521 C604 528 608 536 602 555 C566 665 483 725 333 725 C152 725 53 627 53 469 L53 241 C53 83 152 -15 333 -15 C514 -15 613 83 613 223 L613 351 C613 371 606 378 586 378 L586 378 Z M350 -230 L396 -92 C402 -75 396 -67 374 -67 L334 -67 C314 -67 307 -72 305 -92 L277 -235 C276 -249 279 -253 293 -253 L322 -253 C338 -253 344 -247 350 -230 L350 -230 Z " />
<glyph glyph-name="gcommaaccent" unicode="&#x123;" horiz-adv-x="539" d="M268 715 L223 601 C216 582 222 573 244 573 L277 573 C299 573 306 579 309 601 L338 719 C340 733 337 737 321 737 L298 737 C280 737 274 733 268 715 L268 715 Z M46 324 L46 201 C46 77 108 3 248 3 C309 3 360 19 388 28 L388 -29 C388 -113 348 -161 261 -161 C195 -161 162 -135 138 -94 C127 -78 118 -75 99 -85 L70 -101 C52 -110 49 -122 61 -139 C95 -201 155 -241 263 -241 C417 -241 478 -155 478 -25 L478 445 C478 478 472 486 440 500 C405 516 343 531 266 531 C116 531 46 458 46 324 L46 324 Z M374 434 C387 428 388 426 388 414 L388 107 C364 100 319 85 260 85 C177 85 135 127 135 203 L135 321 C135 407 178 449 272 449 C314 449 349 442 374 434 L374 434 Z " />
<glyph glyph-name="Hcircumflex" unicode="&#x124;" horiz-adv-x="683" d="M349 905 L339 905 C317 905 312 904 293 884 L179 781 C170 770 171 761 191 761 L224 761 C244 761 249 762 261 775 L342 846 L420 775 C431 763 439 761 459 761 L494 761 C514 761 515 770 506 781 L393 884 C372 904 367 905 349 905 L349 905 Z M583 710 L539 710 C519 710 513 703 513 684 L513 405 L171 405 L171 684 C171 703 164 710 144 710 L100 710 C81 710 74 703 74 684 L74 26 C74 7 81 0 100 0 L144 0 C164 0 171 7 171 26 L171 315 L513 315 L513 26 C513 7 519 0 539 0 L583 0 C603 0 609 7 609 26 L609 684 C609 703 603 710 583 710 L583 710 Z " />
<glyph glyph-name="hcircumflex" unicode="&#x125;" horiz-adv-x="553" d="M114 927 L105 927 C83 927 79 926 60 907 L-49 807 C-58 797 -57 788 -38 788 L-6 788 C13 788 18 789 30 801 L107 870 L182 801 C193 790 200 788 219 788 L253 788 C273 788 273 797 264 807 L156 907 C137 926 132 927 114 927 L114 927 Z M128 740 L86 740 C68 740 62 734 62 716 L62 24 C62 6 68 0 86 0 L128 0 C146 0 152 6 152 24 L152 426 C174 437 223 449 279 449 C364 449 405 407 405 330 L405 24 C405 6 411 0 429 0 L471 0 C489 0 495 6 495 24 L495 333 C495 458 431 531 292 531 C227 531 172 519 152 509 L152 716 C152 734 146 740 128 740 L128 740 Z " />
<glyph glyph-name="Hbar" unicode="&#x126;" horiz-adv-x="694" d="M669 599 L614 599 L614 684 C614 703 608 710 588 710 L544 710 C524 710 518 703 518 684 L518 599 L176 599 L176 684 C176 703 169 710 149 710 L105 710 C86 710 79 703 79 684 L79 599 L26 599 C15 599 10 595 10 582 L10 560 C10 546 13 542 26 542 L79 542 L79 26 C79 7 86 0 105 0 L149 0 C169 0 176 7 176 26 L176 315 L518 315 L518 26 C518 7 524 0 544 0 L588 0 C608 0 614 7 614 26 L614 542 L669 542 C682 542 685 546 685 560 L685 582 C685 595 682 599 669 599 L669 599 Z M176 542 L518 542 L518 405 L176 405 L176 542 Z " />
<glyph glyph-name="hbar" unicode="&#x127;" horiz-adv-x="553" d="M152 509 L152 607 L299 607 C312 607 315 611 315 625 L315 644 C315 657 312 661 299 661 L152 661 L152 716 C152 734 146 740 128 740 L86 740 C69 740 63 734 63 716 L63 661 L19 661 C8 661 3 657 3 644 L3 625 C3 611 7 607 19 607 L63 607 L63 24 C63 6 69 0 86 0 L128 0 C146 0 152 6 152 24 L152 426 C174 437 223 449 280 449 C364 449 405 407 405 330 L405 24 C405 6 411 0 429 0 L471 0 C489 0 495 6 495 24 L495 333 C495 458 432 531 292 531 C227 531 173 519 152 509 L152 509 Z " />
<glyph glyph-name="Itilde" unicode="&#x128;" horiz-adv-x="245" d="M258 888 L232 888 C221 888 218 883 218 873 C218 843 207 825 186 825 C138 825 115 888 45 888 C-7 888 -35 858 -35 783 C-35 773 -31 768 -20 768 L6 768 C16 768 20 773 20 783 C20 814 32 831 53 831 C102 831 126 768 192 768 C248 768 273 799 273 873 C273 883 269 888 258 888 L258 888 Z M74 684 L74 26 C74 7 81 0 100 0 L144 0 C164 0 171 7 171 26 L171 684 C171 703 164 710 144 710 L100 710 C81 710 74 703 74 684 L74 684 Z " />
<glyph glyph-name="itilde" unicode="&#x129;" horiz-adv-x="213" d="M212 720 L189 720 C180 720 177 716 177 705 C177 671 167 660 151 660 C113 660 106 720 49 720 C7 720 -18 695 -18 616 C-18 606 -14 600 -5 600 L19 600 C27 600 31 606 31 616 C31 650 42 659 58 659 C97 659 105 600 159 600 C202 600 225 626 225 705 C225 716 222 720 212 720 L212 720 Z M128 516 L86 516 C68 516 62 510 62 492 L62 24 C62 6 68 0 86 0 L128 0 C145 0 151 6 151 24 L151 492 C151 510 145 516 128 516 L128 516 Z " />
<glyph glyph-name="Imacron" unicode="&#x12a;" horiz-adv-x="245" d="M239 859 L6 859 C-10 859 -17 854 -17 837 L-17 817 C-17 799 -12 794 6 794 L239 794 C257 794 262 799 262 817 L262 837 C262 854 257 859 239 859 L239 859 Z M74 684 L74 26 C74 7 81 0 100 0 L144 0 C164 0 171 7 171 26 L171 684 C171 703 164 710 144 710 L100 710 C81 710 74 703 74 684 L74 684 Z " />
<glyph glyph-name="imacron" unicode="&#x12b;" horiz-adv-x="213" d="M179 679 L34 679 C24 679 20 675 20 657 L20 638 C20 621 23 616 34 616 L179 616 C191 616 193 621 193 638 L193 657 C193 675 191 679 179 679 L179 679 Z M128 516 L86 516 C68 516 62 510 62 492 L62 24 C62 6 68 0 86 0 L128 0 C145 0 151 6 151 24 L151 492 C151 510 145 516 128 516 L128 516 Z " />
<glyph glyph-name="Ibreve" unicode="&#x12c;" horiz-adv-x="245" d="M276 867 C280 880 277 884 265 890 L230 902 C219 906 214 904 209 893 C196 849 167 827 122 827 C78 827 49 849 36 893 C31 904 25 906 12 902 L-19 890 C-31 885 -34 880 -30 867 C-8 799 45 762 122 762 C200 762 254 799 276 867 L276 867 Z M74 684 L74 26 C74 7 81 0 100 0 L144 0 C164 0 171 7 171 26 L171 684 C171 703 164 710 144 710 L100 710 C81 710 74 703 74 684 L74 684 Z " />
<glyph glyph-name="ibreve" unicode="&#x12d;" horiz-adv-x="213" d="M231 711 L196 723 C186 727 180 725 176 714 C165 671 143 652 107 652 C71 652 48 671 38 714 C34 725 28 726 14 722 L-17 711 C-28 707 -31 701 -27 689 C-9 623 37 585 107 585 C177 585 223 623 242 689 C246 701 243 706 231 711 L231 711 Z M128 516 L86 516 C68 516 62 510 62 492 L62 24 C62 6 68 0 86 0 L128 0 C145 0 151 6 151 24 L151 492 C151 510 145 516 128 516 L128 516 Z " />
<glyph glyph-name="Iogonek" unicode="&#x12e;" horiz-adv-x="245" d="M206 -193 L196 -167 C193 -160 187 -158 181 -163 C169 -174 155 -179 141 -179 C126 -179 113 -171 107 -155 C98 -124 111 -65 164 3 C169 9 171 16 171 26 L171 684 C171 703 164 710 144 710 L100 710 C81 710 74 703 74 684 L74 26 C74 9 79 0 102 0 C42 -72 17 -138 30 -191 C39 -232 75 -246 113 -246 C147 -246 180 -234 205 -210 C209 -206 210 -201 206 -193 L206 -193 Z " />
<glyph glyph-name="iogonek" unicode="&#x12f;" horiz-adv-x="214" d="M104 601 L110 601 C147 601 158 613 158 649 L158 657 C158 693 147 705 110 705 L104 705 C68 705 56 693 56 657 L56 649 C56 612 68 601 104 601 L104 601 Z M187 -191 L178 -167 C174 -161 168 -160 162 -164 C153 -176 142 -180 132 -180 C118 -180 104 -169 102 -151 C97 -109 117 -44 147 5 C151 9 152 15 152 24 L152 492 C152 510 146 516 128 516 L86 516 C68 516 62 510 62 492 L62 24 C62 7 68 1 83 1 C48 -47 17 -124 25 -184 C31 -227 65 -245 106 -245 C135 -245 165 -235 187 -209 C191 -204 191 -199 187 -191 L187 -191 Z " />
<glyph glyph-name="Idotaccent" unicode="&#x130;" horiz-adv-x="245" d="M125 874 L120 874 C87 874 77 864 77 831 L77 824 C77 791 87 781 120 781 L125 781 C158 781 168 791 168 824 L168 831 C168 864 158 874 125 874 L125 874 Z M74 684 L74 26 C74 7 81 0 100 0 L144 0 C164 0 171 7 171 26 L171 684 C171 703 164 710 144 710 L100 710 C81 710 74 703 74 684 L74 684 Z " />
<glyph glyph-name="dotlessi" unicode="&#x131;" horiz-adv-x="214" d="M128 516 L86 516 C68 516 62 510 62 492 L62 24 C62 6 68 0 86 0 L128 0 C146 0 152 6 152 24 L152 492 C152 510 146 516 128 516 L128 516 Z " />
<glyph glyph-name="IJ" unicode="&#x132;" horiz-adv-x="821" d="M74 684 L74 26 C74 7 81 0 100 0 L144 0 C164 0 171 7 171 26 L171 684 C171 703 164 710 144 710 L100 710 C81 710 74 703 74 684 L74 684 Z M726 710 L681 710 C661 710 655 703 655 684 L655 227 C655 130 603 75 504 75 C418 75 377 118 357 195 C350 214 342 218 323 212 L281 197 C263 190 259 182 265 163 C296 51 370 -15 504 -15 C666 -15 752 78 752 228 L752 684 C752 703 745 710 726 710 L726 710 Z " />
<glyph glyph-name="ij" unicode="&#x133;" horiz-adv-x="457" d="M110 705 L104 705 C68 705 56 693 56 657 L56 649 C56 612 68 601 104 601 L110 601 C147 601 158 613 158 649 L158 657 C158 693 147 705 110 705 L110 705 Z M353 705 L346 705 C310 705 298 693 298 657 L298 649 C298 612 310 601 346 601 L353 601 C389 601 400 613 400 649 L400 657 C400 693 389 705 353 705 L353 705 Z M128 516 L86 516 C68 516 62 510 62 492 L62 24 C62 6 68 0 86 0 L128 0 C146 0 152 6 152 24 L152 492 C152 510 146 516 128 516 L128 516 Z M370 516 L329 516 C311 516 305 510 305 492 L305 -6 C305 -94 274 -147 177 -147 C159 -147 153 -153 153 -171 L153 -206 C153 -224 159 -230 177 -230 C332 -230 394 -149 394 -8 L394 492 C394 510 388 516 370 516 L370 516 Z " />
<glyph glyph-name="Jcircumflex" unicode="&#x134;" horiz-adv-x="574" d="M463 905 L454 905 C431 905 427 904 407 884 L294 781 C285 770 285 761 306 761 L339 761 C358 761 364 762 376 775 L456 846 L535 775 C546 763 553 761 573 761 L608 761 C629 761 630 770 620 781 L507 884 C487 904 482 905 463 905 L463 905 Z M479 710 L434 710 C414 710 408 703 408 684 L408 227 C408 130 356 75 257 75 C171 75 130 118 110 195 C103 214 95 218 76 212 L34 197 C16 190 12 182 18 163 C49 51 123 -15 257 -15 C419 -15 504 78 504 228 L504 684 C504 703 498 710 479 710 L479 710 Z " />
<glyph glyph-name="jcircumflex" unicode="&#x135;" horiz-adv-x="215" d="M114 720 L105 720 C83 720 78 720 59 700 L-40 599 C-49 589 -48 580 -29 580 L4 580 C22 580 28 581 40 593 L107 663 L172 593 C183 581 191 580 210 580 L244 580 C264 580 265 589 256 599 L157 700 C138 720 133 720 114 720 L114 720 Z M128 516 L87 516 C69 516 63 510 63 492 L63 -6 C63 -94 33 -147 -65 -147 C-83 -147 -89 -153 -89 -171 L-89 -206 C-89 -224 -83 -230 -65 -230 C90 -230 152 -149 152 -8 L152 492 C152 510 146 516 128 516 L128 516 Z " />
<glyph glyph-name="Kcommaaccent" unicode="&#x136;" horiz-adv-x="617" d="M598 27 L471 272 C442 330 408 367 356 385 L587 685 C597 697 592 710 574 710 L525 710 C494 710 487 707 472 688 L259 404 L241 404 L171 404 L171 684 C171 703 164 710 144 710 L100 710 C81 710 74 703 74 684 L74 26 C74 7 81 0 100 0 L144 0 C164 0 171 7 171 26 L171 316 L249 316 C324 316 352 296 382 237 L488 23 C497 4 508 0 540 0 L584 0 C604 0 606 12 598 27 L598 27 Z M328 -230 L375 -92 C381 -75 375 -67 352 -67 L312 -67 C293 -67 285 -72 283 -92 L256 -235 C254 -249 257 -253 272 -253 L300 -253 C317 -253 323 -247 328 -230 L328 -230 Z " />
<glyph glyph-name="kcommaaccent" unicode="&#x137;" horiz-adv-x="514" d="M490 28 L402 206 C381 248 357 275 322 288 L482 488 C496 506 491 516 467 516 L429 516 C402 516 395 516 382 498 L233 305 L225 305 L152 305 L152 716 C152 734 146 740 127 740 L88 740 C69 740 63 734 63 716 L63 25 C63 6 69 0 88 0 L127 0 C146 0 152 6 152 25 L152 222 L236 222 C283 222 307 206 326 167 L395 22 C404 3 409 0 436 0 L475 0 C498 0 501 8 490 28 L490 28 Z M284 -207 L323 -79 C329 -61 324 -52 302 -52 L268 -52 C247 -52 240 -57 237 -79 L214 -210 C212 -225 215 -229 231 -229 L254 -229 C272 -229 278 -224 284 -207 L284 -207 Z " />
<glyph glyph-name="kgreenlandic" unicode="&#x138;" horiz-adv-x="488" d="M466 29 L280 287 L458 488 C473 506 468 516 443 516 L405 516 C379 516 372 515 358 498 L152 265 L152 492 C152 510 146 516 127 516 L87 516 C68 516 62 510 62 492 L62 25 C62 6 68 0 87 0 L127 0 C146 0 152 6 152 25 L152 141 L221 218 L362 19 C374 2 386 0 412 0 L451 0 C477 0 479 11 466 29 L466 29 Z " />
<glyph glyph-name="Lacute" unicode="&#x139;" horiz-adv-x="525" d="M170 900 L15 805 C2 798 3 793 13 780 L24 765 C31 756 40 758 55 764 L230 847 C246 854 245 861 234 875 L214 899 C201 914 185 909 170 900 L170 900 Z M144 710 L100 710 C81 710 74 703 74 684 L74 26 C74 7 81 0 100 0 L485 0 C505 0 512 7 512 26 L512 64 C512 83 505 90 485 90 L171 90 L171 684 C171 703 164 710 144 710 L144 710 Z " />
<glyph glyph-name="lacute" unicode="&#x13a;" horiz-adv-x="221" d="M142 895 L12 819 C-1 812 0 806 9 793 L23 775 C29 766 38 767 53 773 L201 836 C217 842 216 849 205 864 L183 891 C170 907 158 904 142 895 L142 895 Z M155 24 L155 716 C155 734 149 740 131 740 L89 740 C71 740 65 734 65 716 L65 24 C65 6 71 0 89 0 L131 0 C149 0 155 6 155 24 L155 24 Z " />
<glyph glyph-name="Lcommaaccent" unicode="&#x13b;" horiz-adv-x="525" d="M144 710 L100 710 C81 710 74 703 74 684 L74 26 C74 7 81 0 100 0 L485 0 C505 0 512 7 512 26 L512 64 C512 83 505 90 485 90 L171 90 L171 684 C171 703 164 710 144 710 L144 710 Z M291 -230 L338 -92 C344 -75 338 -67 315 -67 L275 -67 C256 -67 248 -72 246 -92 L219 -235 C217 -249 220 -253 235 -253 L264 -253 C280 -253 286 -247 291 -230 L291 -230 Z " />
<glyph glyph-name="lcommaaccent" unicode="&#x13c;" horiz-adv-x="221" d="M155 24 L155 716 C155 734 149 740 131 740 L90 740 C72 740 66 734 66 716 L66 24 C66 6 72 0 90 0 L131 0 C149 0 155 6 155 24 L155 24 Z M113 -198 L152 -66 C158 -48 153 -39 131 -39 L98 -39 C77 -39 69 -45 67 -66 L43 -201 C42 -216 44 -220 60 -220 L83 -220 C101 -220 107 -215 113 -198 L113 -198 Z " />
<glyph glyph-name="Lcaron" unicode="&#x13d;" horiz-adv-x="525" d="M144 710 L100 710 C81 710 74 703 74 684 L74 26 C74 7 81 0 100 0 L485 0 C505 0 512 7 512 26 L512 64 C512 83 505 90 485 90 L171 90 L171 684 C171 703 164 710 144 710 L144 710 Z M382 505 L434 685 C440 702 434 710 413 710 L376 710 C357 710 350 705 348 686 L318 500 C317 487 319 484 333 484 L355 484 C371 484 377 490 382 505 L382 505 Z " />
<glyph glyph-name="lcaron" unicode="&#x13e;" horiz-adv-x="228" d="M155 24 L155 716 C155 734 149 740 131 740 L90 740 C72 740 66 734 66 716 L66 24 C66 6 72 0 90 0 L131 0 C149 0 155 6 155 24 L155 24 Z M291 558 L339 715 C345 732 339 740 317 740 L280 740 C261 740 255 735 252 716 L227 553 C226 540 229 537 243 537 L264 537 C280 537 285 542 291 558 L291 558 Z " />
<glyph glyph-name="Ldot" unicode="&#x13f;" horiz-adv-x="525" d="M144 710 L100 710 C81 710 74 703 74 684 L74 26 C74 7 81 0 100 0 L485 0 C505 0 512 7 512 26 L512 64 C512 83 505 90 485 90 L171 90 L171 684 C171 703 164 710 144 710 L144 710 Z M361 426 L354 426 C316 426 304 414 304 376 L304 368 C304 329 316 317 354 317 L361 317 C399 317 411 329 411 368 L411 376 C411 414 399 426 361 426 L361 426 Z " />
<glyph glyph-name="ldot" unicode="&#x140;" horiz-adv-x="354" d="M155 24 L155 716 C155 734 149 740 131 740 L90 740 C72 740 66 734 66 716 L66 24 C66 6 72 0 90 0 L131 0 C149 0 155 6 155 24 L155 24 Z M292 430 L286 430 C247 430 235 418 235 379 L235 372 C235 333 247 321 286 321 L292 321 C331 321 343 333 343 372 L343 379 C343 418 331 430 292 430 L292 430 Z " />
<glyph glyph-name="Lslash" unicode="&#x141;" horiz-adv-x="556" d="M515 90 L200 90 L200 317 L415 419 C427 423 429 431 424 441 L411 470 C405 480 398 485 384 479 L200 392 L200 684 C200 703 194 710 174 710 L130 710 C110 710 104 703 104 684 L104 348 L4 301 C-5 297 -9 288 -3 278 L11 250 C17 238 23 234 36 242 L104 273 L104 26 C104 7 110 0 130 0 L515 0 C535 0 542 7 542 26 L542 64 C542 83 535 90 515 90 L515 90 Z " />
<glyph glyph-name="lslash" unicode="&#x142;" horiz-adv-x="307" d="M297 437 L283 463 C275 474 270 477 256 470 L196 435 L196 716 C196 734 190 740 172 740 L130 740 C113 740 107 734 107 716 L107 387 L17 336 C8 331 5 323 10 312 L25 286 C32 275 38 273 52 280 L107 312 L107 24 C107 6 113 0 130 0 L172 0 C190 0 196 6 196 24 L196 360 L291 414 C301 419 304 427 297 437 L297 437 Z " />
<glyph glyph-name="Nacute" unicode="&#x143;" horiz-adv-x="693" d="M394 900 L239 805 C227 798 227 793 237 780 L249 765 C256 756 264 758 279 764 L455 847 C470 854 470 861 458 875 L438 899 C426 914 410 909 394 900 L394 900 Z M593 710 L552 710 C532 710 526 703 526 684 L526 322 C526 233 542 151 542 129 L537 129 C525 146 497 221 451 289 L170 697 C165 705 158 710 144 710 L100 710 C81 710 74 703 74 684 L74 26 C74 7 81 0 100 0 L141 0 C161 0 168 7 168 26 L168 396 C168 479 151 563 151 582 L156 582 C166 568 196 490 237 428 L522 13 C529 3 536 0 549 0 L593 0 C612 0 619 7 619 26 L619 684 C619 703 612 710 593 710 L593 710 Z " />
<glyph glyph-name="nacute" unicode="&#x144;" horiz-adv-x="551" d="M323 724 L168 629 C155 622 156 616 166 603 L177 589 C184 580 193 582 208 587 L383 671 C399 677 398 684 387 698 L367 722 C354 738 338 733 323 724 L323 724 Z M99 497 C68 484 61 472 61 441 L61 24 C61 6 67 0 84 0 L126 0 C144 0 150 6 150 24 L150 413 C150 421 152 427 162 431 C190 440 229 449 278 449 C364 449 403 409 403 330 L403 24 C403 6 409 0 427 0 L469 0 C487 0 493 6 493 24 L493 333 C493 457 430 531 290 531 C197 531 138 513 99 497 L99 497 Z " />
<glyph glyph-name="Ncommaaccent" unicode="&#x145;" horiz-adv-x="693" d="M593 710 L552 710 C532 710 526 703 526 684 L526 322 C526 233 542 151 542 129 L537 129 C525 146 497 221 451 289 L170 697 C165 705 158 710 144 710 L100 710 C81 710 74 703 74 684 L74 26 C74 7 81 0 100 0 L141 0 C161 0 168 7 168 26 L168 396 C168 479 151 563 151 582 L156 582 C166 568 196 490 237 428 L522 13 C529 3 536 0 549 0 L593 0 C612 0 619 7 619 26 L619 684 C619 703 612 710 593 710 L593 710 Z M354 -230 L401 -92 C407 -75 401 -67 378 -67 L338 -67 C319 -67 311 -72 309 -92 L282 -235 C280 -249 283 -253 298 -253 L326 -253 C343 -253 349 -247 354 -230 L354 -230 Z " />
<glyph glyph-name="ncommaaccent" unicode="&#x146;" horiz-adv-x="551" d="M99 497 C68 484 61 472 61 441 L61 24 C61 6 67 0 84 0 L126 0 C144 0 150 6 150 24 L150 413 C150 421 152 427 162 431 C190 440 229 449 278 449 C364 449 403 409 403 330 L403 24 C403 6 409 0 427 0 L469 0 C487 0 493 6 493 24 L493 333 C493 457 430 531 290 531 C197 531 138 513 99 497 L99 497 Z M287 -196 L326 -66 C332 -48 327 -39 305 -39 L271 -39 C250 -39 243 -45 240 -66 L217 -200 C215 -214 218 -218 234 -218 L257 -218 C275 -218 281 -214 287 -196 L287 -196 Z " />
<glyph glyph-name="Ncaron" unicode="&#x147;" horiz-adv-x="693" d="M497 904 L462 904 C442 904 434 902 423 890 L345 819 L264 890 C252 903 247 904 227 904 L194 904 C174 904 173 894 183 884 L296 781 C315 761 320 760 342 760 L352 760 C371 760 376 761 396 781 L508 884 C518 894 517 904 497 904 L497 904 Z M593 710 L552 710 C532 710 526 703 526 684 L526 322 C526 233 542 151 542 129 L537 129 C525 146 497 221 451 289 L170 697 C165 705 158 710 144 710 L100 710 C81 710 74 703 74 684 L74 26 C74 7 81 0 100 0 L141 0 C161 0 168 7 168 26 L168 396 C168 479 151 563 151 582 L156 582 C166 568 196 490 237 428 L522 13 C529 3 536 0 549 0 L593 0 C612 0 619 7 619 26 L619 684 C619 703 612 710 593 710 L593 710 Z " />
<glyph glyph-name="ncaron" unicode="&#x148;" horiz-adv-x="551" d="M413 709 L381 709 C363 709 355 707 345 696 L274 630 L200 696 C189 708 184 709 166 709 L135 709 C117 709 116 700 125 691 L229 595 C247 577 251 576 271 576 L280 576 C297 576 302 576 320 595 L423 690 C432 700 432 709 413 709 L413 709 Z M99 497 C68 484 61 472 61 441 L61 24 C61 6 67 0 84 0 L126 0 C144 0 150 6 150 24 L150 413 C150 421 152 427 162 431 C190 440 229 449 278 449 C364 449 403 409 403 330 L403 24 C403 6 409 0 427 0 L469 0 C487 0 493 6 493 24 L493 333 C493 457 430 531 290 531 C197 531 138 513 99 497 L99 497 Z " />
<glyph glyph-name="napostrophe" unicode="&#x149;" horiz-adv-x="551" d="M102 556 L190 715 C200 730 196 740 174 740 L132 740 C113 740 109 735 104 719 L39 556 C35 543 37 539 51 539 L73 539 C89 539 93 542 102 556 L102 556 Z M99 497 C68 484 61 472 61 441 L61 24 C61 6 67 0 84 0 L126 0 C144 0 150 6 150 24 L150 413 C150 421 152 427 162 431 C190 440 229 449 278 449 C364 449 403 409 403 330 L403 24 C403 6 409 0 427 0 L469 0 C487 0 493 6 493 24 L493 333 C493 457 430 531 290 531 C197 531 138 513 99 497 L99 497 Z " />
<glyph glyph-name="Eng" unicode="&#x14a;" horiz-adv-x="693" d="M593 710 L552 710 C532 710 526 703 526 684 L526 322 C526 233 542 151 542 129 L537 129 C525 146 497 221 451 289 L170 697 C165 705 158 710 144 710 L100 710 C81 710 74 703 74 684 L74 26 C74 7 81 0 100 0 L141 0 C161 0 168 7 168 26 L168 404 C168 485 151 566 151 582 L156 582 C166 568 196 490 237 428 L526 9 L526 -7 C526 -94 484 -147 390 -147 C371 -147 365 -152 365 -171 L365 -206 C365 -224 371 -230 390 -230 C541 -230 619 -148 619 -10 L619 684 C619 703 612 710 593 710 L593 710 Z " />
<glyph glyph-name="eng" unicode="&#x14b;" horiz-adv-x="551" d="M99 497 C68 484 61 472 61 441 L61 24 C61 6 67 0 84 0 L126 0 C144 0 150 6 150 24 L150 413 C150 421 152 427 162 431 C190 440 229 449 278 449 C364 449 403 409 403 330 L403 -13 C403 -99 362 -150 270 -150 C253 -150 247 -155 247 -174 L247 -207 C247 -225 253 -230 270 -230 C417 -230 493 -150 493 -16 L493 333 C493 457 430 531 290 531 C197 531 138 513 99 497 L99 497 Z " />
<glyph glyph-name="Omacron" unicode="&#x14c;" horiz-adv-x="666" d="M450 869 L216 869 C200 869 194 864 194 847 L194 827 C194 809 199 804 216 804 L450 804 C468 804 473 809 473 827 L473 847 C473 864 468 869 450 869 L450 869 Z M53 469 L53 241 C53 83 152 -15 333 -15 C514 -15 613 83 613 241 L613 469 C613 627 514 725 333 725 C152 725 53 627 53 469 L53 469 Z M516 469 L516 241 C516 135 451 75 333 75 C215 75 150 135 150 241 L150 469 C150 575 215 635 333 635 C451 635 516 575 516 469 L516 469 Z " />
<glyph glyph-name="omacron" unicode="&#x14d;" horiz-adv-x="541" d="M377 675 L163 675 C148 675 142 670 142 653 L142 634 C142 617 147 613 163 613 L377 613 C394 613 398 617 398 634 L398 653 C398 670 394 675 377 675 L377 675 Z M46 339 L46 176 C46 58 129 -15 270 -15 C414 -15 495 58 495 176 L495 339 C495 458 414 531 270 531 C129 531 46 458 46 339 L46 339 Z M406 340 L406 176 C406 107 355 66 270 66 C186 66 135 107 135 176 L135 340 C135 409 186 450 270 450 C355 450 406 409 406 340 L406 340 Z " />
<glyph glyph-name="Obreve" unicode="&#x14e;" horiz-adv-x="666" d="M487 877 C491 890 488 894 476 900 L441 912 C430 916 425 914 420 903 C407 859 378 837 333 837 C289 837 260 859 247 903 C242 914 236 916 223 912 L192 900 C180 895 177 890 181 877 C203 809 256 772 333 772 C411 772 465 809 487 877 L487 877 Z M53 469 L53 241 C53 83 152 -15 333 -15 C514 -15 613 83 613 241 L613 469 C613 627 514 725 333 725 C152 725 53 627 53 469 L53 469 Z M516 469 L516 241 C516 135 451 75 333 75 C215 75 150 135 150 241 L150 469 C150 575 215 635 333 635 C451 635 516 575 516 469 L516 469 Z " />
<glyph glyph-name="obreve" unicode="&#x14f;" horiz-adv-x="541" d="M424 689 C428 702 425 706 413 712 L378 724 C367 728 362 726 357 715 C344 671 314 649 270 649 C226 649 197 671 184 715 C179 726 173 728 160 724 L128 712 C117 707 114 702 118 689 C139 620 193 584 270 584 C348 584 401 620 424 689 L424 689 Z M46 339 L46 176 C46 58 129 -15 270 -15 C414 -15 495 58 495 176 L495 339 C495 458 414 531 270 531 C129 531 46 458 46 339 L46 339 Z M406 340 L406 176 C406 107 355 66 270 66 C186 66 135 107 135 176 L135 340 C135 409 186 450 270 450 C355 450 406 409 406 340 L406 340 Z " />
<glyph glyph-name="Ohungarumlaut" unicode="&#x150;" horiz-adv-x="666" d="M272 902 L191 801 C183 790 183 782 199 777 L213 772 C223 768 230 772 241 782 L347 882 C359 894 357 903 340 909 L312 918 C293 923 282 917 272 902 L272 902 Z M443 902 L357 798 C349 787 349 778 365 774 L379 769 C390 765 396 769 408 779 L521 882 C533 893 530 903 513 909 L483 918 C465 923 454 917 443 902 L443 902 Z M53 469 L53 241 C53 83 152 -15 333 -15 C514 -15 613 83 613 241 L613 469 C613 627 514 725 333 725 C152 725 53 627 53 469 L53 469 Z M516 469 L516 241 C516 135 451 75 333 75 C215 75 150 135 150 241 L150 469 C150 575 215 635 333 635 C451 635 516 575 516 469 L516 469 Z " />
<glyph glyph-name="ohungarumlaut" unicode="&#x151;" horiz-adv-x="541" d="M213 693 L139 600 C132 590 131 583 146 578 L159 574 C169 570 175 574 185 583 L283 675 C293 686 292 694 276 699 L250 708 C233 712 223 706 213 693 L213 693 Z M372 692 L292 598 C284 588 284 580 299 576 L312 572 C322 568 327 572 338 581 L443 674 C455 684 452 693 436 699 L409 707 C392 712 382 706 372 692 L372 692 Z M46 339 L46 176 C46 58 129 -15 270 -15 C414 -15 495 58 495 176 L495 339 C495 458 414 531 270 531 C129 531 46 458 46 339 L46 339 Z M406 340 L406 176 C406 107 355 66 270 66 C186 66 135 107 135 176 L135 340 C135 409 186 450 270 450 C355 450 406 409 406 340 L406 340 Z " />
<glyph glyph-name="OE" unicode="&#x152;" horiz-adv-x="851" d="M789 90 L515 90 L515 314 L731 314 C751 314 757 321 757 341 L757 378 C757 398 751 404 731 404 L515 404 L515 620 L778 620 C797 620 804 627 804 646 L804 684 C804 703 797 710 778 710 L445 710 C413 720 374 725 333 725 C152 725 53 627 53 469 L53 241 C53 83 152 -15 333 -15 C374 -15 412 -10 445 0 L789 0 C809 0 816 7 816 26 L816 64 C816 83 809 90 789 90 L789 90 Z M150 241 L150 469 C150 575 215 635 333 635 C368 635 399 629 418 622 L418 88 C401 81 369 75 333 75 C215 75 150 135 150 241 L150 241 Z " />
<glyph glyph-name="oe" unicode="&#x153;" horiz-adv-x="823" d="M417 456 C387 504 328 531 253 531 C122 531 47 458 47 340 L47 176 C47 57 122 -15 253 -15 C328 -15 386 12 416 58 C445 12 496 -15 575 -15 C683 -15 735 26 770 87 C781 104 778 117 761 126 L734 141 C716 150 707 148 695 131 C670 89 640 63 576 63 C495 63 460 106 460 182 L460 231 L748 231 C775 231 785 245 785 266 L785 325 C785 443 724 531 577 531 C499 531 447 504 417 456 L417 456 Z M695 330 L695 300 L460 300 L460 330 C460 408 494 455 577 455 C661 455 695 408 695 330 L695 330 Z M370 340 L370 176 C370 107 327 66 253 66 C180 66 137 107 137 176 L137 340 C137 410 180 450 253 450 C327 450 370 410 370 340 L370 340 Z " />
<glyph glyph-name="Racute" unicode="&#x154;" horiz-adv-x="647" d="M367 900 L212 805 C199 798 200 793 210 780 L222 765 C229 756 237 758 252 764 L427 847 C443 854 442 861 431 875 L411 899 C398 914 383 909 367 900 L367 900 Z M381 710 L100 710 C81 710 74 703 74 684 L74 26 C74 7 81 0 100 0 L144 0 C164 0 171 7 171 26 L171 285 L278 285 C352 285 381 265 410 206 L501 23 C510 4 520 0 553 0 L597 0 C617 0 619 12 611 27 L500 242 C486 267 472 286 450 298 C542 319 597 389 597 497 C597 632 515 710 381 710 L381 710 Z M496 497 C496 419 451 375 372 375 L171 375 L171 620 L372 620 C451 620 496 576 496 497 L496 497 Z " />
<glyph glyph-name="racute" unicode="&#x155;" horiz-adv-x="346" d="M252 724 L97 629 C85 622 85 616 96 603 L107 588 C114 580 122 581 137 587 L313 671 C329 677 328 684 316 698 L297 722 C284 737 268 732 252 724 L252 724 Z M282 531 C194 529 136 514 99 500 C68 487 61 475 61 444 L61 24 C61 6 67 0 84 0 L126 0 C144 0 150 6 150 24 L150 412 C150 421 151 427 164 432 C193 441 230 449 279 449 L314 449 C332 449 338 455 338 473 L338 507 C338 525 332 531 314 531 L282 531 Z " />
<glyph glyph-name="Rcommaaccent" unicode="&#x156;" horiz-adv-x="647" d="M381 710 L100 710 C81 710 74 703 74 684 L74 26 C74 7 81 0 100 0 L144 0 C164 0 171 7 171 26 L171 285 L278 285 C352 285 381 265 410 206 L501 23 C510 4 520 0 553 0 L597 0 C617 0 619 12 611 27 L500 242 C486 267 472 286 450 298 C542 319 597 389 597 497 C597 632 515 710 381 710 L381 710 Z M496 497 C496 419 451 375 372 375 L171 375 L171 620 L372 620 C451 620 496 576 496 497 L496 497 Z M342 -230 L388 -92 C394 -75 388 -67 366 -67 L326 -67 C306 -67 299 -72 297 -92 L270 -235 C268 -249 271 -253 285 -253 L314 -253 C330 -253 336 -247 342 -230 L342 -230 Z " />
<glyph glyph-name="rcommaaccent" unicode="&#x157;" horiz-adv-x="346" d="M282 531 C194 529 136 514 99 500 C68 487 61 475 61 444 L61 24 C61 6 67 0 84 0 L126 0 C144 0 150 6 150 24 L150 412 C150 421 151 427 164 432 C193 441 230 449 279 449 L314 449 C332 449 338 455 338 473 L338 507 C338 525 332 531 314 531 L282 531 Z M110 -201 L148 -68 C154 -50 149 -41 127 -41 L93 -41 C72 -41 64 -46 62 -68 L39 -205 C38 -220 40 -224 56 -224 L80 -224 C98 -224 105 -219 110 -201 L110 -201 Z " />
<glyph glyph-name="Rcaron" unicode="&#x158;" horiz-adv-x="647" d="M470 904 L434 904 C415 904 407 902 396 890 L318 819 L237 890 C225 903 219 904 200 904 L167 904 C146 904 146 894 156 884 L268 781 C288 761 292 760 315 760 L325 760 C343 760 348 761 368 781 L481 884 C490 894 490 904 470 904 L470 904 Z M381 710 L100 710 C81 710 74 703 74 684 L74 26 C74 7 81 0 100 0 L144 0 C164 0 171 7 171 26 L171 285 L278 285 C352 285 381 265 410 206 L501 23 C510 4 520 0 553 0 L597 0 C617 0 619 12 611 27 L500 242 C486 267 472 286 450 298 C542 319 597 389 597 497 C597 632 515 710 381 710 L381 710 Z M496 497 C496 419 451 375 372 375 L171 375 L171 620 L372 620 C451 620 496 576 496 497 L496 497 Z " />
<glyph glyph-name="rcaron" unicode="&#x159;" horiz-adv-x="346" d="M343 708 L310 708 C292 708 285 707 275 696 L203 630 L129 696 C118 707 113 708 95 708 L64 708 C46 708 46 700 54 690 L158 595 C176 576 180 575 201 575 L210 575 C227 575 231 576 250 595 L353 690 C361 699 361 708 343 708 L343 708 Z M282 531 C194 529 136 514 99 500 C68 487 61 475 61 444 L61 24 C61 6 67 0 84 0 L126 0 C144 0 150 6 150 24 L150 412 C150 421 151 427 164 432 C193 441 230 449 279 449 L314 449 C332 449 338 455 338 473 L338 507 C338 525 332 531 314 531 L282 531 Z " />
<glyph glyph-name="Sacute" unicode="&#x15a;" horiz-adv-x="629" d="M364 910 L209 815 C197 808 197 802 207 789 L219 775 C226 766 234 767 249 773 L425 857 C440 863 440 870 428 884 L408 908 C396 924 380 919 364 910 L364 910 Z M48 513 C48 345 193 325 316 312 C409 301 493 286 493 200 C493 115 431 76 313 76 C223 76 164 115 132 189 C124 208 116 211 98 205 L57 190 C38 183 33 175 40 156 C84 43 163 -15 313 -15 C493 -15 590 70 590 202 C590 364 458 390 339 404 C239 415 147 430 147 519 C147 593 205 632 314 632 C405 632 452 597 486 531 C495 513 502 510 520 518 L562 537 C580 545 585 554 576 572 C527 674 453 725 314 725 C141 725 48 638 48 513 L48 513 Z " />
<glyph glyph-name="sacute" unicode="&#x15b;" horiz-adv-x="500" d="M297 724 L142 629 C130 622 130 616 141 603 L152 589 C159 580 168 582 183 587 L358 671 C374 677 373 684 361 698 L342 722 C329 738 313 733 297 724 L297 724 Z M42 376 C42 247 145 230 245 220 C329 212 378 201 378 141 C378 92 338 65 253 65 C183 65 138 85 118 137 C110 155 102 157 86 152 L52 140 C34 134 30 124 37 108 C68 26 142 -15 256 -15 C396 -15 465 50 465 145 C465 263 381 288 267 299 C184 306 131 314 131 378 C131 426 168 450 245 450 C322 450 354 424 373 385 C383 369 388 366 406 374 L440 388 C456 395 461 405 452 423 C422 488 359 531 243 531 C110 531 42 469 42 376 L42 376 Z " />
<glyph glyph-name="Scircumflex" unicode="&#x15c;" horiz-adv-x="629" d="M325 914 L315 914 C292 914 288 913 268 893 L155 790 C146 780 146 771 167 771 L200 771 C219 771 225 772 237 784 L317 855 L396 784 C407 772 414 771 434 771 L469 771 C490 771 491 780 481 790 L368 893 C348 914 343 914 325 914 L325 914 Z M48 513 C48 345 193 325 316 312 C409 301 493 286 493 200 C493 115 431 76 313 76 C223 76 164 115 132 189 C124 208 116 211 98 205 L57 190 C38 183 33 175 40 156 C84 43 163 -15 313 -15 C493 -15 590 70 590 202 C590 364 458 390 339 404 C239 415 147 430 147 519 C147 593 205 632 314 632 C405 632 452 597 486 531 C495 513 502 510 520 518 L562 537 C580 545 585 554 576 572 C527 674 453 725 314 725 C141 725 48 638 48 513 L48 513 Z " />
<glyph glyph-name="scircumflex" unicode="&#x15d;" horiz-adv-x="500" d="M257 721 L248 721 C226 721 222 719 202 700 L92 599 C82 589 83 580 103 580 L135 580 C154 580 160 581 172 593 L250 663 L327 593 C338 582 345 580 365 580 L399 580 C419 580 420 589 411 599 L300 700 C280 720 276 721 257 721 L257 721 Z M42 376 C42 247 145 230 245 220 C329 212 378 201 378 141 C378 92 338 65 253 65 C183 65 138 85 118 137 C110 155 102 157 86 152 L52 140 C34 134 30 124 37 108 C68 26 142 -15 256 -15 C396 -15 465 50 465 145 C465 263 381 288 267 299 C184 306 131 314 131 378 C131 426 168 450 245 450 C322 450 354 424 373 385 C383 369 388 366 406 374 L440 388 C456 395 461 405 452 423 C422 488 359 531 243 531 C110 531 42 469 42 376 L42 376 Z " />
<glyph glyph-name="Scedilla" unicode="&#x15e;" horiz-adv-x="629" d="M338 404 C239 415 146 430 146 519 C146 593 204 632 313 632 C404 632 452 597 485 531 C495 513 502 510 519 518 L561 537 C580 545 584 554 576 572 C526 674 453 725 313 725 C141 725 47 638 47 513 C47 345 192 325 315 312 C408 301 493 286 493 200 C493 115 431 76 312 76 C222 76 163 115 131 189 C123 208 116 211 97 205 L56 190 C37 183 33 175 40 156 C82 46 157 -11 296 -15 L265 -93 C259 -108 262 -114 277 -113 C285 -111 296 -110 306 -110 C341 -111 358 -122 358 -146 C358 -174 338 -193 298 -193 C264 -193 248 -184 231 -173 C221 -168 218 -175 218 -183 L219 -207 C219 -220 221 -225 233 -230 C251 -240 284 -247 309 -247 C373 -247 430 -221 435 -151 C439 -101 404 -66 351 -66 C344 -66 337 -66 331 -67 L351 -13 C507 -1 590 80 590 202 C590 364 457 390 338 404 L338 404 Z " />
<glyph glyph-name="scedilla" unicode="&#x15f;" horiz-adv-x="500" d="M42 376 C42 247 145 230 245 220 C329 212 378 201 378 141 C378 92 338 65 253 65 C183 65 138 85 118 137 C110 155 102 157 86 152 L52 140 C34 134 30 124 37 108 C66 32 131 -8 230 -14 L196 -95 C190 -110 194 -116 207 -115 C216 -113 226 -112 236 -112 C270 -113 287 -123 287 -147 C287 -174 268 -192 229 -192 C195 -192 179 -183 162 -173 C154 -168 150 -175 150 -182 L151 -205 C151 -217 154 -222 164 -228 C183 -237 215 -243 240 -243 C302 -243 358 -219 363 -151 C366 -103 331 -69 280 -69 C273 -69 266 -70 261 -71 L283 -13 C406 -5 465 57 465 145 C465 263 381 288 267 299 C184 306 131 314 131 378 C131 426 168 450 245 450 C322 450 354 424 373 385 C383 369 388 366 406 374 L440 388 C456 395 461 405 452 423 C422 488 359 531 243 531 C110 531 42 469 42 376 L42 376 Z " />
<glyph glyph-name="Scaron" unicode="&#x160;" horiz-adv-x="629" d="M467 914 L432 914 C412 914 404 912 393 900 L315 829 L234 900 C222 913 217 914 197 914 L164 914 C144 914 143 903 153 894 L266 791 C285 771 290 770 312 770 L322 770 C341 770 346 770 366 791 L478 894 C488 904 487 914 467 914 L467 914 Z M48 513 C48 345 193 325 316 312 C409 301 493 286 493 200 C493 115 431 76 313 76 C223 76 164 115 132 189 C124 208 116 211 98 205 L57 190 C38 183 33 175 40 156 C84 43 163 -15 313 -15 C493 -15 590 70 590 202 C590 364 458 390 339 404 C239 415 147 430 147 519 C147 593 205 632 314 632 C405 632 452 597 486 531 C495 513 502 510 520 518 L562 537 C580 545 585 554 576 572 C527 674 453 725 314 725 C141 725 48 638 48 513 L48 513 Z " />
<glyph glyph-name="scaron" unicode="&#x161;" horiz-adv-x="500" d="M386 705 L354 705 C336 705 329 703 319 693 L248 628 L176 693 C164 704 160 705 142 705 L111 705 C94 705 93 696 102 687 L204 594 C222 576 226 575 246 575 L255 575 C272 575 276 575 294 594 L396 687 C405 696 404 705 386 705 L386 705 Z M42 376 C42 247 145 230 245 220 C329 212 378 201 378 141 C378 92 338 65 253 65 C183 65 138 85 118 137 C110 155 102 157 86 152 L52 140 C34 134 30 124 37 108 C68 26 142 -15 256 -15 C396 -15 465 50 465 145 C465 263 381 288 267 299 C184 306 131 314 131 378 C131 426 168 450 245 450 C322 450 354 424 373 385 C383 369 388 366 406 374 L440 388 C456 395 461 405 452 423 C422 488 359 531 243 531 C110 531 42 469 42 376 L42 376 Z " />
<glyph glyph-name="Tcaron" unicode="&#x164;" horiz-adv-x="554" d="M427 904 L392 904 C372 904 364 902 353 890 L275 819 L194 890 C182 903 177 904 157 904 L124 904 C104 904 103 894 113 884 L226 781 C245 761 250 760 272 760 L282 760 C301 760 306 761 326 781 L438 884 C448 894 447 904 427 904 L427 904 Z M514 710 L40 710 C20 710 14 703 14 684 L14 646 C14 627 20 620 40 620 L229 620 L229 26 C229 7 235 0 255 0 L299 0 C319 0 325 7 325 26 L325 620 L514 620 C533 620 540 627 540 646 L540 684 C540 703 533 710 514 710 L514 710 Z " />
<glyph glyph-name="tcaron" unicode="&#x165;" horiz-adv-x="372" d="M339 577 L383 716 C389 732 383 740 362 740 L325 740 C306 740 299 735 297 716 L276 572 C275 558 277 555 291 555 L312 555 C329 555 334 561 339 577 L339 577 Z M179 636 L137 636 C119 636 114 630 114 612 L114 516 L31 516 C13 516 7 510 7 492 L7 457 C7 439 13 433 31 433 L114 433 L114 198 C114 31 173 -18 332 -14 C351 -13 357 -8 357 10 L357 46 C357 65 351 70 332 70 C235 70 203 91 203 200 L203 433 L334 433 C351 433 357 439 357 457 L357 492 C357 510 351 516 334 516 L203 516 L203 612 C203 630 197 636 179 636 L179 636 Z " />
<glyph glyph-name="Tbar" unicode="&#x166;" horiz-adv-x="573" d="M524 710 L50 710 C30 710 24 703 24 684 L24 646 C24 627 30 620 50 620 L238 620 L238 363 L108 363 C97 363 92 359 92 346 L92 311 C92 297 95 293 108 293 L238 293 L238 26 C238 7 245 0 265 0 L309 0 C328 0 335 7 335 26 L335 293 L466 293 C478 293 482 297 482 311 L482 346 C482 359 478 363 466 363 L335 363 L335 620 L524 620 C543 620 550 627 550 646 L550 684 C550 703 543 710 524 710 L524 710 Z " />
<glyph glyph-name="tbar" unicode="&#x167;" horiz-adv-x="378" d="M184 637 L142 637 C124 637 118 631 118 613 L118 517 L36 517 C18 517 12 511 12 493 L12 458 C12 440 18 434 36 434 L118 434 L118 297 L43 297 C32 297 27 293 27 280 L27 251 C27 237 31 234 43 234 L118 234 L118 198 C118 31 178 -17 337 -13 C355 -13 361 -7 361 11 L361 47 C361 65 355 71 337 71 C240 71 208 91 208 199 L208 234 L312 234 C324 234 328 237 328 251 L328 280 C328 293 324 297 312 297 L208 297 L208 434 L338 434 C356 434 362 440 362 458 L362 493 C362 511 356 517 338 517 L208 517 L208 613 C208 631 202 637 184 637 L184 637 Z " />
<glyph glyph-name="Utilde" unicode="&#x168;" horiz-adv-x="685" d="M477 888 L452 888 C441 888 438 883 438 873 C438 843 427 825 406 825 C358 825 335 888 265 888 C213 888 185 858 185 783 C185 773 189 768 200 768 L226 768 C236 768 240 773 240 783 C240 814 252 831 273 831 C322 831 346 768 412 768 C468 768 493 799 493 873 C493 883 489 888 477 888 L477 888 Z M165 242 L165 684 C165 703 159 710 139 710 L95 710 C75 710 69 703 69 684 L69 243 C69 86 161 -15 342 -15 C524 -15 616 86 616 243 L616 684 C616 703 609 710 590 710 L546 710 C526 710 519 703 519 684 L519 242 C519 139 461 75 342 75 C223 75 165 139 165 242 L165 242 Z " />
<glyph glyph-name="utilde" unicode="&#x169;" horiz-adv-x="551" d="M409 714 L384 714 C372 714 370 709 370 699 C370 668 359 651 337 651 C290 651 267 714 197 714 C145 714 117 683 117 609 C117 598 121 594 132 594 L158 594 C168 594 172 598 172 609 C172 640 184 656 205 656 C253 656 277 594 343 594 C399 594 424 625 424 699 C424 709 421 714 409 714 L409 714 Z M466 516 L425 516 C407 516 401 510 401 492 L401 107 C401 97 399 90 386 84 C357 75 322 67 273 67 C187 67 147 107 147 186 L147 492 C147 510 141 516 124 516 L82 516 C64 516 58 510 58 492 L58 183 C58 59 121 -15 261 -15 C354 -15 412 4 452 19 C483 32 490 44 490 75 L490 492 C490 510 484 516 466 516 L466 516 Z " />
<glyph glyph-name="Umacron" unicode="&#x16a;" horiz-adv-x="685" d="M459 859 L225 859 C209 859 203 854 203 837 L203 817 C203 799 208 794 225 794 L459 794 C477 794 482 799 482 817 L482 837 C482 854 477 859 459 859 L459 859 Z M165 242 L165 684 C165 703 159 710 139 710 L95 710 C75 710 69 703 69 684 L69 243 C69 86 161 -15 342 -15 C524 -15 616 86 616 243 L616 684 C616 703 609 710 590 710 L546 710 C526 710 519 703 519 684 L519 242 C519 139 461 75 342 75 C223 75 165 139 165 242 L165 242 Z " />
<glyph glyph-name="umacron" unicode="&#x16b;" horiz-adv-x="551" d="M391 682 L157 682 C141 682 135 677 135 659 L135 639 C135 621 139 617 157 617 L391 617 C409 617 414 621 414 639 L414 659 C414 677 409 682 391 682 L391 682 Z M466 516 L425 516 C407 516 401 510 401 492 L401 107 C401 97 399 90 386 84 C357 75 322 67 273 67 C187 67 147 107 147 186 L147 492 C147 510 141 516 124 516 L82 516 C64 516 58 510 58 492 L58 183 C58 59 121 -15 261 -15 C354 -15 412 4 452 19 C483 32 490 44 490 75 L490 492 C490 510 484 516 466 516 L466 516 Z " />
<glyph glyph-name="Ubreve" unicode="&#x16c;" horiz-adv-x="685" d="M496 867 C500 880 497 884 485 890 L450 902 C439 906 434 904 429 893 C416 849 387 827 342 827 C298 827 269 849 256 893 C251 904 245 906 232 902 L201 890 C189 885 186 880 190 867 C212 799 265 762 342 762 C420 762 474 799 496 867 L496 867 Z M165 242 L165 684 C165 703 159 710 139 710 L95 710 C75 710 69 703 69 684 L69 243 C69 86 161 -15 342 -15 C524 -15 616 86 616 243 L616 684 C616 703 609 710 590 710 L546 710 C526 710 519 703 519 684 L519 242 C519 139 461 75 342 75 C223 75 165 139 165 242 L165 242 Z " />
<glyph glyph-name="ubreve" unicode="&#x16d;" horiz-adv-x="551" d="M428 689 C432 702 429 706 417 712 L382 724 C371 728 366 726 361 715 C348 671 318 649 274 649 C230 649 201 671 188 715 C183 726 177 728 164 724 L132 712 C121 707 118 702 122 689 C143 620 197 584 274 584 C352 584 405 620 428 689 L428 689 Z M466 516 L425 516 C407 516 401 510 401 492 L401 107 C401 97 399 90 386 84 C357 75 322 67 273 67 C187 67 147 107 147 186 L147 492 C147 510 141 516 124 516 L82 516 C64 516 58 510 58 492 L58 183 C58 59 121 -15 261 -15 C354 -15 412 4 452 19 C483 32 490 44 490 75 L490 492 C490 510 484 516 466 516 L466 516 Z " />
<glyph glyph-name="Uring" unicode="&#x16e;" horiz-adv-x="685" d="M241 844 C241 784 284 743 347 743 C408 743 449 784 449 844 C449 905 408 946 347 946 C284 946 241 905 241 844 L241 844 Z M403 844 C403 810 381 788 347 788 C310 788 287 810 287 844 C287 879 310 901 347 901 C381 901 403 879 403 844 L403 844 Z M165 242 L165 684 C165 703 159 710 139 710 L95 710 C75 710 69 703 69 684 L69 243 C69 86 161 -15 342 -15 C524 -15 616 86 616 243 L616 684 C616 703 609 710 590 710 L546 710 C526 710 519 703 519 684 L519 242 C519 139 461 75 342 75 C223 75 165 139 165 242 L165 242 Z " />
<glyph glyph-name="uring" unicode="&#x16f;" horiz-adv-x="551" d="M171 647 C171 587 214 546 277 546 C338 546 380 587 380 647 C380 708 338 750 277 750 C214 750 171 708 171 647 L171 647 Z M334 647 C334 614 311 591 277 591 C241 591 217 614 217 647 C217 682 241 704 277 704 C311 704 334 682 334 647 L334 647 Z M466 516 L425 516 C407 516 401 510 401 492 L401 107 C401 97 399 90 386 84 C357 75 322 67 273 67 C187 67 147 107 147 186 L147 492 C147 510 141 516 124 516 L82 516 C64 516 58 510 58 492 L58 183 C58 59 121 -15 261 -15 C354 -15 412 4 452 19 C483 32 490 44 490 75 L490 492 C490 510 484 516 466 516 L466 516 Z " />
<glyph glyph-name="Uhungarumlaut" unicode="&#x170;" horiz-adv-x="685" d="M281 892 L200 791 C192 780 192 772 208 767 L222 762 C232 758 239 762 250 772 L356 872 C368 884 366 893 349 899 L321 908 C302 913 291 907 281 892 L281 892 Z M452 892 L366 788 C358 777 358 768 374 764 L388 759 C399 755 405 759 417 769 L530 872 C542 883 539 893 522 899 L492 908 C474 913 463 907 452 892 L452 892 Z M165 242 L165 684 C165 703 159 710 139 710 L95 710 C75 710 69 703 69 684 L69 243 C69 86 161 -15 342 -15 C524 -15 616 86 616 243 L616 684 C616 703 609 710 590 710 L546 710 C526 710 519 703 519 684 L519 242 C519 139 461 75 342 75 C223 75 165 139 165 242 L165 242 Z " />
<glyph glyph-name="uhungarumlaut" unicode="&#x171;" horiz-adv-x="551" d="M212 708 L132 607 C124 596 124 588 140 583 L154 579 C164 575 170 578 182 589 L288 689 C299 701 298 709 281 715 L253 724 C234 730 223 723 212 708 L212 708 Z M385 708 L297 605 C289 595 289 586 305 581 L319 577 C330 572 336 576 348 587 L462 688 C475 699 472 709 455 715 L425 724 C406 729 396 722 385 708 L385 708 Z M466 516 L425 516 C407 516 401 510 401 492 L401 107 C401 97 399 90 386 84 C357 75 322 67 273 67 C187 67 147 107 147 186 L147 492 C147 510 141 516 124 516 L82 516 C64 516 58 510 58 492 L58 183 C58 59 121 -15 261 -15 C354 -15 412 4 452 19 C483 32 490 44 490 75 L490 492 C490 510 484 516 466 516 L466 516 Z " />
<glyph glyph-name="Uogonek" unicode="&#x172;" horiz-adv-x="685" d="M590 710 L546 710 C526 710 519 703 519 684 L519 242 C519 139 461 75 342 75 C223 75 165 139 165 242 L165 684 C165 703 159 710 139 710 L95 710 C75 710 69 703 69 684 L69 243 C69 86 161 -15 342 -15 C370 -15 396 -12 418 -6 C357 -69 320 -140 332 -191 C342 -232 377 -246 415 -246 C450 -246 482 -234 507 -210 C511 -206 512 -201 508 -193 L498 -167 C495 -160 489 -158 483 -163 C471 -174 457 -179 443 -179 C428 -179 415 -171 409 -155 C400 -124 438 -44 530 40 C587 85 616 155 616 243 L616 684 C616 703 609 710 590 710 L590 710 Z " />
<glyph glyph-name="uogonek" unicode="&#x173;" horiz-adv-x="551" d="M466 516 L425 516 C407 516 401 510 401 492 L401 107 C401 97 399 90 386 84 C357 75 322 67 273 67 C187 67 147 107 147 186 L147 492 C147 510 141 516 124 516 L82 516 C64 516 58 510 58 492 L58 183 C58 59 121 -15 261 -15 C317 -15 359 -8 392 2 C330 -62 300 -142 313 -191 C322 -232 357 -246 395 -246 C430 -246 463 -234 487 -210 C492 -206 492 -201 489 -193 L478 -167 C475 -160 469 -158 463 -163 C451 -174 437 -179 423 -179 C409 -179 395 -171 390 -155 C380 -124 408 -41 477 34 C487 44 490 55 490 75 L490 492 C490 510 484 516 466 516 L466 516 Z " />
<glyph glyph-name="Wcircumflex" unicode="&#x174;" horiz-adv-x="890" d="M457 905 L447 905 C425 905 420 904 401 884 L287 781 C278 770 279 761 299 761 L332 761 C352 761 357 762 369 775 L450 846 L528 775 C539 763 547 761 567 761 L602 761 C622 761 623 770 614 781 L501 884 C481 904 476 905 457 905 L457 905 Z M850 710 L804 710 C782 710 773 706 769 687 L666 252 C658 217 650 152 648 134 L643 134 C641 155 632 215 622 253 L505 679 C500 698 490 702 470 702 L428 702 C409 702 399 698 393 679 L275 253 C265 218 257 156 254 134 L249 134 C247 154 239 221 232 254 L128 687 C124 706 115 710 93 710 L40 710 C21 710 18 702 23 684 L195 21 C199 3 210 0 228 0 L270 0 C288 0 298 3 303 22 L424 466 C433 498 440 535 443 570 L449 570 C452 535 459 496 467 466 L587 21 C591 4 602 0 620 0 L662 0 C681 0 691 3 695 22 L868 684 C872 702 869 710 850 710 L850 710 Z " />
<glyph glyph-name="wcircumflex" unicode="&#x175;" horiz-adv-x="733" d="M375 720 L366 720 C344 720 339 719 320 700 L209 599 C200 589 201 580 221 580 L253 580 C272 580 277 581 289 593 L368 662 L445 593 C455 581 463 580 483 580 L517 580 C537 580 538 589 528 599 L418 700 C398 720 393 720 375 720 L375 720 Z M690 516 L664 516 C635 516 626 512 621 492 L546 223 C534 173 530 120 527 109 L522 109 C519 120 512 178 499 224 L416 485 C410 504 405 509 377 509 L359 509 C330 509 325 504 319 484 L237 222 C225 180 218 120 214 109 L210 109 C207 120 200 181 190 221 L115 492 C111 512 101 516 73 516 L43 516 C19 516 16 510 23 488 L163 19 C168 2 178 -2 196 -2 L222 -2 C240 -2 250 2 255 19 L344 314 C355 355 361 399 363 407 L367 407 C370 399 375 355 386 314 L475 19 C481 3 490 -2 509 -2 L536 -2 C554 -2 564 3 568 19 L710 488 C716 510 713 516 690 516 L690 516 Z " />
<glyph glyph-name="Ycircumflex" unicode="&#x176;" horiz-adv-x="634" d="M326 905 L317 905 C294 905 290 904 270 884 L157 781 C147 770 148 761 169 761 L202 761 C221 761 226 762 239 775 L319 846 L397 775 C409 763 416 761 436 761 L471 761 C492 761 492 770 483 781 L370 884 C350 904 345 905 326 905 L326 905 Z M605 710 L555 710 C524 710 516 709 504 687 L318 384 L134 687 C122 709 113 710 83 710 L29 710 C10 710 7 698 15 684 L269 286 L269 26 C269 7 275 0 295 0 L339 0 C359 0 365 7 365 26 L365 284 L619 684 C627 698 625 710 605 710 L605 710 Z " />
<glyph glyph-name="ycircumflex" unicode="&#x177;" horiz-adv-x="553" d="M281 720 L271 720 C249 720 245 719 226 700 L115 599 C106 589 107 580 127 580 L159 580 C178 580 183 581 195 593 L274 662 L350 593 C361 581 369 580 388 580 L423 580 C443 580 443 589 434 599 L324 700 C304 720 299 720 281 720 L281 720 Z M466 516 L425 516 C407 516 401 510 401 492 L401 107 C372 98 329 86 273 86 C187 86 147 126 147 205 L147 492 C147 510 141 516 124 516 L82 516 C64 516 58 510 58 492 L58 202 C58 77 121 4 261 4 C324 4 368 16 401 25 L401 -29 C401 -113 360 -161 273 -161 C207 -161 173 -135 149 -94 C137 -78 129 -75 110 -85 L81 -101 C63 -110 60 -122 71 -139 C106 -201 167 -241 274 -241 C429 -241 490 -155 490 -25 L490 492 C490 510 484 516 466 516 L466 516 Z " />
<glyph glyph-name="Ydieresis" unicode="&#x178;" horiz-adv-x="634" d="M224 875 L217 875 C186 875 176 864 176 834 L176 825 C176 794 186 784 217 784 L224 784 C256 784 266 794 266 825 L266 834 C266 864 256 875 224 875 L224 875 Z M421 875 L415 875 C382 875 372 864 372 834 L372 825 C372 794 382 784 415 784 L421 784 C452 784 462 794 462 825 L462 834 C462 864 452 875 421 875 L421 875 Z M605 710 L555 710 C524 710 516 709 504 687 L318 384 L134 687 C122 709 113 710 83 710 L29 710 C10 710 7 698 15 684 L269 286 L269 26 C269 7 275 0 295 0 L339 0 C359 0 365 7 365 26 L365 284 L619 684 C627 698 625 710 605 710 L605 710 Z " />
<glyph glyph-name="Zacute" unicode="&#x179;" horiz-adv-x="576" d="M340 900 L185 805 C173 798 173 793 183 780 L195 765 C202 756 210 758 225 764 L401 847 C416 854 416 861 404 875 L384 899 C371 914 356 909 340 900 L340 900 Z M510 710 L64 710 C45 710 38 703 38 684 L38 646 C38 627 45 620 64 620 L415 620 L43 92 C36 83 33 75 33 63 L33 26 C33 7 40 0 60 0 L518 0 C538 0 544 7 544 26 L544 64 C544 84 538 90 518 90 L154 90 L527 619 C534 627 536 635 536 647 L536 684 C536 703 529 710 510 710 L510 710 Z " />
<glyph glyph-name="zacute" unicode="&#x17a;" horiz-adv-x="463" d="M278 724 L123 629 C111 622 111 616 122 603 L133 588 C140 580 148 581 163 587 L339 671 C354 677 354 684 342 698 L323 722 C310 737 294 732 278 724 L278 724 Z M409 81 L144 81 L419 432 C425 442 428 447 428 459 L428 492 C428 510 422 516 404 516 L58 516 C41 516 35 510 35 492 L35 459 C35 441 41 435 58 435 L312 435 L39 82 C32 73 30 69 30 57 L30 24 C30 6 36 0 54 0 L409 0 C426 0 432 6 432 24 L432 57 C432 75 426 81 409 81 L409 81 Z " />
<glyph glyph-name="Zdotaccent" unicode="&#x17b;" horiz-adv-x="576" d="M296 874 L291 874 C257 874 248 864 248 831 L248 824 C248 791 257 781 291 781 L296 781 C329 781 339 791 339 824 L339 831 C339 864 329 874 296 874 L296 874 Z M510 710 L64 710 C45 710 38 703 38 684 L38 646 C38 627 45 620 64 620 L415 620 L43 92 C36 83 33 75 33 63 L33 26 C33 7 40 0 60 0 L518 0 C538 0 544 7 544 26 L544 64 C544 84 538 90 518 90 L154 90 L527 619 C534 627 536 635 536 647 L536 684 C536 703 529 710 510 710 L510 710 Z " />
<glyph glyph-name="zdotaccent" unicode="&#x17c;" horiz-adv-x="463" d="M234 696 L229 696 C196 696 186 686 186 653 L186 646 C186 613 196 603 229 603 L234 603 C267 603 277 613 277 646 L277 653 C277 686 267 696 234 696 L234 696 Z M409 81 L144 81 L419 432 C425 442 428 447 428 459 L428 492 C428 510 422 516 404 516 L58 516 C41 516 35 510 35 492 L35 459 C35 441 41 435 58 435 L312 435 L39 82 C32 73 30 69 30 57 L30 24 C30 6 36 0 54 0 L409 0 C426 0 432 6 432 24 L432 57 C432 75 426 81 409 81 L409 81 Z " />
<glyph glyph-name="Zcaron" unicode="&#x17d;" horiz-adv-x="576" d="M443 904 L408 904 C388 904 380 902 369 890 L291 819 L210 890 C198 903 193 904 173 904 L140 904 C120 904 119 894 129 884 L242 781 C261 761 266 760 288 760 L298 760 C316 760 321 761 342 781 L454 884 C464 894 463 904 443 904 L443 904 Z M510 710 L64 710 C45 710 38 703 38 684 L38 646 C38 627 45 620 64 620 L415 620 L43 92 C36 83 33 75 33 63 L33 26 C33 7 40 0 60 0 L518 0 C538 0 544 7 544 26 L544 64 C544 84 538 90 518 90 L154 90 L527 619 C534 627 536 635 536 647 L536 684 C536 703 529 710 510 710 L510 710 Z " />
<glyph glyph-name="zcaron" unicode="&#x17e;" horiz-adv-x="463" d="M366 704 L334 704 C317 704 310 703 300 692 L229 627 L157 692 C145 703 141 704 123 704 L93 704 C75 704 74 696 83 686 L185 593 C202 575 206 574 227 574 L236 574 C252 574 257 574 275 593 L376 686 C385 695 385 704 366 704 L366 704 Z M409 81 L144 81 L419 432 C425 442 428 447 428 459 L428 492 C428 510 422 516 404 516 L58 516 C41 516 35 510 35 492 L35 459 C35 441 41 435 58 435 L312 435 L39 82 C32 73 30 69 30 57 L30 24 C30 6 36 0 54 0 L409 0 C426 0 432 6 432 24 L432 57 C432 75 426 81 409 81 L409 81 Z " />
<glyph glyph-name="longs" unicode="&#x17f;" horiz-adv-x="276" d="M103 535 L103 516 L34 516 C17 516 11 510 11 492 L11 457 C11 439 17 433 34 433 L103 433 L103 24 C103 6 109 0 128 0 L168 0 C187 0 193 6 193 24 L193 528 C193 620 224 657 322 657 C340 657 346 663 346 681 L346 716 C346 734 340 740 322 740 C170 740 103 676 103 535 L103 535 Z " />
<glyph glyph-name="florin" unicode="&#x192;" horiz-adv-x="452" d="M192 530 L179 399 L55 399 C37 399 31 393 31 375 L31 340 C31 322 37 316 55 316 L170 316 L136 -6 C127 -85 96 -137 3 -137 C-16 -137 -22 -143 -22 -161 L-22 -196 C-22 -214 -16 -220 3 -220 C153 -220 212 -138 225 -9 L260 316 L390 316 C408 316 414 322 414 340 L414 375 C414 393 408 399 390 399 L268 399 L282 526 C291 606 321 657 415 657 C433 657 439 663 439 681 L439 716 C439 734 433 740 415 740 C264 740 206 659 192 530 L192 530 Z " />
<glyph glyph-name="Aringacute" unicode="&#x1fa;" horiz-adv-x="648" d="M374 959 L234 895 C222 889 217 882 226 872 L237 861 C242 855 250 855 265 860 L430 920 C444 924 444 929 434 939 L416 958 C403 970 388 966 374 959 L374 959 Z M217 745 C217 711 236 684 266 670 L11 26 C4 9 8 0 28 0 L63 0 C96 0 105 5 111 23 L175 189 L468 189 L531 23 C537 5 547 0 579 0 L619 0 C638 0 643 9 636 26 L382 670 C411 683 430 711 430 745 C430 805 386 848 325 848 C262 848 217 805 217 745 L217 745 Z M380 748 C380 719 357 697 325 697 C291 697 267 719 267 748 C267 780 291 802 325 802 C357 802 380 780 380 748 L380 748 Z M361 484 L440 269 L203 269 L284 485 C305 544 313 606 318 620 L324 620 C330 606 339 543 361 484 L361 484 Z " />
<glyph glyph-name="aringacute" unicode="&#x1fb;" horiz-adv-x="516" d="M300 895 L154 824 C143 819 143 815 153 805 L164 794 C170 788 178 789 192 793 L356 855 C371 860 370 865 359 876 L341 893 C329 905 314 901 300 895 L300 895 Z M152 671 C152 611 195 570 258 570 C319 570 361 611 361 671 C361 732 319 773 258 773 C195 773 152 732 152 671 L152 671 Z M315 671 C315 637 292 615 258 615 C222 615 198 637 198 671 C198 705 222 728 258 728 C292 728 315 705 315 671 L315 671 Z M52 426 C43 408 48 399 65 392 L96 378 C114 371 118 374 129 390 C153 430 193 451 253 451 C347 451 372 403 372 332 L372 294 C355 296 307 301 258 301 C99 301 35 261 35 144 C35 42 78 -15 254 -15 C332 -15 389 -5 426 11 C454 23 462 33 462 68 L462 329 C462 442 417 531 255 531 C153 531 86 492 52 426 L52 426 Z M372 220 L372 94 C372 80 369 77 357 72 C334 64 300 60 246 60 C146 60 125 92 125 144 C125 201 154 228 248 228 C297 228 352 222 372 220 L372 220 Z " />
<glyph glyph-name="AEacute" unicode="&#x1fc;" horiz-adv-x="843" d="M653 900 L498 805 C486 798 486 793 497 780 L508 765 C515 756 523 758 538 764 L714 847 C729 854 729 861 717 875 L697 899 C685 914 669 909 653 900 L653 900 Z M782 90 L515 90 L515 314 L724 314 C743 314 750 321 750 341 L750 378 C750 398 743 404 724 404 L515 404 L515 620 L770 620 C790 620 796 627 796 646 L796 684 C796 703 790 710 770 710 L443 710 C425 710 420 704 410 688 L-2 26 C-8 9 -4 0 16 0 L57 0 C90 0 96 7 106 23 L189 163 L421 163 L421 26 C421 7 428 0 448 0 L782 0 C802 0 808 7 808 26 L808 64 C808 83 802 90 782 90 L782 90 Z M421 548 L421 243 L237 243 L421 548 Z " />
<glyph glyph-name="aeacute" unicode="&#x1fd;" horiz-adv-x="793" d="M438 727 L282 633 C270 626 270 620 281 607 L292 592 C299 583 308 585 323 591 L498 674 C514 681 513 688 501 702 L482 726 C469 741 453 736 438 727 L438 727 Z M53 426 C43 408 49 399 66 392 L97 379 C114 372 119 375 130 390 C154 430 186 451 238 451 C323 451 341 405 341 342 L341 293 C323 295 282 300 242 300 C93 300 35 260 35 143 C35 41 76 -15 238 -15 C329 -15 374 10 406 35 C435 4 483 -15 546 -15 C654 -15 706 26 741 87 C752 104 749 117 732 126 L704 141 C686 150 678 148 666 131 C641 89 611 63 547 63 C466 63 431 106 431 182 L431 231 L719 231 C746 231 755 245 755 266 L755 325 C755 443 695 531 548 531 C472 531 420 505 390 458 C365 501 322 531 240 531 C146 531 87 492 53 426 L53 426 Z M666 330 L666 300 L431 300 L431 330 C431 408 465 455 548 455 C632 455 666 408 666 330 L666 330 Z M341 220 L341 158 C341 137 342 118 345 100 C342 90 318 60 230 60 C143 60 126 91 126 143 C126 199 148 227 233 227 C272 227 320 222 341 220 L341 220 Z " />
<glyph glyph-name="Oslashacute" unicode="&#x1fe;" horiz-adv-x="666" d="M383 910 L228 815 C216 808 216 803 227 790 L238 775 C245 766 253 768 268 774 L444 857 C459 864 459 871 447 885 L428 909 C415 924 399 919 383 910 L383 910 Z M617 752 L565 752 C556 752 553 751 548 744 L507 680 C463 709 405 725 333 725 C152 725 53 627 53 469 L53 241 C53 168 74 107 114 65 L53 -31 C50 -37 51 -41 58 -41 L109 -41 C121 -41 122 -40 127 -33 L164 26 C207 -1 264 -15 333 -15 C514 -13 613 83 613 241 L613 469 C613 539 593 597 556 640 L622 743 C625 748 624 752 617 752 L617 752 Z M457 600 L175 159 C158 180 150 208 150 241 L150 469 C150 575 215 635 333 635 C385 635 426 622 457 600 L457 600 Z M215 106 L495 545 C509 525 516 499 516 469 L516 241 C516 135 451 75 333 75 C285 75 245 86 215 106 L215 106 Z " />
<glyph glyph-name="oslashacute" unicode="&#x1ff;" horiz-adv-x="541" d="M317 724 L162 629 C150 622 150 616 160 603 L172 588 C179 580 187 581 202 587 L377 671 C393 677 393 684 381 698 L361 722 C348 737 333 732 317 724 L317 724 Z M476 552 L440 552 C431 552 429 551 424 544 L398 504 C364 522 321 531 270 531 C129 531 46 458 46 339 L46 176 C46 118 66 71 103 39 L62 -26 C58 -31 60 -35 66 -35 L101 -35 C113 -35 114 -34 119 -27 L144 12 C178 -5 221 -15 270 -15 C414 -15 495 58 495 176 L495 339 C495 397 475 445 439 478 L480 543 C483 549 483 552 476 552 L476 552 Z M352 431 L157 123 C143 137 135 155 135 176 L135 340 C135 409 186 450 270 450 C303 450 330 443 352 431 L352 431 Z M189 85 L385 393 C398 380 406 361 406 340 L406 176 C406 107 355 66 270 66 C238 66 211 73 189 85 L189 85 Z " />
<glyph glyph-name="Scommaaccent" unicode="&#x218;" horiz-adv-x="629" d="M48 513 C48 345 193 325 316 312 C409 301 493 286 493 200 C493 115 431 76 313 76 C223 76 164 115 132 189 C124 208 116 211 98 205 L57 190 C38 183 33 175 40 156 C84 43 163 -15 313 -15 C493 -15 590 70 590 202 C590 364 458 390 339 404 C239 415 147 430 147 519 C147 593 205 632 314 632 C405 632 452 597 486 531 C495 513 502 510 520 518 L562 537 C580 545 585 554 576 572 C527 674 453 725 314 725 C141 725 48 638 48 513 L48 513 Z M329 -234 L376 -96 C381 -79 376 -71 353 -71 L313 -71 C293 -71 286 -75 284 -96 L257 -239 C255 -252 258 -256 272 -256 L301 -256 C317 -256 323 -250 329 -234 L329 -234 Z " />
<glyph glyph-name="scommaaccent" unicode="&#x219;" horiz-adv-x="500" d="M42 376 C42 247 145 230 245 220 C329 212 378 201 378 141 C378 92 338 65 253 65 C183 65 138 85 118 137 C110 155 102 157 86 152 L52 140 C34 134 30 124 37 108 C68 26 142 -15 256 -15 C396 -15 465 50 465 145 C465 263 381 288 267 299 C184 306 131 314 131 378 C131 426 168 450 245 450 C322 450 354 424 373 385 C383 369 388 366 406 374 L440 388 C456 395 461 405 452 423 C422 488 359 531 243 531 C110 531 42 469 42 376 L42 376 Z M267 -200 L305 -75 C312 -56 307 -47 285 -47 L251 -47 C230 -47 223 -53 220 -75 L196 -203 C195 -218 198 -222 213 -222 L237 -222 C255 -222 261 -217 267 -200 L267 -200 Z " />
<glyph glyph-name="uni021A" unicode="&#x21a;" horiz-adv-x="554" d="M514 710 L40 710 C20 710 14 703 14 684 L14 646 C14 627 20 620 40 620 L229 620 L229 26 C229 7 235 0 255 0 L299 0 C319 0 325 7 325 26 L325 620 L514 620 C533 620 540 627 540 646 L540 684 C540 703 533 710 514 710 L514 710 Z M280 -230 L327 -92 C333 -75 327 -67 304 -67 L264 -67 C245 -67 237 -72 235 -92 L208 -235 C206 -249 209 -253 224 -253 L252 -253 C269 -253 275 -247 280 -230 L280 -230 Z " />
<glyph glyph-name="uni021B" unicode="&#x21b;" horiz-adv-x="372" d="M179 636 L137 636 C119 636 114 630 114 612 L114 516 L31 516 C13 516 7 510 7 492 L7 457 C7 439 13 433 31 433 L114 433 L114 198 C114 31 173 -18 332 -14 C351 -13 357 -8 357 10 L357 46 C357 65 351 70 332 70 C235 70 203 91 203 200 L203 433 L334 433 C351 433 357 439 357 457 L357 492 C357 510 351 516 334 516 L203 516 L203 612 C203 630 197 636 179 636 L179 636 Z M227 -230 L273 -92 C279 -75 273 -67 251 -67 L211 -67 C191 -67 184 -72 182 -92 L154 -235 C153 -249 156 -253 170 -253 L199 -253 C215 -253 221 -247 227 -230 L227 -230 Z " />
<glyph glyph-name="dotlessj" unicode="&#x237;" horiz-adv-x="215" d="M128 516 L87 516 C69 516 63 510 63 492 L63 -6 C63 -94 33 -147 -65 -147 C-83 -147 -89 -153 -89 -171 L-89 -206 C-89 -224 -83 -230 -65 -230 C90 -230 152 -149 152 -8 L152 492 C152 510 146 516 128 516 L128 516 Z " />
<glyph glyph-name="circumflex" unicode="&#x2c6;" horiz-adv-x="385" d="M197 729 L187 729 C165 729 160 728 141 708 L28 605 C18 595 19 585 39 585 L72 585 C92 585 97 586 109 599 L190 670 L268 599 C279 587 287 585 307 585 L342 585 C362 585 363 595 354 605 L241 708 C221 728 216 729 197 729 L197 729 Z " />
<glyph glyph-name="caron" unicode="&#x2c7;" horiz-adv-x="332" d="M316 728 L281 728 C261 728 253 726 242 714 L164 643 L83 714 C71 727 66 728 46 728 L12 728 C-7 728 -8 718 2 708 L115 605 C134 585 139 584 161 584 L171 584 C190 584 195 585 215 605 L327 708 C337 718 337 728 316 728 L316 728 Z " />
<glyph glyph-name="breve" unicode="&#x2d8;" horiz-adv-x="287" d="M292 693 C296 705 293 710 281 715 L245 728 C234 731 230 730 225 719 C212 675 182 653 138 653 C94 653 64 675 52 719 C47 730 41 731 27 727 L-4 715 C-16 711 -18 705 -14 693 C7 624 61 587 138 587 C216 587 269 624 292 693 L292 693 Z " />
<glyph glyph-name="dotaccent" unicode="&#x2d9;" horiz-adv-x="216" d="M111 699 L105 699 C72 699 62 690 62 657 L62 650 C62 617 72 607 105 607 L111 607 C144 607 154 617 154 650 L154 657 C154 690 144 699 111 699 L111 699 Z " />
<glyph glyph-name="ring" unicode="&#x2da;" horiz-adv-x="240" d="M16 653 C16 593 59 552 122 552 C183 552 225 593 225 653 C225 714 183 756 122 756 C59 756 16 714 16 653 L16 653 Z M179 653 C179 620 156 597 122 597 C86 597 62 620 62 653 C62 688 86 710 122 710 C156 710 179 688 179 653 L179 653 Z " />
<glyph glyph-name="ogonek" unicode="&#x2db;" horiz-adv-x="252" d="M192 0 L132 0 C58 -65 24 -138 38 -191 C47 -232 82 -246 120 -246 C155 -246 188 -234 212 -210 C217 -206 217 -201 214 -193 L203 -167 C200 -160 194 -158 188 -163 C177 -174 162 -179 148 -179 C134 -179 120 -171 115 -155 C105 -124 130 -65 192 0 L192 0 Z " />
<glyph glyph-name="tilde" unicode="&#x2dc;" horiz-adv-x="305" d="M291 718 L266 718 C254 718 252 713 252 703 C252 672 241 655 219 655 C172 655 149 718 79 718 C27 718 -1 687 -1 613 C-1 602 3 598 14 598 L40 598 C50 598 54 602 54 613 C54 643 66 660 87 660 C135 660 159 598 225 598 C281 598 306 629 306 703 C306 713 303 718 291 718 L291 718 Z " />
<glyph glyph-name="hungarumlaut" unicode="&#x2dd;" horiz-adv-x="395" d="M136 712 L55 611 C47 600 47 592 63 587 L77 583 C88 579 94 582 106 593 L211 692 C223 704 221 713 204 719 L176 728 C157 733 146 727 136 712 L136 712 Z M308 711 L221 609 C213 598 213 590 229 585 L243 580 C253 576 259 580 271 590 L385 692 C398 702 395 712 378 718 L348 727 C329 733 319 726 308 711 L308 711 Z " />
<glyph glyph-name="uni0326" unicode="&#x326;" d="M135 -230 L182 -92 C188 -75 182 -67 160 -67 L119 -67 C100 -67 93 -72 91 -92 L63 -235 C62 -249 65 -253 79 -253 L108 -253 C124 -253 130 -247 135 -230 L135 -230 Z " />
<glyph glyph-name="pi" unicode="&#x3c0;" horiz-adv-x="629" d="M582 516 L166 516 C106 516 68 510 20 485 C4 478 1 470 9 454 L23 421 C30 404 38 404 54 411 C86 427 103 433 135 434 L135 24 C135 6 141 0 158 0 L200 0 C218 0 224 6 224 24 L224 434 L448 434 L448 152 C448 96 453 60 478 13 C486 -5 494 -7 512 0 L546 14 C565 22 567 33 559 50 C541 84 537 105 537 148 L537 434 L582 434 C600 434 606 441 606 458 L606 492 C606 510 600 516 582 516 L582 516 Z " />
<glyph glyph-name="uni0401" unicode="&#x401;" horiz-adv-x="576" d="M208 867 L201 867 C170 867 160 857 160 826 L160 817 C160 786 170 776 201 776 L208 776 C240 776 250 786 250 817 L250 826 C250 857 240 867 208 867 L208 867 Z M405 867 L399 867 C366 867 356 857 356 826 L356 817 C356 786 366 776 399 776 L405 776 C436 776 447 786 447 817 L447 826 C447 857 436 867 405 867 L405 867 Z M502 710 L100 710 C81 710 74 703 74 684 L74 26 C74 7 81 0 100 0 L514 0 C534 0 540 7 540 26 L540 64 C540 83 534 90 514 90 L171 90 L171 315 L456 315 C476 315 482 321 482 341 L482 378 C482 398 476 405 456 405 L171 405 L171 620 L502 620 C522 620 528 627 528 646 L528 684 C528 703 522 710 502 710 L502 710 Z " />
<glyph glyph-name="uni0410" unicode="&#x410;" horiz-adv-x="649" d="M637 26 L377 691 C371 708 363 712 344 712 L304 712 C285 712 277 708 271 690 L11 26 C5 9 9 0 29 0 L64 0 C96 0 105 5 112 23 L174 186 L470 186 L532 23 C538 5 547 0 580 0 L619 0 C639 0 643 9 637 26 L637 26 Z M343 528 L443 265 L201 265 L302 529 C318 575 318 620 319 622 L325 622 C325 620 327 575 343 528 L343 528 Z " />
<glyph glyph-name="uni0411" unicode="&#x411;" horiz-adv-x="631" d="M523 710 L100 710 C81 710 74 703 74 684 L74 25 C74 6 81 0 100 0 L386 0 C517 0 600 79 600 211 C600 343 517 421 386 421 L171 421 L171 620 L523 620 C543 620 550 627 550 646 L550 684 C550 703 543 710 523 710 L523 710 Z M499 211 C499 136 453 90 376 90 L171 90 L171 331 L376 331 C453 331 499 285 499 211 L499 211 Z " />
<glyph glyph-name="uni0412" unicode="&#x412;" horiz-adv-x="647" d="M380 710 L100 710 C81 710 74 703 74 684 L74 26 C74 7 81 0 100 0 L389 0 C517 0 605 68 605 193 C605 286 564 346 493 367 L493 370 C551 398 579 449 579 526 C579 645 505 710 380 710 L380 710 Z M480 512 C480 440 441 405 369 405 L171 405 L171 620 L369 620 C441 620 480 584 480 512 L480 512 Z M502 203 C502 128 461 90 386 90 L171 90 L171 317 L386 317 C461 317 502 277 502 203 L502 203 Z " />
<glyph glyph-name="uni0413" unicode="&#x413;" horiz-adv-x="515" d="M474 710 L100 710 C81 710 74 703 74 684 L74 26 C74 7 81 0 100 0 L144 0 C164 0 171 7 171 26 L171 620 L474 620 C494 620 500 627 500 646 L500 684 C500 703 494 710 474 710 L474 710 Z " />
<glyph glyph-name="uni0414" unicode="&#x414;" horiz-adv-x="724" d="M594 710 L197 710 C178 710 171 703 171 684 L171 479 C171 184 117 120 73 90 L43 90 C23 90 17 83 17 64 L17 -127 C17 -146 23 -153 43 -153 L85 -153 C105 -153 111 -146 111 -127 L111 0 L610 0 L610 -127 C610 -146 617 -153 637 -153 L679 -153 C699 -153 705 -146 705 -127 L705 64 C705 83 699 90 679 90 L621 90 L621 684 C621 703 614 710 594 710 L594 710 Z M264 620 L524 620 L524 90 L187 90 C227 142 264 232 264 479 L264 620 Z " />
<glyph glyph-name="uni0415" unicode="&#x415;" horiz-adv-x="576" d="M502 710 L100 710 C81 710 74 703 74 684 L74 26 C74 7 81 0 100 0 L514 0 C534 0 540 7 540 26 L540 64 C540 83 534 90 514 90 L171 90 L171 315 L456 315 C476 315 482 321 482 341 L482 378 C482 398 476 405 456 405 L171 405 L171 620 L502 620 C522 620 528 627 528 646 L528 684 C528 703 522 710 502 710 L502 710 Z " />
<glyph glyph-name="uni0416" unicode="&#x416;" horiz-adv-x="928" d="M884 710 L835 710 C804 710 795 708 783 688 L597 402 C585 404 573 404 559 404 L512 404 L512 684 C512 703 506 710 486 710 L442 710 C422 710 416 703 416 684 L416 404 L369 404 C356 404 344 404 331 402 L146 688 C133 708 124 710 93 710 L44 710 C25 710 22 698 31 685 L239 374 C199 354 171 321 147 272 L20 27 C12 12 14 0 33 0 L77 0 C110 0 120 4 130 23 L236 237 C265 296 294 316 369 316 L416 316 L416 26 C416 7 422 0 442 0 L486 0 C506 0 512 7 512 26 L512 316 L559 316 C634 316 663 296 692 237 L798 23 C808 4 818 0 851 0 L895 0 C914 0 916 12 908 27 L782 272 C757 321 729 354 689 374 L897 685 C907 697 903 710 884 710 L884 710 Z " />
<glyph glyph-name="uni0417" unicode="&#x417;" horiz-adv-x="627" d="M562 523 C562 650 481 725 326 725 C163 725 79 665 43 555 C36 537 41 528 59 522 L101 507 C120 502 127 504 134 523 C159 598 207 635 320 635 C416 635 464 593 464 515 C464 452 429 405 356 405 L210 405 C190 405 183 399 183 379 L183 344 C183 324 190 318 210 318 L367 318 C443 318 482 272 482 200 C482 123 435 75 326 75 C205 75 153 114 128 189 C121 208 113 212 95 206 L53 191 C35 184 30 176 37 157 C73 47 161 -15 326 -15 C503 -15 584 67 584 196 C584 273 557 338 476 369 C536 397 562 453 562 523 L562 523 Z " />
<glyph glyph-name="uni0418" unicode="&#x418;" horiz-adv-x="696" d="M596 710 L551 710 C537 710 530 705 525 697 L265 313 C216 239 189 193 156 121 L153 121 C166 203 171 247 171 343 L171 684 C171 703 164 710 144 710 L100 710 C81 710 74 703 74 684 L74 26 C74 7 81 0 100 0 L145 0 C159 0 165 3 172 13 L437 406 C485 480 509 519 540 589 L544 589 C530 509 526 469 526 374 L526 26 C526 7 532 0 552 0 L596 0 C616 0 622 7 622 26 L622 684 C622 703 616 710 596 710 L596 710 Z " />
<glyph glyph-name="uni0419" unicode="&#x419;" horiz-adv-x="696" d="M519 871 C524 884 521 888 508 894 L469 907 C457 910 452 908 447 897 C432 853 400 830 351 830 C303 830 271 853 257 897 C251 908 245 910 230 906 L196 894 C183 889 180 884 184 871 C208 801 267 764 351 764 C436 764 495 801 519 871 L519 871 Z M596 710 L551 710 C537 710 530 705 525 697 L265 313 C216 239 189 193 156 121 L153 121 C166 203 171 247 171 343 L171 684 C171 703 164 710 144 710 L100 710 C81 710 74 703 74 684 L74 26 C74 7 81 0 100 0 L145 0 C159 0 165 3 172 13 L437 406 C485 480 509 519 540 589 L544 589 C530 509 526 469 526 374 L526 26 C526 7 532 0 552 0 L596 0 C616 0 622 7 622 26 L622 684 C622 703 616 710 596 710 L596 710 Z " />
<glyph glyph-name="uni041A" unicode="&#x41a;" horiz-adv-x="617" d="M598 27 L471 272 C442 330 408 367 356 385 L587 685 C597 697 592 710 574 710 L525 710 C494 710 487 707 472 688 L259 404 L241 404 L171 404 L171 684 C171 703 164 710 144 710 L100 710 C81 710 74 703 74 684 L74 26 C74 7 81 0 100 0 L144 0 C164 0 171 7 171 26 L171 316 L249 316 C324 316 352 296 382 237 L488 23 C497 4 508 0 540 0 L584 0 C604 0 606 12 598 27 L598 27 Z " />
<glyph glyph-name="uni041B" unicode="&#x41b;" horiz-adv-x="665" d="M564 710 L172 710 C153 710 146 703 146 684 L146 464 C146 144 82 107 20 76 C2 68 -2 58 7 40 L27 2 C35 -16 44 -18 62 -10 C156 36 241 92 241 464 L241 620 L494 620 L494 26 C494 7 501 0 520 0 L564 0 C584 0 591 7 591 26 L591 684 C591 703 584 710 564 710 L564 710 Z " />
<glyph glyph-name="uni041C" unicode="&#x41c;" horiz-adv-x="805" d="M705 710 L667 710 C646 710 640 706 631 689 L402 281 L172 690 C163 706 157 710 135 710 L100 710 C81 710 74 703 74 684 L74 26 C74 7 81 0 100 0 L138 0 C158 0 164 7 164 26 L164 387 C164 446 160 504 148 575 L154 575 C178 505 198 462 229 409 L358 181 C367 166 373 162 389 162 L414 162 C430 162 437 167 445 181 L572 407 C602 460 627 508 652 575 L657 575 C645 505 639 443 639 387 L639 26 C639 7 645 0 665 0 L705 0 C724 0 731 7 731 26 L731 684 C731 703 724 710 705 710 L705 710 Z " />
<glyph glyph-name="uni041D" unicode="&#x41d;" horiz-adv-x="683" d="M583 710 L539 710 C519 710 513 703 513 684 L513 405 L171 405 L171 684 C171 703 164 710 144 710 L100 710 C81 710 74 703 74 684 L74 26 C74 7 81 0 100 0 L144 0 C164 0 171 7 171 26 L171 315 L513 315 L513 26 C513 7 519 0 539 0 L583 0 C603 0 609 7 609 26 L609 684 C609 703 603 710 583 710 L583 710 Z " />
<glyph glyph-name="uni041E" unicode="&#x41e;" horiz-adv-x="666" d="M53 469 L53 241 C53 83 152 -15 333 -15 C514 -15 613 83 613 241 L613 469 C613 627 514 725 333 725 C152 725 53 627 53 469 L53 469 Z M516 469 L516 241 C516 135 451 75 333 75 C215 75 150 135 150 241 L150 469 C150 575 215 635 333 635 C451 635 516 575 516 469 L516 469 Z " />
<glyph glyph-name="uni041F" unicode="&#x41f;" horiz-adv-x="678" d="M577 710 L100 710 C81 710 74 703 74 684 L74 26 C74 7 81 0 100 0 L144 0 C164 0 171 7 171 26 L171 620 L507 620 L507 26 C507 7 514 0 533 0 L577 0 C597 0 604 7 604 26 L604 684 C604 703 597 710 577 710 L577 710 Z " />
<glyph glyph-name="uni0420" unicode="&#x420;" horiz-adv-x="627" d="M367 710 L100 710 C81 710 74 703 74 684 L74 26 C74 7 81 0 100 0 L144 0 C164 0 171 7 171 26 L171 258 L367 258 C509 258 597 342 597 483 C597 625 508 710 367 710 L367 710 Z M358 348 L171 348 L171 620 L358 620 C444 620 496 569 496 483 C496 397 444 348 358 348 L358 348 Z " />
<glyph glyph-name="uni0421" unicode="&#x421;" horiz-adv-x="638" d="M53 469 L53 241 C53 83 153 -15 333 -15 C485 -15 567 47 603 157 C610 176 605 185 586 191 L545 206 C526 213 518 209 511 189 C486 114 435 75 333 75 C215 75 150 136 150 240 L150 470 C150 575 214 635 333 635 C433 635 485 598 510 523 C517 504 525 501 544 507 L585 521 C604 528 608 536 602 555 C566 665 483 725 333 725 C152 725 53 627 53 469 L53 469 Z " />
<glyph glyph-name="uni0422" unicode="&#x422;" horiz-adv-x="554" d="M514 710 L40 710 C20 710 14 703 14 684 L14 646 C14 627 20 620 40 620 L229 620 L229 26 C229 7 235 0 255 0 L299 0 C319 0 325 7 325 26 L325 620 L514 620 C533 620 540 627 540 646 L540 684 C540 703 533 710 514 710 L514 710 Z " />
<glyph glyph-name="uni0423" unicode="&#x423;" horiz-adv-x="602" d="M577 710 L533 710 C503 710 496 710 486 687 L308 313 L117 687 C106 710 97 710 66 710 L21 710 C2 710 0 699 8 684 L257 205 L167 26 C159 11 161 0 180 0 L232 0 C260 0 267 4 275 23 L591 684 C597 699 597 710 577 710 L577 710 Z " />
<glyph glyph-name="uni0424" unicode="&#x424;" horiz-adv-x="831" d="M438 735 L394 735 C374 735 367 728 367 709 L367 650 L309 650 C133 650 39 554 39 396 L39 319 C39 161 133 65 309 65 L367 65 L367 6 C367 -13 374 -20 394 -20 L438 -20 C457 -20 464 -13 464 6 L464 65 L522 65 C698 65 792 161 792 319 L792 396 C792 554 698 650 522 650 L464 650 L464 709 C464 728 457 735 438 735 L438 735 Z M309 563 L367 563 L367 152 L309 152 C195 152 136 211 136 315 L136 400 C136 504 195 563 309 563 L309 563 Z M695 400 L695 315 C695 211 637 152 522 152 L464 152 L464 563 L522 563 C637 563 695 504 695 400 L695 400 Z " />
<glyph glyph-name="uni0425" unicode="&#x425;" horiz-adv-x="627" d="M609 27 L374 362 L601 685 C610 697 606 710 588 710 L534 710 C506 710 500 707 486 688 L314 438 L142 688 C128 707 122 710 91 710 L39 710 C21 710 16 697 26 685 L252 361 L18 27 C8 13 11 0 31 0 L81 0 C112 0 118 2 132 23 L309 287 L491 23 C505 2 512 0 542 0 L596 0 C616 0 620 14 609 27 L609 27 Z " />
<glyph glyph-name="uni0426" unicode="&#x426;" horiz-adv-x="703" d="M656 90 L599 90 L599 684 C599 703 593 710 573 710 L529 710 C509 710 503 703 503 684 L503 90 L171 90 L171 684 C171 703 164 710 144 710 L100 710 C81 710 74 703 74 684 L74 26 C74 7 81 0 100 0 L589 0 L589 -127 C589 -146 596 -153 615 -153 L656 -153 C676 -153 682 -146 682 -127 L682 64 C682 83 676 90 656 90 L656 90 Z " />
<glyph glyph-name="uni0427" unicode="&#x427;" horiz-adv-x="635" d="M535 710 L490 710 C471 710 464 703 464 684 L464 372 C448 367 384 353 300 353 C180 353 135 409 135 508 L135 684 C135 703 128 710 109 710 L65 710 C45 710 38 703 38 684 L38 508 C38 352 109 263 295 263 C381 263 447 276 464 280 L464 26 C464 7 471 0 490 0 L535 0 C554 0 561 7 561 26 L561 684 C561 703 554 710 535 710 L535 710 Z " />
<glyph glyph-name="uni0428" unicode="&#x428;" horiz-adv-x="918" d="M818 710 L774 710 C754 710 748 703 748 684 L748 90 L508 90 L508 684 C508 703 501 710 481 710 L437 710 C418 710 411 703 411 684 L411 90 L171 90 L171 684 C171 703 164 710 144 710 L100 710 C81 710 74 703 74 684 L74 26 C74 7 81 0 100 0 L818 0 C838 0 844 7 844 26 L844 684 C844 703 838 710 818 710 L818 710 Z " />
<glyph glyph-name="uni0429" unicode="&#x429;" horiz-adv-x="948" d="M902 90 L844 90 L844 684 C844 703 838 710 818 710 L774 710 C754 710 748 703 748 684 L748 90 L508 90 L508 684 C508 703 501 710 481 710 L437 710 C418 710 411 703 411 684 L411 90 L171 90 L171 684 C171 703 164 710 144 710 L100 710 C81 710 74 703 74 684 L74 26 C74 7 81 0 100 0 L835 0 L835 -127 C835 -146 842 -153 861 -153 L902 -153 C921 -153 928 -146 928 -127 L928 64 C928 83 921 90 902 90 L902 90 Z " />
<glyph glyph-name="uni042A" unicode="&#x42a;" horiz-adv-x="736" d="M476 452 L280 452 L280 684 C280 703 273 710 253 710 L40 710 C20 710 14 703 14 684 L14 646 C14 627 20 620 40 620 L183 620 L183 26 C183 7 190 0 209 0 L476 0 C617 0 706 85 706 227 C706 368 618 452 476 452 L476 452 Z M467 90 L280 90 L280 362 L467 362 C553 362 606 313 606 227 C606 141 553 90 467 90 L467 90 Z " />
<glyph glyph-name="uni042B" unicode="&#x42b;" horiz-adv-x="882" d="M100 0 L367 0 C508 0 597 85 597 227 C597 368 509 452 367 452 L171 452 L171 684 C171 703 164 710 144 710 L100 710 C81 710 74 703 74 684 L74 26 C74 7 81 0 100 0 L100 0 Z M712 684 L712 26 C712 7 718 0 738 0 L782 0 C802 0 808 7 808 26 L808 684 C808 703 802 710 782 710 L738 710 C718 710 712 703 712 684 L712 684 Z M171 362 L358 362 C444 362 496 313 496 227 C496 141 444 90 358 90 L171 90 L171 362 Z " />
<glyph glyph-name="uni042C" unicode="&#x42c;" horiz-adv-x="627" d="M100 0 L367 0 C508 0 597 85 597 227 C597 368 509 452 367 452 L171 452 L171 684 C171 703 164 710 144 710 L100 710 C81 710 74 703 74 684 L74 26 C74 7 81 0 100 0 L100 0 Z M171 362 L358 362 C444 362 496 313 496 227 C496 141 444 90 358 90 L171 90 L171 362 Z " />
<glyph glyph-name="uni042D" unicode="&#x42d;" horiz-adv-x="642" d="M40 555 C34 537 38 528 57 522 L98 507 C117 502 125 504 132 523 C157 598 209 635 309 635 C428 635 492 575 492 471 L492 404 L218 404 C198 404 192 398 192 378 L192 341 C192 321 198 314 218 314 L492 314 L492 240 C492 136 427 75 309 75 C207 75 156 114 131 189 C124 208 116 212 97 206 L56 191 C37 184 33 176 39 157 C76 47 157 -15 309 -15 C489 -15 589 83 589 241 L589 470 C589 627 491 725 309 725 C159 725 77 665 40 555 L40 555 Z " />
<glyph glyph-name="uni042E" unicode="&#x42e;" horiz-adv-x="929" d="M328 470 L328 405 L171 405 L171 684 C171 703 164 710 144 710 L100 710 C81 710 74 703 74 684 L74 26 C74 7 81 0 100 0 L144 0 C164 0 171 7 171 26 L171 315 L328 315 L328 240 C328 83 424 -15 602 -15 C780 -15 876 83 876 240 L876 470 C876 627 780 725 602 725 C424 725 328 627 328 470 L328 470 Z M779 470 L779 240 C779 135 717 75 602 75 C487 75 425 135 425 240 L425 470 C425 575 487 635 602 635 C717 635 779 575 779 470 L779 470 Z " />
<glyph glyph-name="uni042F" unicode="&#x42f;" horiz-adv-x="646" d="M48 497 C48 391 100 322 190 299 C170 287 156 268 143 242 L39 27 C32 11 33 0 53 0 L97 0 C130 0 141 3 149 23 L233 206 C260 266 290 285 364 285 L475 285 L475 26 C475 7 481 0 501 0 L545 0 C565 0 571 7 571 26 L571 684 C571 703 565 710 545 710 L265 710 C130 710 48 632 48 497 L48 497 Z M274 620 L475 620 L475 375 L274 375 C195 375 149 419 149 497 C149 576 194 620 274 620 L274 620 Z " />
<glyph glyph-name="uni0430" unicode="&#x430;" horiz-adv-x="516" d="M52 426 C43 408 48 399 65 392 L96 378 C114 371 118 374 129 390 C153 430 193 451 253 451 C347 451 372 403 372 332 L372 294 C355 296 307 301 258 301 C99 301 35 261 35 144 C35 42 78 -15 254 -15 C332 -15 389 -5 426 11 C454 23 462 33 462 68 L462 329 C462 442 417 531 255 531 C153 531 86 492 52 426 L52 426 Z M372 220 L372 94 C372 80 369 77 357 72 C334 64 300 60 246 60 C146 60 125 92 125 144 C125 201 154 228 248 228 C297 228 352 222 372 220 L372 220 Z " />
<glyph glyph-name="uni0431" unicode="&#x431;" horiz-adv-x="554" d="M364 731 L331 731 C125 731 58 639 58 428 L58 184 C58 61 136 -15 283 -15 C433 -15 509 61 509 184 L509 305 C509 429 434 505 302 505 C204 505 159 460 141 433 L141 452 C141 597 182 648 332 648 L366 648 C414 648 444 651 469 664 C485 672 490 679 484 697 L473 728 C466 747 457 752 439 743 C424 736 396 731 364 731 L364 731 Z M419 305 L419 185 C419 110 373 66 283 66 C194 66 148 110 148 185 L148 329 C152 371 194 424 283 424 C373 424 419 380 419 305 L419 305 Z " />
<glyph glyph-name="uni0432" unicode="&#x432;" horiz-adv-x="534" d="M477 378 C477 462 423 516 329 516 L87 516 C69 516 62 510 62 492 L62 24 C62 6 69 0 87 0 L343 0 C437 0 495 56 495 144 C495 203 471 246 422 269 C460 292 477 331 477 378 L477 378 Z M317 302 L152 302 L152 440 L314 440 C361 440 387 414 387 371 C387 328 360 302 317 302 L317 302 Z M325 76 L152 76 L152 228 L324 228 C374 228 402 200 402 153 C402 105 374 76 325 76 L325 76 Z " />
<glyph glyph-name="uni0433" unicode="&#x433;" horiz-adv-x="427" d="M389 516 L86 516 C68 516 62 510 62 492 L62 24 C62 6 69 0 86 0 L128 0 C146 0 152 6 152 24 L152 433 L389 433 C407 433 413 439 413 457 L413 492 C413 510 407 516 389 516 L389 516 Z " />
<glyph glyph-name="uni0434" unicode="&#x434;" horiz-adv-x="605" d="M564 83 L513 83 L513 492 C513 510 507 516 489 516 L159 516 C141 516 135 510 135 492 L135 341 C135 157 102 110 69 83 L42 83 C25 83 19 77 19 58 L19 -115 C19 -133 25 -139 42 -139 L81 -139 C99 -139 106 -133 106 -115 L106 0 L501 0 L501 -115 C501 -133 507 -139 525 -139 L564 -139 C582 -139 588 -133 588 -115 L588 58 C588 77 582 83 564 83 L564 83 Z M222 336 L222 433 L423 433 L423 83 L172 83 C201 125 222 191 222 336 L222 336 Z " />
<glyph glyph-name="uni0435" unicode="&#x435;" horiz-adv-x="534" d="M44 317 L44 193 C44 71 110 -15 266 -15 C381 -15 446 27 481 88 C492 105 490 118 472 127 L445 141 C427 151 418 149 406 132 C381 90 338 63 267 63 C179 63 133 107 133 183 L133 231 L459 231 C487 231 496 245 496 266 L496 324 C496 442 424 531 270 531 C122 531 44 452 44 317 L44 317 Z M407 329 L407 300 L133 300 L133 329 C133 407 180 455 270 455 C361 455 407 407 407 329 L407 329 Z " />
<glyph glyph-name="uni0436" unicode="&#x436;" horiz-adv-x="748" d="M394 516 L354 516 C335 516 329 510 329 492 L329 305 L278 305 L262 305 L133 498 C122 515 113 516 87 516 L49 516 C26 516 20 507 33 488 L180 281 C152 267 132 243 114 206 L25 28 C15 8 17 0 40 0 L79 0 C106 0 112 3 121 22 L190 167 C208 206 232 222 279 222 L329 222 L329 25 C329 6 335 0 354 0 L394 0 C413 0 419 6 419 25 L419 222 L469 222 C516 222 540 206 558 167 L627 22 C636 3 642 0 669 0 L708 0 C731 0 733 8 723 28 L634 206 C616 243 596 267 568 281 L715 488 C727 507 723 516 699 516 L661 516 C635 516 626 515 615 498 L486 305 L470 305 L419 305 L419 492 C419 510 413 516 394 516 L394 516 Z " />
<glyph glyph-name="uni0437" unicode="&#x437;" horiz-adv-x="514" d="M39 400 C32 381 37 372 55 366 L89 354 C108 348 116 352 124 371 C132 392 166 452 259 452 C343 452 373 417 373 370 C373 326 343 299 292 299 L195 299 C177 299 171 293 171 275 L171 249 C171 231 177 225 195 225 L298 225 C355 225 383 197 383 149 C383 100 351 64 263 64 C159 64 125 129 116 149 C109 168 101 171 82 165 L48 154 C29 149 23 139 31 120 C52 70 114 -15 262 -15 C419 -15 475 52 475 140 C475 201 455 244 398 265 L398 269 C446 288 464 332 464 378 C464 465 407 531 259 531 C116 531 54 445 39 400 L39 400 Z " />
<glyph glyph-name="uni0438" unicode="&#x438;" horiz-adv-x="562" d="M128 516 L86 516 C68 516 62 510 62 492 L62 24 C62 6 69 0 86 0 L128 0 C139 0 145 3 152 12 L367 305 C390 337 406 362 423 397 L426 397 C418 358 410 320 410 264 L410 24 C410 6 416 0 434 0 L476 0 C494 0 500 6 500 24 L500 492 C500 510 494 516 476 516 L434 516 C423 516 417 513 411 504 L193 208 C173 181 158 159 139 118 L136 118 C147 162 152 198 152 248 L152 492 C152 510 146 516 128 516 L128 516 Z " />
<glyph glyph-name="uni0439" unicode="&#x439;" horiz-adv-x="562" d="M439 693 C443 705 440 710 428 715 L393 728 C382 731 377 730 372 719 C359 675 330 653 285 653 C241 653 212 675 199 719 C194 730 188 731 175 727 L144 715 C132 711 129 705 133 693 C155 624 208 587 285 587 C363 587 417 624 439 693 L439 693 Z M128 516 L86 516 C68 516 62 510 62 492 L62 24 C62 6 69 0 86 0 L128 0 C139 0 145 3 152 12 L367 305 C390 337 406 362 423 397 L426 397 C418 358 410 320 410 264 L410 24 C410 6 416 0 434 0 L476 0 C494 0 500 6 500 24 L500 492 C500 510 494 516 476 516 L434 516 C423 516 417 513 411 504 L193 208 C173 181 158 159 139 118 L136 118 C147 162 152 198 152 248 L152 492 C152 510 146 516 128 516 L128 516 Z " />
<glyph glyph-name="uni043A" unicode="&#x43a;" horiz-adv-x="521" d="M497 28 L409 206 C388 248 364 275 329 288 L489 488 C503 506 498 516 474 516 L436 516 C409 516 402 516 389 498 L240 305 L231 305 L152 305 L152 492 C152 510 146 516 127 516 L87 516 C68 516 62 510 62 492 L62 25 C62 6 68 0 87 0 L127 0 C146 0 152 6 152 25 L152 222 L243 222 C290 222 314 206 333 167 L402 22 C411 3 416 0 443 0 L482 0 C505 0 508 8 497 28 L497 28 Z " />
<glyph glyph-name="uni043B" unicode="&#x43b;" horiz-adv-x="540" d="M453 516 L132 516 C114 516 108 510 108 492 L108 336 C108 116 56 89 13 68 C1 61 -2 53 4 40 L25 0 C32 -14 40 -18 54 -12 C124 21 195 75 195 330 L195 433 L388 433 L388 24 C388 6 394 0 412 0 L453 0 C471 0 477 6 477 24 L477 492 C477 510 471 516 453 516 L453 516 Z " />
<glyph glyph-name="uni043C" unicode="&#x43c;" horiz-adv-x="640" d="M552 516 L518 516 C499 516 493 511 485 496 L321 200 L154 496 C146 512 139 516 120 516 L89 516 C68 516 62 510 62 490 L62 24 C62 5 67 0 87 0 L122 0 C140 0 145 5 145 24 L145 251 C145 290 138 342 130 392 L133 392 C151 345 164 319 184 284 L279 119 C288 104 294 101 309 101 L331 101 C348 101 352 104 361 119 L456 287 C476 320 490 347 506 392 L510 392 C500 343 494 293 494 255 L494 24 C494 5 499 0 518 0 L554 0 C572 0 578 5 578 24 L578 490 C578 510 573 516 552 516 L552 516 Z " />
<glyph glyph-name="uni043D" unicode="&#x43d;" horiz-adv-x="557" d="M471 516 L429 516 C411 516 405 510 405 492 L405 305 L152 305 L152 492 C152 510 146 516 128 516 L86 516 C68 516 62 510 62 492 L62 24 C62 6 69 0 86 0 L128 0 C146 0 152 6 152 24 L152 222 L405 222 L405 24 C405 6 411 0 429 0 L471 0 C489 0 495 6 495 24 L495 492 C495 510 489 516 471 516 L471 516 Z " />
<glyph glyph-name="uni043E" unicode="&#x43e;" horiz-adv-x="541" d="M46 339 L46 176 C46 58 129 -15 270 -15 C414 -15 495 58 495 176 L495 339 C495 458 414 531 270 531 C129 531 46 458 46 339 L46 339 Z M406 340 L406 176 C406 107 355 66 270 66 C186 66 135 107 135 176 L135 340 C135 409 186 450 270 450 C355 450 406 409 406 340 L406 340 Z " />
<glyph glyph-name="uni043F" unicode="&#x43f;" horiz-adv-x="553" d="M466 516 L86 516 C68 516 62 510 62 492 L62 24 C62 6 69 0 86 0 L128 0 C146 0 152 6 152 24 L152 433 L401 433 L401 24 C401 6 407 0 425 0 L466 0 C484 0 490 6 490 24 L490 492 C490 510 484 516 466 516 L466 516 Z " />
<glyph glyph-name="uni0440" unicode="&#x440;" horiz-adv-x="539" d="M100 502 C68 489 61 478 61 445 L61 -196 C61 -214 67 -220 84 -220 L126 -220 C144 -220 150 -214 150 -196 L150 12 C176 3 223 -15 280 -15 C425 -15 493 59 493 189 L493 330 C493 458 427 531 284 531 C197 531 139 517 100 502 L100 502 Z M403 327 L403 192 C403 109 363 67 273 67 C220 67 173 85 150 93 L150 413 C150 425 152 428 165 434 C192 442 227 449 271 449 C359 449 403 407 403 327 L403 327 Z " />
<glyph glyph-name="uni0441" unicode="&#x441;" horiz-adv-x="516" d="M45 330 L45 187 C45 62 115 -15 263 -15 C382 -15 450 34 482 123 C489 142 483 150 465 157 L430 167 C411 173 404 170 396 151 C378 95 337 64 265 64 C179 64 135 109 135 183 L135 334 C135 408 178 452 265 452 C339 452 377 423 395 368 C402 350 411 344 429 352 L464 363 C481 369 487 378 480 397 C455 476 390 531 269 531 C117 531 45 454 45 330 L45 330 Z " />
<glyph glyph-name="uni0442" unicode="&#x442;" horiz-adv-x="457" d="M419 516 L38 516 C20 516 14 510 14 492 L14 457 C14 439 20 433 38 433 L184 433 L184 24 C184 6 190 0 208 0 L250 0 C268 0 273 6 273 24 L273 433 L419 433 C437 433 443 439 443 457 L443 492 C443 510 437 516 419 516 L419 516 Z " />
<glyph glyph-name="uni0443" unicode="&#x443;" horiz-adv-x="553" d="M466 516 L425 516 C407 516 401 510 401 492 L401 107 C372 98 329 86 273 86 C187 86 147 126 147 205 L147 492 C147 510 141 516 124 516 L82 516 C64 516 58 510 58 492 L58 202 C58 77 121 4 261 4 C324 4 368 16 401 25 L401 -29 C401 -113 360 -161 273 -161 C207 -161 173 -135 149 -94 C137 -78 129 -75 110 -85 L81 -101 C63 -110 60 -122 71 -139 C106 -201 167 -241 274 -241 C429 -241 490 -155 490 -25 L490 492 C490 510 484 516 466 516 L466 516 Z " />
<glyph glyph-name="uni0444" unicode="&#x444;" horiz-adv-x="740" d="M415 526 L415 716 C415 733 409 739 391 739 L349 739 C331 739 326 733 326 716 L326 526 C305 529 284 530 261 531 C135 531 44 469 44 314 L44 199 C44 44 135 -15 261 -15 C284 -14 305 -13 326 -10 L326 -196 C326 -214 331 -220 349 -220 L391 -220 C409 -220 415 -214 415 -196 L415 -10 C436 -13 456 -14 478 -15 C605 -15 695 44 695 199 L695 318 C695 472 605 531 478 531 C456 530 436 529 415 526 L415 526 Z M134 201 L134 311 C134 418 199 449 267 449 C289 449 308 447 328 445 L328 71 C308 69 289 67 267 67 C199 67 134 96 134 201 L134 201 Z M606 315 L606 201 C606 96 541 67 473 67 C451 67 432 69 412 71 L412 445 C432 447 451 449 473 449 C541 449 606 421 606 315 L606 315 Z " />
<glyph glyph-name="uni0445" unicode="&#x445;" horiz-adv-x="497" d="M449 516 L411 516 C386 516 381 513 370 496 L249 330 L128 496 C116 513 110 516 84 516 L48 516 C20 516 18 505 29 488 L194 265 L22 28 C9 9 11 0 39 0 L76 0 C101 0 108 2 119 20 L247 201 L378 20 C390 3 395 0 421 0 L459 0 C485 0 489 9 476 28 L304 265 L466 488 C478 507 474 516 449 516 L449 516 Z " />
<glyph glyph-name="uni0446" unicode="&#x446;" horiz-adv-x="577" d="M536 83 L485 83 L485 492 C485 510 479 516 461 516 L419 516 C401 516 395 510 395 492 L395 83 L152 83 L152 492 C152 510 146 516 128 516 L86 516 C69 516 62 510 62 492 L62 24 C62 6 68 0 86 0 L473 0 L473 -115 C473 -133 479 -139 497 -139 L536 -139 C554 -139 560 -133 560 -115 L560 58 C560 77 554 83 536 83 L536 83 Z " />
<glyph glyph-name="uni0447" unicode="&#x447;" horiz-adv-x="513" d="M32 492 L32 371 C32 246 94 181 235 181 C310 181 356 194 361 196 L361 24 C361 6 367 0 385 0 L427 0 C445 0 451 6 451 24 L451 492 C451 510 445 516 427 516 L385 516 C367 516 361 510 361 492 L361 280 C356 278 308 262 247 262 C162 262 121 297 121 373 L121 492 C121 510 115 516 98 516 L56 516 C38 516 32 510 32 492 L32 492 Z " />
<glyph glyph-name="uni0448" unicode="&#x448;" horiz-adv-x="766" d="M680 516 L638 516 C620 516 615 510 615 492 L615 83 L428 83 L428 492 C428 510 422 516 404 516 L362 516 C344 516 338 510 338 492 L338 83 L152 83 L152 492 C152 510 146 516 128 516 L86 516 C69 516 62 510 62 492 L62 24 C62 6 68 0 86 0 L680 0 C698 0 704 6 704 24 L704 492 C704 510 698 516 680 516 L680 516 Z " />
<glyph glyph-name="uni0449" unicode="&#x449;" horiz-adv-x="796" d="M754 83 L704 83 L704 492 C704 510 698 516 680 516 L638 516 C620 516 615 510 615 492 L615 83 L428 83 L428 492 C428 510 422 516 404 516 L362 516 C344 516 338 510 338 492 L338 83 L152 83 L152 492 C152 510 146 516 128 516 L86 516 C69 516 62 510 62 492 L62 24 C62 6 68 0 86 0 L691 0 L691 -115 C691 -133 698 -139 716 -139 L754 -139 C772 -139 778 -133 778 -115 L778 58 C778 77 772 83 754 83 L754 83 Z " />
</font>
</svg>
