<?xml version="1.0" standalone="no"?>
<!DOCTYPE svg PUBLIC "-//W3C//DTD SVG 20010904//EN"
 "http://www.w3.org/TR/2001/REC-SVG-20010904/DTD/svg10.dtd">
<svg version="1.0" xmlns="http://www.w3.org/2000/svg"
 width="500.000000pt" height="500.000000pt" viewBox="0 0 500.000000 500.000000"
 preserveAspectRatio="xMidYMid meet">
<metadata>
Created by potrace 1.11, written by Peter Selinger 2001-2013
</metadata>
<g transform="translate(0.000000,500.000000) scale(0.100000,-0.100000)"
fill="#000000" stroke="none">
<path d="M2290 4490 c-601 -70 -1032 -395 -1166 -881 -32 -118 -43 -323 -24
-462 42 -314 204 -555 486 -723 194 -116 373 -180 852 -303 360 -93 436 -117
549 -172 188 -93 268 -226 228 -381 -38 -152 -164 -260 -371 -320 -70 -20
-101 -23 -279 -23 -226 0 -287 10 -489 76 -225 74 -438 204 -618 378 -32 30
-60 52 -64 48 -4 -4 -100 -143 -215 -309 l-207 -303 61 -63 c109 -112 283
-235 454 -321 332 -168 688 -240 1131 -228 521 13 901 167 1150 464 180 215
276 520 257 818 -19 305 -97 496 -280 680 -111 112 -188 167 -351 247 -184 92
-341 143 -804 262 -369 95 -499 143 -597 222 -80 66 -111 154 -92 261 27 148
136 253 309 298 180 47 499 20 740 -62 166 -56 366 -171 494 -283 49 -42 61
-49 72 -38 25 25 424 579 424 588 0 16 -141 129 -255 205 -248 165 -510 262
-840 311 -121 18 -451 26 -555 14z"/>
</g>
</svg>
